<svg width="48" height="48" viewBox="0 0 48 48" fill="none" xmlns="http://www.w3.org/2000/svg">
<path d="M47.2984 20.0063L44.7383 19.6863C44.1871 18.3805 43.3937 17.191 42.4 16.1801C41.9898 15.2094 41.5035 14.2734 40.9449 13.3801L43.293 10.348C43.5395 10.0297 43.5109 9.57773 43.2266 9.29297L38.7062 4.77266C38.4215 4.4875 37.9691 4.45859 37.6504 4.70547L34.6191 7.0543C32.7266 5.86211 30.6453 5.00039 28.4641 4.50547L27.9902 0.703125C27.9418 0.303125 27.6031 0.00195312 27.2 0H20.8C20.3965 0 20.0562 0.300391 20.0063 0.700781L19.5328 4.50313C17.3516 4.99766 15.2699 5.85977 13.3777 7.05195L10.3465 4.70312C10.0277 4.45625 9.57539 4.48516 9.29023 4.77031L4.77031 9.29023C4.48594 9.57539 4.45742 10.0273 4.70391 10.3457L7.05117 13.377C5.85898 15.2711 4.99766 17.3539 4.50391 19.5367L0.700781 20.0105C0.301953 20.0602 0.00195312 20.398 0 20.8V27.2C0 27.6035 0.300391 27.9438 0.700781 27.9937L4.50391 28.4672C4.99766 30.65 5.85898 32.7332 7.05117 34.6273L4.70391 37.6543C4.45742 37.9727 4.48594 38.4246 4.77031 38.7098L9.29023 43.2297C9.57539 43.5148 10.0277 43.5438 10.3465 43.2969L13.3777 40.948C15.2699 42.1402 17.3516 43.0023 19.5328 43.4969L20.0063 47.2992C20.0562 47.6996 20.3965 48 20.8 48H27.2C27.6035 48 27.9438 47.6996 27.9937 47.2992L28.4672 43.4953C29.3969 43.2809 30.3102 43.0004 31.2 42.6559V44.8C31.2 46.5672 32.6328 48 34.4 48C36.1672 48 37.6 46.5672 37.6 44.8V43.2543L37.6535 43.2969C37.9723 43.5438 38.4246 43.5148 38.7098 43.2297L43.2297 38.7098C43.5141 38.4246 43.5426 37.9727 43.2961 37.6543L40.948 34.6223C41.5055 33.7281 41.991 32.791 42.4 31.8199C43.3914 30.8082 44.182 29.618 44.7313 28.3121L47.291 27.9922C47.6941 27.9457 47.9984 27.6055 48 27.2V20.8C48 20.3965 47.6988 20.0559 47.2984 20.0063ZM27.5871 42.0473C27.248 42.1137 26.9898 42.3906 26.9473 42.7336L26.4937 46.4H21.5063L21.0496 42.7336C21.007 42.3906 20.7488 42.1137 20.4098 42.0473C18.0391 41.5824 15.7855 40.6496 13.7801 39.3031C13.4938 39.1113 13.1172 39.1242 12.8449 39.3352L9.91992 41.6L6.4 38.0801L8.66406 35.1566C8.87461 34.8848 8.88789 34.5086 8.69688 34.2223C7.35078 32.2168 6.41797 29.9629 5.95273 27.593C5.88633 27.2539 5.60977 26.9957 5.26719 26.9527L1.6 26.4937V21.5063L5.26719 21.0496C5.60977 21.0066 5.88633 20.7484 5.95273 20.4098C6.41797 18.0395 7.35078 15.7855 8.69688 13.7801C8.88789 13.4938 8.87461 13.1176 8.66406 12.8457L6.4 9.91992L9.91992 6.4L12.8434 8.66484C13.1156 8.87578 13.4922 8.88867 13.7785 8.69688C15.7836 7.35039 18.0375 6.41758 20.4078 5.95273C20.7473 5.88633 21.0055 5.60938 21.048 5.26641L21.5063 1.6H26.4937L26.9496 5.26641C26.9922 5.60938 27.2504 5.88633 27.5895 5.95273C29.9602 6.41758 32.2137 7.35039 34.2191 8.69688C34.5055 8.88867 34.882 8.87578 35.1543 8.66484L38.0801 6.4L41.6 9.91992L39.3359 12.8434C39.1254 13.1148 39.1117 13.4906 39.3023 13.777C39.3527 13.852 39.393 13.9367 39.4426 14.0098C36.8391 12.6824 33.8184 12.4332 31.0328 13.316C28.9484 11.9324 26.5016 11.1965 24 11.2C16.9309 11.2 11.2 16.9309 11.2 24C11.2 31.0691 16.9309 36.8 24 36.8C26.502 36.8027 28.9488 36.0652 31.0328 34.6809C31.3527 34.7809 31.6727 34.8625 32 34.9344V36C31.5582 36 31.2 36.3582 31.2 36.8V40.9266C30.0375 41.423 28.8266 41.7984 27.5871 42.0473ZM26.2586 16.332C22.9836 15.3578 19.4516 16.5711 17.4664 19.352C15.4812 22.1328 15.4812 25.8672 17.4664 28.648C19.4516 31.4289 22.9836 32.6422 26.2586 31.668C27.1086 32.573 28.1027 33.3312 29.2 33.9121C24.4875 36.391 18.6812 35.2098 15.3121 31.0863C11.943 26.9629 11.943 21.0371 15.3121 16.9137C18.6812 12.7902 24.4875 11.609 29.2 14.0879C28.1027 14.6687 27.1086 15.427 26.2586 16.332ZM25.1441 17.7039C22.552 21.5012 22.552 26.4988 25.1441 30.2961C22.6215 30.7563 20.068 29.6668 18.6547 27.5273C17.2418 25.3883 17.2418 22.6117 18.6547 20.4727C20.068 18.3332 22.6215 17.2437 25.1441 17.7039ZM33.6 35.1594C33.8656 35.1785 34.1297 35.2 34.4 35.2C34.6703 35.2 34.9344 35.1785 35.2 35.1594V36H33.6V35.1594ZM36 44.8C36 45.6836 35.2836 46.4 34.4 46.4C33.5164 46.4 32.8 45.6836 32.8 44.8V37.6H36V44.8ZM41.6 38.0801L38.0801 41.6L37.6 41.2313V36.8C37.6 36.3582 37.2418 36 36.8 36V34.9344C37.7164 34.7316 38.6035 34.4133 39.4398 33.9871C39.3902 34.0633 39.3504 34.1473 39.3 34.2199C39.1094 34.5063 39.123 34.882 39.3336 35.1535L41.6 38.0801ZM34.4 33.6C29.098 33.6 24.8 29.302 24.8 24C24.8 18.698 29.098 14.4 34.4 14.4C39.702 14.4 44 18.698 44 24C43.9941 29.2996 39.6996 33.5941 34.4 33.6ZM46.4 26.493L45.2742 26.6328C45.7086 24.9043 45.7086 23.0957 45.2742 21.3672L46.4 21.507V26.493Z" fill="#1954FF"/>
<path d="M26.4 24C26.4047 28.4164 29.9836 31.9953 34.4 32V30.4C30.8652 30.4 28 27.5348 28 24C28 20.4652 30.8652 17.6 34.4 17.6V16C29.9836 16.0047 26.4047 19.5836 26.4 24Z" fill="#1954FF"/>
</svg>
