<svg width="48" height="48" viewBox="0 0 48 48" fill="none" xmlns="http://www.w3.org/2000/svg">
<path d="M36 11.2C34.2595 11.2 32.5581 11.7161 31.111 12.6831C29.6638 13.65 28.5359 15.0244 27.8699 16.6324C27.2038 18.2404 27.0295 20.0098 27.3691 21.7168C27.7086 23.4238 28.5468 24.9918 29.7775 26.2225C31.0082 27.4532 32.5762 28.2914 34.2832 28.6309C35.9902 28.9705 37.7596 28.7962 39.3676 28.1301C40.9756 27.4641 42.35 26.3362 43.3169 24.889C44.2839 23.4419 44.8 21.7405 44.8 20C44.7974 17.6669 43.8694 15.4301 42.2196 13.7804C40.5699 12.1306 38.3331 11.2026 36 11.2ZM36 27.2C34.576 27.2 33.1839 26.7777 31.9999 25.9866C30.8159 25.1954 29.893 24.0709 29.3481 22.7553C28.8031 21.4397 28.6605 19.992 28.9383 18.5954C29.2162 17.1987 29.9019 15.9158 30.9088 14.9088C31.9158 13.9019 33.1987 13.2162 34.5953 12.9383C35.992 12.6605 37.4397 12.8031 38.7553 13.3481C40.0709 13.893 41.1954 14.8159 41.9866 15.9999C42.7777 17.1839 43.2 18.576 43.2 20C43.1979 21.9089 42.4386 23.739 41.0888 25.0888C39.739 26.4386 37.9089 27.1979 36 27.2Z" fill="#1954FF"/>
<path d="M48 20C47.9998 17.7815 47.3846 15.6064 46.2228 13.7165C45.061 11.8265 43.3979 10.2957 41.4184 9.29393C39.439 8.29218 37.2205 7.85879 35.0096 8.0419C32.7987 8.225 30.6817 9.01742 28.894 10.3311C27.1063 11.6449 25.7178 13.4285 24.8827 15.4838C24.0475 17.5391 23.7985 19.7857 24.1633 21.9741C24.5281 24.1624 25.4924 26.2067 26.949 27.88C28.4057 29.5534 30.2977 30.7901 32.4149 31.4529C32.2085 31.7564 32.0746 32.1032 32.0234 32.4667C31.9722 32.8301 32.0051 33.2004 32.1196 33.5491C32.2341 33.8979 32.4271 34.2156 32.6838 34.478C32.9404 34.7403 33.2539 34.9403 33.6 35.0624V45.6C33.6 46.2365 33.8529 46.847 34.3029 47.2971C34.753 47.7471 35.3635 48 36 48C36.6365 48 37.247 47.7471 37.6971 47.2971C38.1471 46.847 38.4 46.2365 38.4 45.6V35.0624C38.7462 34.9403 39.0597 34.7403 39.3164 34.478C39.5731 34.2156 39.7662 33.8977 39.8807 33.549C39.9952 33.2002 40.0281 32.8298 39.9768 32.4663C39.9256 32.1028 39.7916 31.7559 39.5851 31.4524C42.0229 30.6857 44.1529 29.1621 45.6661 27.1028C47.1792 25.0435 47.9967 22.5555 48 20ZM36.8 35.2V43.2H35.2V35.2H36.8ZM36 46.4C35.7879 46.3998 35.5846 46.3154 35.4346 46.1654C35.2846 46.0154 35.2002 45.8121 35.2 45.6V44.8H36.8V45.6C36.7998 45.8121 36.7154 46.0154 36.5654 46.1654C36.4154 46.3154 36.2121 46.3998 36 46.4ZM37.6 32C37.8122 32 38.0157 32.0843 38.1657 32.2343C38.3157 32.3843 38.4 32.5878 38.4 32.8C38.4 33.0122 38.3157 33.2157 38.1657 33.3657C38.0157 33.5157 37.8122 33.6 37.6 33.6H34.4C34.1878 33.6 33.9843 33.5157 33.8343 33.3657C33.6843 33.2157 33.6 33.0122 33.6 32.8C33.6 32.5878 33.6843 32.3843 33.8343 32.2343C33.9843 32.0843 34.1878 32 34.4 32H37.6ZM36 30.4C33.9431 30.4 31.9323 29.7901 30.2221 28.6473C28.5118 27.5045 27.1788 25.8803 26.3917 23.9799C25.6045 22.0796 25.3985 19.9885 25.7998 17.9711C26.2011 15.9537 27.1916 14.1006 28.6461 12.6461C30.1006 11.1916 31.9537 10.2011 33.9711 9.79983C35.9885 9.39855 38.0796 9.6045 39.9799 10.3917C41.8803 11.1788 43.5045 12.5118 44.6473 14.2221C45.7901 15.9323 46.4 17.9431 46.4 20C46.3969 22.7573 45.3002 25.4008 43.3505 27.3505C41.4008 29.3002 38.7573 30.3969 36 30.4Z" fill="#1954FF"/>
<path d="M1.6 1.6H6.0687L9.0343 4.5657C9.10859 4.63999 9.19678 4.69891 9.29385 4.73911C9.39091 4.77931 9.49494 4.8 9.6 4.8H30.4V7.2H32V0.8C32 0.587827 31.9157 0.384344 31.7657 0.234315C31.6157 0.0842854 31.4122 0 31.2 0H0.8C0.587827 0 0.384344 0.0842854 0.234315 0.234315C0.0842854 0.384344 0 0.587827 0 0.8V44C0 44.2122 0.0842854 44.4157 0.234315 44.5657C0.384344 44.7157 0.587827 44.8 0.8 44.8H9.6V43.2H1.6V1.6ZM8.3314 1.6H12.4686L14.0686 3.2H9.9313L8.3314 1.6ZM14.7314 1.6H18.0686L19.6686 3.2H16.3314L14.7314 1.6ZM30.4 3.2H21.9314L20.3314 1.6H30.4V3.2Z" fill="#1954FF"/>
<path d="M13.2527 45.4375L6.0777 15.0737L28.656 9.7384L28.288 8.1813L4.9312 13.7006C4.72474 13.7494 4.54612 13.8782 4.43463 14.0587C4.32314 14.2392 4.28791 14.4566 4.3367 14.6631L11.88 46.584C11.9288 46.7905 12.0576 46.9691 12.2381 47.0806C12.4186 47.1921 12.636 47.2273 12.8425 47.1785L32.184 42.608L31.816 41.051L13.2527 45.4375Z" fill="#1954FF"/>
<path d="M12.9118 26.605L14.4686 26.237L14.8366 27.7937L13.2798 28.1617L12.9118 26.605Z" fill="#1954FF"/>
<path d="M16.0252 25.8697L23.0114 24.2183L23.3794 25.775L16.3932 27.4264L16.0252 25.8697Z" fill="#1954FF"/>
<path d="M12.0905 30.0872L24.6111 27.1276L24.9791 28.6843L12.4585 31.6439L12.0905 30.0872Z" fill="#1954FF"/>
<path d="M12.8263 33.2009L27.0106 29.848L27.3786 31.4047L13.1943 34.7576L12.8263 33.2009Z" fill="#1954FF"/>
<path d="M13.5628 36.3139L30.6876 32.2659L31.0556 33.8226L13.9308 37.8706L13.5628 36.3139Z" fill="#1954FF"/>
<path d="M14.299 39.4272L28.3102 36.1152L28.6782 37.6719L14.667 40.9839L14.299 39.4272Z" fill="#1954FF"/>
<path d="M22.66 13.6215L9.7441 16.6735C9.53764 16.7223 9.35902 16.8511 9.24753 17.0316C9.13604 17.2121 9.10081 17.4295 9.1496 17.636L10.6214 23.8645C10.6454 23.9668 10.6894 24.0634 10.7508 24.1487C10.8122 24.234 10.8898 24.3063 10.9793 24.3615C11.0687 24.4168 11.1681 24.4538 11.2719 24.4705C11.3756 24.4873 11.4817 24.4833 11.5839 24.459L22.5839 21.8597L22.2159 20.3026L11.9943 22.718L10.89 18.0467L23.0273 15.1785L22.66 13.6215Z" fill="#1954FF"/>
</svg>
