<svg width="45" height="48" viewBox="0 0 45 48" fill="none" xmlns="http://www.w3.org/2000/svg">
<path d="M44.8 24C44.7996 20.6934 43.3352 17.5566 40.8 15.4336V8.8C40.8 8.58789 40.7156 8.38438 40.5656 8.23438L32.5656 0.234375C32.4156 0.084375 32.2121 0 32 0H9.6C9.1582 0 8.8 0.358203 8.8 0.8V3.2H6.4C5.9582 3.2 5.6 3.5582 5.6 4V5.6H3.2C2.7582 5.6 2.4 5.9582 2.4 6.4V29.6H1.6C0.716406 29.6 0 30.3164 0 31.2V42.4C0 43.2836 0.716406 44 1.6 44H30.4V44.8C30.4 46.5672 31.8328 48 33.6 48C35.3672 48 36.8 46.5672 36.8 44.8V44H41.6C42.4836 44 43.2 43.2836 43.2 42.4V32C43.193 31.4676 43.0086 30.9527 42.6762 30.5367C44.0563 28.6367 44.7996 26.3484 44.8 24ZM43.2 24C43.2 29.302 38.902 33.6 33.6 33.6C28.298 33.6 24 29.302 24 24C24 18.698 28.298 14.4 33.6 14.4C38.8996 14.4059 43.1941 18.7004 43.2 24ZM32.8 35.1594C33.0656 35.1785 33.3297 35.2 33.6 35.2C33.8703 35.2 34.1344 35.1785 34.4 35.1594V36H32.8V35.1594ZM27.3055 33.2574C26.0523 35.7809 23.2926 37.184 20.5152 36.7098C17.7379 36.2355 15.6004 33.9961 15.2551 31.2H25.0336C25.6938 31.9859 26.4582 32.6781 27.3055 33.2574ZM32.8 2.73125L38.0688 8H32.8V2.73125ZM31.2 1.6V8.8C31.2 9.2418 31.5582 9.6 32 9.6H39.2V14.3152C34.8145 11.7652 29.2617 12.4875 25.6746 16.0746C22.0875 19.6617 21.3652 25.2145 23.9152 29.6H10.4V1.6H31.2ZM8.8 4.8V29.6H7.2V4.8H8.8ZM4 7.2H5.6V29.6H4V7.2ZM1.6 42.4V31.2H13.6406C13.9926 34.7258 16.6234 37.5996 20.1047 38.2602C23.5859 38.9207 27.0867 37.2105 28.7055 34.0586C29.4992 34.4488 30.3367 34.743 31.2 34.9344V36C30.7582 36 30.4 36.3582 30.4 36.8V42.4H1.6ZM35.2 44.8C35.2 45.6836 34.4836 46.4 33.6 46.4C32.7164 46.4 32 45.6836 32 44.8V37.6H35.2V44.8ZM41.6 32V42.4H36.8V36.8C36.8 36.3582 36.4418 36 36 36V34.9344C38.1203 34.468 40.059 33.3945 41.5801 31.8457C41.5914 31.8965 41.5984 31.948 41.6 32Z" fill="#1954FF"/>
<path d="M25.6 24C25.6047 28.4164 29.1836 31.9953 33.6 32V30.4C30.0652 30.4 27.2 27.5348 27.2 24C27.2 20.4652 30.0652 17.6 33.6 17.6V16C29.1836 16.0047 25.6047 19.5836 25.6 24Z" fill="#1954FF"/>
</svg>
