<svg width="44" height="44" fill="none" xmlns="http://www.w3.org/2000/svg"><path d="M29.333 3.667H14.667v1.466h14.666V3.667zM36.3 27.5a2.57 2.57 0 0 0-2.567-2.567h-1.466V14.667H30.8v10.266h-1.833A2.57 2.57 0 0 0 26.4 27.5c0 .718.299 1.367.776 1.833a2.556 2.556 0 0 0-.776 1.834c0 .494.147.952.39 1.344a2.565 2.565 0 0 0-1.49 2.322c0 .395.097.766.258 1.1H19.8a6.597 6.597 0 0 0-2.837-5.42A4.407 4.407 0 0 0 19.8 26.4a.733.733 0 0 0-.733-.733H13.2v-7.334h-1.467v7.334c-1.213 0-2.2.987-2.2 2.2V44H11V27.867c0-.405.329-.734.733-.734h6.507a2.938 2.938 0 0 1-2.84 2.2h-2.2a.733.733 0 1 0 0 1.467 5.14 5.14 0 0 1 5.133 5.133v.734c0 .405.328.733.734.733h4.29c-.16.335-.257.705-.257 1.1a2.57 2.57 0 0 0 2.567 2.567V44h1.466v-2.933h3.3A2.57 2.57 0 0 0 33 38.5c0-.4-.1-.773-.263-1.11a2.565 2.565 0 0 0 2.463-2.557 2.54 2.54 0 0 0-.39-1.344 2.565 2.565 0 0 0 1.49-2.322 2.56 2.56 0 0 0-.776-1.834A2.556 2.556 0 0 0 36.3 27.5zm-5.867 12.1h-4.766a1.101 1.101 0 0 1 0-2.2h4.766a1.101 1.101 0 0 1 0 2.2zm2.2-3.667h-4.766a1.101 1.101 0 0 1 0-2.2h4.766a1.101 1.101 0 0 1 0 2.2zm1.1-3.666h-4.766a1.101 1.101 0 0 1 0-2.2h4.766a1.101 1.101 0 0 1 0 2.2zm0-3.667h-4.766a1.101 1.101 0 0 1 0-2.2h4.766a1.101 1.101 0 0 1 0 2.2zM10.998 9.334a.733.733 0 0 0-.288-.532l-.763-.579A2.01 2.01 0 0 0 7.982 6.6c-1.095 0-1.988.89-2.002 1.99a4.257 4.257 0 0 1-1.647-.665l-.256-.173a.733.733 0 0 0-1.144.608v.602c0 .883.267 1.726.76 2.434l-.548.555a.733.733 0 0 0 .522 1.249H7.22a2.776 2.776 0 0 0 2.747-2.467l.821-.83a.734.734 0 0 0 .21-.569zm-2.268.564a.732.732 0 0 0-.212.516 1.31 1.31 0 0 1-1.298 1.32H5.355a.734.734 0 0 0-.151-.81 2.805 2.805 0 0 1-.712-1.252c.7.295 1.452.448 2.221.448a.733.733 0 0 0 .734-.733v-.77c0-.304.24-.55.535-.55.295 0 .536.246.536.55 0 .23.107.445.29.584l.35.265-.428.432z" fill="#003FF7"/><path d="M24.2 12.467V11H22a.733.733 0 0 0-.733.733v2.2H19.8V15.4h1.467v2.933h1.466V15.4H24.2v-1.467h-1.467v-1.466H24.2z" fill="#003FF7"/><path d="M26.4 8.067h-8.8c-1.213 0-2.2.987-2.2 2.2v8.8c0 1.213.987 2.2 2.2 2.2h8.8c1.213 0 2.2-.987 2.2-2.2v-8.8c0-1.213-.987-2.2-2.2-2.2zm.733 11a.734.734 0 0 1-.733.733h-8.8a.734.734 0 0 1-.733-.733v-8.8c0-.405.328-.734.733-.734h8.8c.405 0 .733.33.733.734v8.8zM11 3.667H2.2c-1.213 0-2.2.987-2.2 2.2v8.8c0 1.213.987 2.2 2.2 2.2H11c1.213 0 2.2-.987 2.2-2.2v-8.8c0-1.213-.987-2.2-2.2-2.2zm.733 11A.734.734 0 0 1 11 15.4H2.2a.734.734 0 0 1-.733-.733v-8.8c0-.405.328-.734.733-.734H11c.405 0 .733.33.733.734v8.8zM41.8 0H33c-1.213 0-2.2.987-2.2 2.2V11c0 1.213.987 2.2 2.2 2.2h8.8c1.213 0 2.2-.987 2.2-2.2V2.2C44 .987 43.013 0 41.8 0zm.733 11a.734.734 0 0 1-.733.733H33a.734.734 0 0 1-.733-.733V7.333h1.54a3.673 3.673 0 0 0 3.593 2.934 3.673 3.673 0 0 0 3.593-2.934h1.54V11zM35.2 6.6c0-1.213.987-2.2 2.2-2.2s2.2.987 2.2 2.2-.987 2.2-2.2 2.2-2.2-.987-2.2-2.2zm7.333-.733h-1.54A3.673 3.673 0 0 0 37.4 2.933a3.673 3.673 0 0 0-3.593 2.934h-1.54V2.2c0-.404.328-.733.733-.733h8.8c.405 0 .733.329.733.733v3.667zm-19.8 24.2h-1.466v1.466h1.466v-1.466z" fill="#003FF7"/></svg>