<svg width="44" height="44" fill="none" xmlns="http://www.w3.org/2000/svg"><path d="M7.097 28.387h7.096c1.174 0 2.13-.955 2.13-2.129s-.956-2.129-2.13-2.129H7.098a2.132 2.132 0 0 0-2.13 2.13c0 1.173.956 2.128 2.13 2.128zm0-2.839h7.096a.71.71 0 0 1 0 1.42H7.098a.71.71 0 0 1 0-1.42z" fill="#003FF7"/><path d="M41.871 15.613A2.132 2.132 0 0 0 44 13.483V2.13A2.132 2.132 0 0 0 41.871 0h-4.968c-.667 0-1.303.319-1.702.852L33.71 2.839h-6.033a2.132 2.132 0 0 0-2.129 2.129v2.838h-6.423C18.762 3.443 15.102 0 10.645 0 5.95 0 2.13 3.82 2.13 8.516c0 4.456 3.442 8.117 7.806 8.48v4.31C4.225 21.466 0 23.539 0 26.258v13.484C0 42.508 5.485 44 10.645 44c5.16 0 10.645-1.492 10.645-4.258v-4.258h4.295c.364 4.755 4.342 8.516 9.19 8.516C39.86 44 44 39.861 44 34.774c0-4.847-3.76-8.825-8.516-9.19v-9.971h6.387zm0-1.42H27.677a.71.71 0 0 1-.71-.71V7.098h15.614v6.387a.71.71 0 0 1-.71.71zM27.677 4.258h6.742l1.917-2.555a.711.711 0 0 1 .567-.284h4.968a.71.71 0 0 1 .71.71v3.548H26.968v-.71a.71.71 0 0 1 .71-.709zM3.548 8.516c0-.741.116-1.456.328-2.129H6.6c-.13.663-.214 1.37-.214 2.13 0 .758.083 1.465.215 2.128H3.876a7.087 7.087 0 0 1-.328-2.129zm4.258 0a9.3 9.3 0 0 1 .252-2.129h5.178c.151.655.248 1.363.248 2.13a9.3 9.3 0 0 1-.251 2.128H8.055a9.374 9.374 0 0 1-.249-2.129zm2.84-6.833a10.25 10.25 0 0 1 2.142 3.285H8.506a10.387 10.387 0 0 1 2.14-3.285zm2.138 10.381a10.369 10.369 0 0 1-2.14 3.286 10.249 10.249 0 0 1-2.142-3.285h4.282zm1.528 0h2.47a7.12 7.12 0 0 1-4.257 3.288c.621-.8 1.31-1.9 1.787-3.287zm3.43-3.548a7.08 7.08 0 0 1-.327 2.13h-2.726c.131-.664.214-1.37.214-2.13 0-.76-.083-1.466-.215-2.129h2.726c.213.673.328 1.388.328 2.13zm-.96-3.548h-2.47a11.458 11.458 0 0 0-1.787-3.288 7.12 7.12 0 0 1 4.257 3.288zM8.765 1.68c-.62.8-1.31 1.9-1.787 3.288h-2.47A7.12 7.12 0 0 1 8.766 1.68zM4.51 12.065h2.47a11.46 11.46 0 0 0 1.786 3.287 7.12 7.12 0 0 1-4.256-3.287zm6.136 10.645c5.437 0 9.226 1.87 9.226 3.548s-3.789 3.548-9.226 3.548c-5.437 0-9.226-1.87-9.226-3.548s3.79-3.548 9.226-3.548zM1.42 28.8c1.806 1.473 5.18 2.426 9.226 2.426 4.047 0 7.42-.953 9.226-2.425v2.425c0 1.157-3.594 2.839-9.226 2.839-5.632 0-9.226-1.682-9.226-2.84v-2.424zm0 4.63c1.964 1.346 5.671 2.054 9.226 2.054 3.555 0 7.262-.708 9.226-2.053v2.053c0 1.157-3.594 2.839-9.226 2.839-5.632 0-9.226-1.682-9.226-2.84v-2.052zm9.226 9.15c-5.632 0-9.226-1.68-9.226-2.838v-2.053c1.964 1.345 5.671 2.053 9.226 2.053 3.555 0 7.262-.708 9.226-2.053v2.053c0 1.157-3.594 2.839-9.226 2.839zm18.7-2.208a4.933 4.933 0 0 1 4.72-3.469h1.419a4.93 4.93 0 0 1 4.72 3.47 7.777 7.777 0 0 1-10.859 0zm5.43-4.888a2.842 2.842 0 0 1-2.84-2.839 2.842 2.842 0 0 1 2.84-2.839 2.842 2.842 0 0 1 2.838 2.84 2.842 2.842 0 0 1-2.839 2.838zm7.806-.71c0 1.611-.492 3.11-1.33 4.354a6.336 6.336 0 0 0-3.666-3.292 4.247 4.247 0 0 0 1.447-3.19 4.262 4.262 0 0 0-4.258-4.259 4.262 4.262 0 0 0-4.258 4.258c0 1.27.562 2.41 1.448 3.19a6.342 6.342 0 0 0-3.666 3.293 7.761 7.761 0 0 1-1.33-4.354c0-4.304 3.502-7.806 7.806-7.806s7.807 3.502 7.807 7.806zm-8.517-9.19a9.228 9.228 0 0 0-8.48 8.48H21.29v-7.806c0-2.72-4.225-4.792-9.935-4.952v-4.31a8.52 8.52 0 0 0 7.77-7.77h6.423v4.258c0 1.174.956 2.129 2.13 2.129h6.387v9.972z" fill="#003FF7"/><path d="M39.742 2.839h1.42v1.42h-1.42v-1.42zm-2.839 0h1.42v1.42h-1.42v-1.42zm-8.516 8.516h1.42v1.42h-1.42v-1.42zm2.839 0h1.42v1.42h-1.42v-1.42zm2.839 0h1.419v1.42h-1.42v-1.42zm-22.71-3.549h1.42v1.42h-1.42v-1.42zm-2.839 0h1.42v1.42h-1.42v-1.42z" fill="#003FF7"/></svg>