<svg width="44" height="44" fill="none" xmlns="http://www.w3.org/2000/svg"><path d="M24.129 4.968A2.132 2.132 0 0 0 22 2.838a2.132 2.132 0 0 0-2.129 2.13c0 1.174.955 2.129 2.129 2.129a2.132 2.132 0 0 0 2.129-2.13zm-2.839 0a.71.71 0 1 1 1.421.001.71.71 0 0 1-1.42-.001zM3.905 28.671a2.133 2.133 0 0 0-.78 2.909 2.13 2.13 0 0 0 3.688-2.13 2.133 2.133 0 0 0-2.908-.779zm1.419 2.459a.71.71 0 1 1-.71-1.229.71.71 0 0 1 .71 1.229zm34.771-2.459a2.134 2.134 0 0 0-2.908.78 2.133 2.133 0 0 0 .78 2.909 2.13 2.13 0 0 0 2.908-.78 2.133 2.133 0 0 0-.78-2.909zm-.449 2.2a.709.709 0 1 1-1.228-.71.708.708 0 0 1 .968-.26.71.71 0 0 1 .26.97z" fill="#003FF7"/><path d="M41.515 26.213a4.924 4.924 0 0 0-3.77-.496 4.93 4.93 0 0 0-2.792 1.967l-5.147-2.575V18.89l7.864-3.933a3.513 3.513 0 0 0 2.786 1.367c.614 0 1.221-.162 1.768-.477a3.526 3.526 0 0 0 1.654-2.154A3.523 3.523 0 0 0 43.523 11a3.527 3.527 0 0 0-2.155-1.653 3.517 3.517 0 0 0-2.692.354 3.508 3.508 0 0 0-1.64 3.986l-7.23 3.616v-4.529H22.71V9.88a4.97 4.97 0 0 0 4.257-4.911A4.973 4.973 0 0 0 22 0a4.973 4.973 0 0 0-4.967 4.968 4.97 4.97 0 0 0 4.257 4.91v2.896h-7.096v4.529l-7.23-3.616a3.508 3.508 0 0 0-1.64-3.986 3.517 3.517 0 0 0-2.692-.354A3.527 3.527 0 0 0 .477 11c-.474.82-.6 1.777-.355 2.693.246.915.833 1.68 1.654 2.154a3.533 3.533 0 0 0 2.692.354 3.508 3.508 0 0 0 1.862-1.244l7.864 3.933v6.218l-5.148 2.574a4.928 4.928 0 0 0-2.792-1.966 4.932 4.932 0 0 0-3.77.496 4.976 4.976 0 0 0-1.819 6.787 4.97 4.97 0 0 0 6.786 1.818 4.977 4.977 0 0 0 2.231-5.866l4.512-2.255v4.53h7.096v5.749a3.554 3.554 0 0 0-2.838 3.477A3.552 3.552 0 0 0 22 44a3.552 3.552 0 0 0 3.548-3.548 3.555 3.555 0 0 0-2.838-3.477v-5.75h7.096v-4.53l4.51 2.256a4.977 4.977 0 0 0 2.232 5.867A4.97 4.97 0 0 0 43.333 33a4.974 4.974 0 0 0-1.818-6.787zm-3.121-13.99c.147-.548.5-1.008.992-1.292a2.13 2.13 0 0 1 3.12 2.394 2.13 2.13 0 0 1-4.113-1.102zM18.452 4.968A3.552 3.552 0 0 1 22 1.419a3.552 3.552 0 0 1 3.548 3.549A3.552 3.552 0 0 1 22 8.516a3.552 3.552 0 0 1-3.548-3.548zm-13.058 8.87a2.13 2.13 0 0 1-3.9-.512 2.13 2.13 0 0 1 4.113-1.102 2.121 2.121 0 0 1-.213 1.615zm1.348 19.75a3.552 3.552 0 0 1-4.846-1.298 3.553 3.553 0 0 1 3.067-5.325c.308 0 .619.041.924.123.915.245 1.68.832 2.154 1.653a3.553 3.553 0 0 1-1.299 4.847zm17.387 6.864A2.132 2.132 0 0 1 22 42.58a2.132 2.132 0 0 1-2.129-2.13c0-1.173.955-2.128 2.129-2.128s2.129.955 2.129 2.129zm4.258-10.646H15.613V14.193h12.774v15.613zm13.717 2.484a3.55 3.55 0 0 1-4.846 1.298 3.553 3.553 0 0 1-1.3-4.847 3.525 3.525 0 0 1 2.155-1.653 3.523 3.523 0 0 1 2.693.354 3.553 3.553 0 0 1 1.298 4.848z" fill="#003FF7"/><path d="M26.967 21.29H22.71v1.42h-2.84v1.419h-2.838v4.258h9.934V21.29zm-8.515 4.258h1.42v1.42h-1.42v-1.42zm2.838 1.42v-2.839h1.42v2.839h-1.42zm4.258 0h-1.42V22.71h1.42v4.258zm-8.515-11.355h1.419v1.42h-1.42v-1.42zm2.838 0h7.096v1.42h-7.096v-1.42zm-2.838 2.839h9.934v1.419h-9.934v-1.42z" fill="#003FF7"/></svg>