<svg width="30" height="44" fill="none" xmlns="http://www.w3.org/2000/svg"><path d="M24.684 5.49a13.72 13.72 0 0 0-3.852-2.796h5.367c.27.784.994 1.347 1.845 1.347C29.122 4.04 30 3.134 30 2.02 30 .905 29.122 0 28.044 0c-.85 0-1.576.563-1.845 1.347h-9.242V0h-3.914v1.347H3.801C3.531.563 2.807 0 1.957 0 .877 0 0 .906 0 2.02c0 1.114.878 2.02 1.957 2.02.85 0 1.574-.562 1.844-1.346h5.366c-4.08 1.99-7.061 6.002-7.724 10.776H0v4.04h3.913v-4.04h-1.15c.837-5.442 5.01-9.752 10.28-10.617v1.188h3.914V2.853a12.276 12.276 0 0 1 6.805 3.59 12.965 12.965 0 0 1 3.475 7.027h-1.15v4.04H30v-4.04h-1.443a14.338 14.338 0 0 0-3.873-7.98zm3.36-4.143c.36 0 .652.302.652.673a.664.664 0 0 1-.652.674.664.664 0 0 1-.653-.674c0-.37.293-.673.653-.673zM1.957 2.694a.664.664 0 0 1-.653-.674c0-.371.293-.673.653-.673.36 0 .652.302.652.673a.664.664 0 0 1-.652.674zm.652 13.47H1.304v-1.347H2.61v1.347zm13.043-13.47h-1.304V1.347h1.304v1.347zm13.044 13.47H27.39v-1.347h1.305v1.347z" fill="#003FF7"/><path d="M7.07 26.213l7.278-14.13v8.525h1.304v-8.524l7.278 14.13-2.87 4.15 1.061.782 3.34-4.829L15 7.95 5.539 26.317l3.846 5.56H6.957v3.592h2.891L8.11 44h13.782l-1.74-8.53h2.893v-3.592H10.988L7.07 26.213zm13.213 16.44H9.717l1.464-7.184h7.638l1.464 7.184zm1.456-8.53H8.261v-.898h13.478v.897z" fill="#003FF7"/><path d="M15 21.551c-1.438 0-2.609 1.208-2.609 2.694 0 1.485 1.17 2.694 2.609 2.694s2.609-1.209 2.609-2.694c0-1.486-1.17-2.694-2.609-2.694zm0 4.04c-.72 0-1.304-.603-1.304-1.346 0-.743.585-1.347 1.304-1.347.72 0 1.304.604 1.304 1.347S15.72 25.592 15 25.592z" fill="#003FF7"/></svg>