<svg width="70" height="14" viewBox="0 0 70 14" fill="none" xmlns="http://www.w3.org/2000/svg">
<path d="M5.96085 9.431C5.8214 9.4895 5.67434 9.5195 5.51969 9.5195C5.36722 9.5197 5.21637 9.49069 5.07671 9.43431C4.93706 9.37793 4.81165 9.29542 4.70845 9.192C4.60209 9.086 4.51527 8.956 4.45016 8.803C4.38504 8.6495 4.35248 8.476 4.35248 8.281C4.35248 8.0865 4.38504 7.9125 4.45016 7.759C4.50895 7.61553 4.59658 7.48355 4.70845 7.37C4.86355 7.21407 5.06799 7.10707 5.29277 7.06417C5.51756 7.02128 5.75129 7.04466 5.96085 7.131C6.10084 7.19023 6.22664 7.27453 6.33093 7.379C6.44299 7.49251 6.53081 7.62449 6.58977 7.768C6.65488 7.921 6.68744 8.0925 6.68744 8.281C6.68744 8.4695 6.65434 8.6405 6.58922 8.794C6.53043 8.93747 6.4428 9.06944 6.33093 9.183C6.22664 9.28747 6.10084 9.37177 5.96085 9.431Z" fill="#C4C4C4"/>
<path d="M15.7793 9.4485C15.9277 9.44809 16.0744 9.42006 16.2107 9.36611C16.3471 9.31215 16.4702 9.23337 16.5726 9.1345C16.6795 9.0315 16.7658 8.9045 16.8309 8.7545C16.896 8.604 16.9286 8.4315 16.9286 8.2365C16.9286 8.042 16.896 7.868 16.8309 7.715C16.7729 7.57236 16.6852 7.44157 16.5726 7.33C16.4702 7.23113 16.3471 7.15235 16.2107 7.09839C16.0744 7.04444 15.9277 7.01641 15.7793 7.016C15.6317 7.01631 15.4858 7.04477 15.3508 7.09959C15.2158 7.1544 15.0945 7.23438 14.9947 7.3345C14.8835 7.44702 14.7959 7.57756 14.7364 7.7195C14.6712 7.8695 14.6387 8.042 14.6387 8.2365C14.6387 8.4315 14.6712 8.604 14.7364 8.754C14.8015 8.9045 14.8883 9.0315 14.9947 9.1345C15.0955 9.23314 15.2171 9.31184 15.3519 9.36582C15.4868 9.4198 15.6322 9.44793 15.7793 9.4485Z" fill="#C4C4C4"/>
<path fill-rule="evenodd" clip-rule="evenodd" d="M28.2171 0H0V14H28.2171V0ZM19.6922 5.486C19.5913 5.486 19.4947 5.467 19.4025 5.4285C19.3116 5.39091 19.2298 5.33684 19.1621 5.2695C19.0182 5.12657 18.9399 4.93792 18.9434 4.743C18.9397 4.54814 19.0179 4.35951 19.1616 4.2165C19.2305 4.149 19.3102 4.096 19.4025 4.0575C19.4947 4.019 19.5913 4 19.6922 4C19.9001 4 20.0786 4.072 20.2273 4.2165C20.3754 4.3615 20.4498 4.5365 20.4498 4.743C20.4498 4.9495 20.3754 5.125 20.2273 5.2695C20.1598 5.33846 20.0773 5.39343 19.985 5.43075C19.8928 5.46808 19.793 5.48691 19.6922 5.486ZM11.6254 9.882H11.5543C11.4221 10.096 11.2315 10.2744 11.0014 10.3995C10.7697 10.526 10.5054 10.5895 10.2081 10.5895C9.65566 10.5895 9.24434 10.4215 8.97357 10.0855C8.70333 9.749 8.56822 9.301 8.56822 8.7405V6.114H9.73597V8.599C9.73597 8.912 9.80597 9.1435 9.94543 9.294C10.0849 9.444 10.2884 9.519 10.5559 9.519C10.7165 9.519 10.8576 9.4855 10.9791 9.4175C11.1012 9.3495 11.2054 9.2585 11.2912 9.1435C11.378 9.0285 11.4431 8.8925 11.4876 8.7365C11.5331 8.57317 11.5555 8.40512 11.5543 8.2365V6.114H12.7221V10.448H11.626L11.6254 9.882ZM19.1127 10.448H20.2805V6.114H19.1127V10.448ZM22.4467 6.68H22.5178C22.65 6.46603 22.8406 6.28763 23.0707 6.1625C23.3024 6.036 23.5667 5.9725 23.864 5.9725C24.137 5.9725 24.3779 6.0165 24.5857 6.105C24.7936 6.1935 24.9645 6.319 25.0985 6.481C25.232 6.643 25.3329 6.838 25.4013 7.065C25.4697 7.292 25.5039 7.544 25.5039 7.821V10.448H24.3361V7.963C24.3361 7.65 24.2661 7.4185 24.1267 7.268C23.9872 7.118 23.7837 7.043 23.5162 7.043C23.3676 7.0401 23.2211 7.07524 23.0929 7.1445C22.9689 7.21423 22.8625 7.30766 22.7809 7.4185C22.6947 7.5335 22.629 7.669 22.5845 7.8255C22.539 7.98883 22.5166 8.15688 22.5178 8.3255V10.448H21.35V6.114H22.4461L22.4467 6.68ZM3.25581 4.115H4.42357V6.0165L4.35194 6.636H4.42357C4.53047 6.453 4.69705 6.2965 4.92279 6.167C5.14853 6.037 5.42744 5.972 5.76062 5.972C6.03954 5.972 6.30597 6.03 6.5583 6.145C6.81062 6.26 7.03364 6.419 7.22682 6.6225C7.42 6.826 7.57302 7.069 7.68589 7.3525C7.79876 7.6355 7.85519 7.945 7.85519 8.281C7.85519 8.617 7.79876 8.9265 7.68589 9.2095C7.58302 9.47683 7.42738 9.72432 7.22682 9.9395C7.04057 10.138 6.81332 10.3003 6.5583 10.417C6.30597 10.532 6.03954 10.5895 5.76062 10.5895C5.42798 10.5895 5.14853 10.5245 4.92279 10.3945C4.69705 10.265 4.53047 10.109 4.42357 9.926H4.35194V10.448H3.25581V4.115ZM14.91 12.3805C15.1509 12.46 15.4255 12.5 15.7348 12.5C16.0568 12.5039 16.3764 12.4484 16.6747 12.3365C16.9568 12.2275 17.1994 12.071 17.4018 11.8675C17.6117 11.6516 17.7723 11.3989 17.8739 11.1245C17.9867 10.8325 18.0432 10.504 18.0432 10.1385V6.114H16.9286V6.5825H16.8581C16.7213 6.394 16.5412 6.245 16.3187 6.136C16.0957 6.027 15.8325 5.972 15.5297 5.972C15.266 5.97274 15.0058 6.02739 14.7678 6.132C14.5209 6.238 14.3022 6.3895 14.1123 6.587C13.913 6.79865 13.7561 7.04126 13.6489 7.3035C13.5301 7.5835 13.4709 7.8945 13.4709 8.2365C13.4709 8.5785 13.5301 8.8885 13.6489 9.1655C13.7569 9.42603 13.9137 9.66704 14.1123 9.8775C14.2944 10.0694 14.5176 10.2245 14.7678 10.333C15.0142 10.439 15.2681 10.492 15.5297 10.492C15.8325 10.492 16.0962 10.4375 16.3187 10.3285C16.5363 10.2238 16.7218 10.0702 16.8581 9.882H16.9286V10.1825C16.9286 10.5895 16.8222 10.9065 16.6084 11.1335C16.3941 11.3605 16.1033 11.474 15.7348 11.474C15.5031 11.474 15.292 11.4105 15.1021 11.2835C14.9116 11.157 14.7749 10.9785 14.6919 10.7485L13.5778 11.191C13.6376 11.3557 13.7247 11.5109 13.8361 11.651C13.9614 11.8104 14.1115 11.9519 14.2816 12.071C14.4722 12.2039 14.6842 12.3083 14.91 12.3805Z" fill="#C4C4C4"/>
<path fill-rule="evenodd" clip-rule="evenodd" d="M30.9736 6.377H31.0474C31.1885 6.175 31.3785 6.015 31.6172 5.8975C31.856 5.78 32.1278 5.7215 32.4339 5.7215C32.7155 5.7215 32.9635 5.7625 33.1773 5.8445C33.3916 5.926 33.568 6.0425 33.7053 6.1925C33.8431 6.3425 33.9473 6.523 34.0173 6.7335C34.0878 6.944 34.1231 7.1775 34.1231 7.4345V9.869H32.9206V7.565C32.9206 7.275 32.8484 7.061 32.7047 6.9215C32.5609 6.7825 32.3514 6.7125 32.0757 6.7125C31.9108 6.7125 31.7654 6.744 31.6395 6.807C31.5141 6.86978 31.4046 6.95635 31.3182 7.061C31.226 7.17399 31.1576 7.30185 31.1164 7.438C31.0708 7.583 31.0474 7.737 31.0474 7.901V9.8685H29.845V5.852H30.9736V6.377ZM39.3742 8.902C39.1694 9.22666 38.8809 9.49973 38.5342 9.697C38.182 9.899 37.7528 10 37.2443 10C36.9194 10.003 36.5969 9.94867 36.2942 9.84C36.0122 9.73868 35.7547 9.58693 35.5367 9.3935C35.3219 9.20151 35.1517 8.97137 35.0364 8.717C34.917 8.4575 34.8573 8.172 34.8573 7.8605C34.8545 7.29861 35.0919 6.7583 35.5182 6.3565C35.7376 6.15209 35.9994 5.9905 36.2881 5.8814C36.5767 5.7723 36.8863 5.71792 37.1982 5.7215C37.5596 5.7215 37.8809 5.7745 38.1625 5.8815C38.4441 5.9875 38.6796 6.135 38.8695 6.324C39.0595 6.5125 39.2027 6.735 39.3009 6.992C39.3986 7.2485 39.4474 7.527 39.4474 7.828V7.926C39.4416 7.95571 39.4385 7.98581 39.4382 8.016C39.432 8.04582 39.4291 8.07614 39.4295 8.1065H36.0419C36.0663 8.2705 36.1167 8.4115 36.1933 8.5285C36.3393 8.75591 36.5742 8.92319 36.8498 8.996C36.9844 9.031 37.1217 9.049 37.2622 9.049C37.5379 9.049 37.7664 8.993 37.9465 8.881C38.1272 8.769 38.2694 8.6285 38.3736 8.459L39.3742 8.9015V8.902ZM38.2819 7.3445C38.2759 7.273 38.2493 7.194 38.2037 7.1065C38.1535 7.01371 38.0851 6.93029 38.0019 6.8605C37.9051 6.77942 37.7928 6.71551 37.6709 6.672C37.5201 6.61984 37.3598 6.59489 37.1988 6.5985C36.9416 6.5985 36.7147 6.6635 36.5188 6.795C36.3235 6.926 36.1857 7.1095 36.1064 7.3445H38.2819ZM41.3478 6.377H41.4216C41.5626 6.175 41.752 6.015 41.9908 5.8975C42.2295 5.78 42.5014 5.7215 42.8074 5.7215C43.0896 5.7215 43.3371 5.7625 43.5509 5.8445C43.7657 5.926 43.9416 6.0425 44.0794 6.1925C44.2167 6.3425 44.3209 6.523 44.3914 6.7335C44.4619 6.944 44.4967 7.1775 44.4967 7.4345V9.869H43.2942V7.565C43.2942 7.275 43.2226 7.061 43.0788 6.9215C42.9344 6.7825 42.725 6.7125 42.4493 6.7125C42.2843 6.7125 42.1389 6.744 42.0136 6.807C41.8882 6.86978 41.7787 6.95635 41.6923 7.061C41.6002 7.17399 41.5317 7.30185 41.4905 7.438C41.4443 7.583 41.4216 7.737 41.4216 7.901V9.8685H40.2191V5.852H41.3478V6.377ZM47.5083 4H48.7108V5.7625L48.637 6.336H48.7108C48.8209 6.1665 48.9924 6.022 49.2247 5.9015C49.4574 5.7815 49.745 5.7215 50.0874 5.7215C50.375 5.7215 50.6491 5.7745 50.9095 5.8815C51.17 5.9875 51.399 6.135 51.5981 6.324C51.7967 6.5125 51.9547 6.7375 52.0702 7C52.1889 7.27356 52.2483 7.5659 52.245 7.8605C52.2485 8.15523 52.1894 8.44775 52.0708 8.7215C51.9621 8.97286 51.8016 9.20243 51.5981 9.3975C51.399 9.586 51.1695 9.7335 50.909 9.84C50.6491 9.9465 50.3756 10 50.088 10C49.745 10 49.4574 9.94 49.2252 9.82C48.9919 9.6995 48.8209 9.555 48.7108 9.385H48.637V9.869H47.5083V4ZM49.84 9.008C50.1519 9.00826 50.4517 8.89652 50.6757 8.6965C50.7853 8.5985 50.8743 8.478 50.9416 8.3365C51.0088 8.194 51.0425 8.0355 51.0425 7.8605C51.0425 7.6855 51.0088 7.5275 50.9416 7.3855C50.8795 7.25025 50.7892 7.12758 50.6757 7.0245C50.4517 6.82448 50.1519 6.71274 49.84 6.713C49.6805 6.713 49.5291 6.739 49.3853 6.791C49.2415 6.843 49.1145 6.918 49.0043 7.016C48.8909 7.11908 48.8005 7.24175 48.7385 7.377C48.6686 7.52995 48.6341 7.6946 48.637 7.8605C48.637 8.041 48.6706 8.202 48.7385 8.3445C48.8057 8.4865 48.8942 8.6065 49.0043 8.7045C49.1145 8.8035 49.2415 8.8785 49.3853 8.9305C49.5291 8.982 49.6805 9.008 49.84 9.008ZM55.7889 9.443H55.7151C55.574 9.5955 55.4047 9.727 55.2056 9.836C55.007 9.9455 54.7514 10 54.4394 10C54.2157 10.0014 53.9935 9.96673 53.7828 9.8975C53.5867 9.83402 53.4047 9.7383 53.2456 9.615C53.0933 9.49568 52.9711 9.34724 52.8874 9.18C52.8007 9.0053 52.757 8.81509 52.7594 8.623C52.7594 8.4155 52.805 8.228 52.8967 8.0615C52.9889 7.895 53.1175 7.7515 53.2825 7.6315C53.4563 7.50702 53.654 7.41373 53.8653 7.3565C54.0888 7.2935 54.3319 7.2625 54.5951 7.2625C54.8892 7.2625 55.1307 7.2825 55.3206 7.324C55.5105 7.365 55.6663 7.407 55.7889 7.451V7.328C55.7889 7.115 55.694 6.9385 55.504 6.799C55.3141 6.66 55.0786 6.59 54.7975 6.59C54.3813 6.59 54.0292 6.746 53.7416 7.0575L52.8695 6.5245C53.3471 5.9895 53.9982 5.7215 54.8246 5.7215C55.5225 5.7215 56.0548 5.8675 56.4222 6.16C56.7895 6.452 56.9729 6.885 56.9729 7.459V9.869H55.7889V9.443ZM55.7889 8.238C55.6485 8.17801 55.5025 8.12998 55.3526 8.0945C55.192 8.05773 55.027 8.03975 54.8615 8.041C54.574 8.041 54.352 8.097 54.1957 8.209C54.04 8.321 53.9619 8.459 53.9619 8.623C53.9619 8.787 54.0367 8.918 54.1865 9.0165C54.3368 9.115 54.5094 9.164 54.7053 9.164C54.9968 9.16651 55.2781 9.06511 55.4905 8.881C55.5843 8.79753 55.6591 8.69759 55.7104 8.58707C55.7616 8.47655 55.7883 8.35819 55.7889 8.238ZM59.7089 10C59.4433 10.0036 59.1786 9.97041 58.9237 9.9015C58.7118 9.84369 58.5106 9.75671 58.3268 9.6435C58.0165 9.44829 57.7755 9.17317 57.6339 8.8525L58.7083 8.4425C58.8119 8.6505 58.9514 8.8045 59.1261 8.9055C59.2998 9.007 59.4946 9.0575 59.7089 9.0575C59.9292 9.0575 60.1034 9.022 60.232 8.951C60.3606 8.88 60.4247 8.795 60.4247 8.6965C60.4247 8.5875 60.3715 8.4985 60.264 8.4305C60.1571 8.362 59.9721 8.3005 59.7089 8.2455L59.0751 8.123C58.9254 8.09301 58.7795 8.04911 58.6394 7.992C58.4922 7.93332 58.3546 7.8559 58.2308 7.762C58.1079 7.66849 58.0052 7.55451 57.928 7.426C57.8458 7.28509 57.8047 7.12694 57.8086 6.967C57.8086 6.7705 57.8558 6.5955 57.9508 6.4425C58.0457 6.2895 58.1754 6.16 58.3409 6.0535C58.5186 5.9416 58.7157 5.85841 58.9237 5.8075C59.1586 5.74876 59.401 5.71983 59.6443 5.7215C60.073 5.7215 60.4556 5.7965 60.792 5.9465C61.1285 6.097 61.3764 6.3365 61.5354 6.664L60.4985 7.041C60.4203 6.88928 60.2871 6.76744 60.1219 6.6965C59.9671 6.6277 59.7977 6.59133 59.6259 6.59C59.455 6.59 59.3047 6.6215 59.176 6.6845C59.048 6.7475 58.9834 6.828 58.9834 6.926C58.9834 7.019 59.0371 7.093 59.144 7.1475C59.2515 7.2025 59.3969 7.2515 59.5803 7.295L60.2689 7.4425C60.728 7.541 61.0688 7.698 61.2923 7.914C61.5159 8.13 61.6277 8.385 61.6277 8.6805C61.6277 8.8555 61.5816 9.022 61.4898 9.1805C61.3927 9.34457 61.2597 9.48827 61.0991 9.6025C60.9176 9.73187 60.7126 9.83041 60.4936 9.8935C60.2398 9.96702 59.9749 10.003 59.7089 10ZM62.8578 6.7705H62.0683V5.8525H62.8578V4.6225H64.0603V5.8525H65.1619V6.7705H64.0603V8.328C64.0603 8.421 64.0712 8.507 64.0929 8.586C64.114 8.6655 64.1553 8.732 64.2166 8.787C64.3018 8.8745 64.4244 8.918 64.5834 8.918C64.6876 8.918 64.7701 8.908 64.8314 8.8895C64.8927 8.87 64.9508 8.8445 65.0061 8.8115L65.3453 9.754C65.2047 9.814 65.0533 9.859 64.8911 9.889C64.7141 9.92031 64.5341 9.93538 64.3539 9.934C64.1276 9.934 63.9241 9.903 63.7434 9.84C63.5744 9.7837 63.4198 9.69587 63.2892 9.582C63.0016 9.336 62.8578 8.9865 62.8578 8.533V6.77V6.7705ZM68.816 9.4425H68.7422C68.6011 9.5955 68.4318 9.727 68.2326 9.836C68.034 9.9455 67.7785 10 67.4664 10C67.2428 10.0014 67.0205 9.96673 66.8098 9.8975C66.6137 9.83402 66.4317 9.7383 66.2726 9.615C66.1204 9.49568 65.9982 9.34724 65.9145 9.18C65.8278 9.0053 65.784 8.81509 65.7864 8.623C65.7864 8.4155 65.832 8.228 65.9237 8.0615C66.016 7.895 66.144 7.7515 66.309 7.6315C66.483 7.50696 66.6809 7.41367 66.8923 7.3565C67.1159 7.2935 67.359 7.2625 67.6222 7.2625C67.9163 7.2625 68.1578 7.2825 68.3477 7.324C68.5376 7.365 68.6933 7.407 68.816 7.451V7.328C68.816 7.115 68.721 6.9385 68.5311 6.799C68.3412 6.66 68.1057 6.59 67.824 6.59C67.4078 6.59 67.0562 6.746 66.7686 7.0575L65.8966 6.5245C66.3741 5.9895 67.0253 5.7215 67.8517 5.7215C68.5495 5.7215 69.0819 5.8675 69.4492 6.16C69.8166 6.452 70 6.885 70 7.459V9.869H68.816V9.4425ZM68.816 8.2375C68.6756 8.17768 68.5295 8.12982 68.3797 8.0945C68.2191 8.05773 68.0541 8.03975 67.8886 8.041C67.601 8.041 67.3785 8.097 67.2228 8.209C67.0671 8.321 66.9889 8.459 66.9889 8.623C66.9889 8.787 67.0638 8.918 67.2136 9.0165C67.3639 9.115 67.5364 9.164 67.7323 9.164C68.0239 9.16651 68.3052 9.06511 68.5175 8.881C68.6114 8.79753 68.6861 8.69759 68.7374 8.58707C68.7887 8.47655 68.8154 8.35769 68.816 8.2375Z" fill="#C4C4C4"/>
</svg>
