<svg width="17" height="17" fill="none" xmlns="http://www.w3.org/2000/svg"><path d="M12.75 1.545h2.316A1.934 1.934 0 0 1 17 3.48v11.585A1.933 1.933 0 0 1 15.066 17H1.934A1.935 1.935 0 0 1 0 15.066V3.48a1.934 1.934 0 0 1 1.935-1.935H4.25V.773a.773.773 0 1 1 1.545 0v.772h5.41V.773a.773.773 0 0 1 1.545 0v.772zm0 1.546v.773a.773.773 0 1 1-1.546 0V3.09H5.795v.773a.773.773 0 0 1-1.545 0V3.09H1.935a.388.388 0 0 0-.39.389v11.585c0 .216.174.39.39.39h13.13a.388.388 0 0 0 .39-.39V3.48a.389.389 0 0 0-.39-.39H12.75zM8.5 9.273a1.16 1.16 0 1 1 0-2.318 1.16 1.16 0 0 1 0 2.318zm4.25 0a1.16 1.16 0 1 1 0-2.319 1.16 1.16 0 0 1 0 2.319zm-8.5 4.25a1.159 1.159 0 1 1 0-2.318 1.159 1.159 0 0 1 0 2.318zm4.25 0a1.159 1.159 0 1 1 0-2.318 1.159 1.159 0 0 1 0 2.318z" fill="#C4C4C4"/></svg>