<svg width="44" height="42" fill="none" xmlns="http://www.w3.org/2000/svg"><path d="M19.871 27.944H2.84V19.96h17.03v7.984zm0 10.645H2.84v-8.65h17.03v8.65z" fill="#003FF7"/><path d="M34.065 9.314c0-1.159-.795-2.147-1.9-2.511.303-.424.48-.933.48-1.48 0-1.468-1.273-2.662-2.839-2.662h-2.838v9.314h4.258c1.565 0 2.839-1.193 2.839-2.66zm-5.678-5.322h1.42c.782 0 1.419.597 1.419 1.33 0 .734-.637 1.331-1.42 1.331h-1.419V3.992zm0 3.992h2.839c.783 0 1.42.596 1.42 1.33 0 .734-.637 1.33-1.42 1.33h-2.839v-2.66z" fill="#fff"/><path d="M41.871 9.314h-2.13V1.996c0-1.1-.954-1.996-2.128-1.996H23.419c-1.174 0-2.129.896-2.129 1.996v7.318H2.13C.955 9.314 0 10.21 0 11.31v27.944c0 1.1.955 1.996 2.129 1.996h39.742c1.174 0 2.129-.896 2.129-1.996V11.31c0-1.1-.955-1.996-2.129-1.996zm0 1.331c.392 0 .71.299.71.665v5.988h-7.097v-2.661h2.129c1.174 0 2.129-.896 2.129-1.996v-1.996h2.129zm-13.923 3.992l.906 1.699c.204.382.549.657.952.814v12.124h-2.838V14.637h.98zm5.546 15.968L31 34.345c-.21.315-.758.315-.969 0l-2.494-3.74h5.956zm-2.268-1.331V17.151c.403-.158.748-.433.952-.815l.906-1.699h.98v14.637h-2.838zm-2.398 5.776c.367.55.998.877 1.688.877s1.322-.328 1.688-.877l3.28-4.92v-.856h2.839v7.984H22.71v-7.984h2.838v.856l3.28 4.92zM22.71 1.996c0-.367.318-.665.71-.665h14.193c.392 0 .71.298.71.665v10.645c0 .367-.318.665-.71.665h-5.406l-1.298 2.434c-.15.281-.636.28-.785 0l-1.298-2.434h-5.407c-.391 0-.71-.298-.71-.665V1.996zm-20.581 8.65H21.29v1.995c0 1.1.956 1.996 2.13 1.996h2.128v2.661H1.42V11.31c0-.366.318-.665.71-.665zm39.742 29.273H2.129c-.392 0-.71-.299-.71-.665V18.629h24.13v9.314H21.29V38.59h18.452V27.943h-4.258V18.63h7.097v20.625c0 .366-.318.665-.71.665z" fill="#fff"/><path d="M7.097 11.975H2.839v3.992h4.258v-3.992zm-1.42 2.662H4.259v-1.33h1.42v1.33zm7.097-2.662H8.516v3.992h4.258v-3.992zm-1.42 2.662H9.936v-1.33h1.42v1.33zm7.097-2.662h-4.258v3.992h4.258v-3.992zm-1.419 2.662h-1.42v-1.33h1.42v1.33zM2.839 29.274H19.87v1.331H2.84v-1.331zm0 2.661H19.87v1.331H2.84v-1.33zm0 2.662H19.87v1.33H2.84v-1.33zm12.774 2.661h1.42v1.33h-1.42v-1.33zm2.839 0h1.419v1.33h-1.42v-1.33zm-15.613 0h11.355v1.33H2.839v-1.33z" fill="#fff"/></svg>