<svg width="44" height="42" fill="none" xmlns="http://www.w3.org/2000/svg"><path d="M29.097 30.564V21.25h3.548V7.278c0-.733-.636-1.33-1.42-1.33h-18.45c-.784 0-1.42.597-1.42 1.33v1.996h13.484c.784 0 1.42.596 1.42 1.331v7.984c0 .735-.636 1.33-1.42 1.33H19.16v1.72c0 .52-.449.942-1.003.942-.266 0-.522-.1-.71-.276l-2.545-2.386h-3.548V32.56c0 .734.636 1.331 1.42 1.331h18.45c.784 0 1.42-.597 1.42-1.33v-1.997h-3.548z" fill="#003FF7"/><path d="M21.29 3.286h4.258v1.33H21.29v-1.33zm-2.838 0h1.419v1.33h-1.42v-1.33zM14.61 35.222h-.416c-.783 0-1.42.596-1.42 1.33v1.331c0 .734.637 1.33 1.42 1.33h.415c.374 0 .74-.142 1.004-.39l1.713-1.605-1.713-1.606a1.48 1.48 0 0 0-1.004-.39zm0 2.661h-.416v-1.33h.415l.71.665-.71.665zm8.1-2.661h-1.42c-.782 0-1.419.596-1.419 1.33v1.331c0 .734.637 1.33 1.42 1.33h1.419c.782 0 1.419-.596 1.419-1.33v-1.33c0-.734-.637-1.331-1.42-1.331zm-1.42 2.661v-1.33h1.42l.001 1.33h-1.42zm5.384-.665l1.713 1.606c.264.247.63.39 1.004.39h.416c.782 0 1.419-.597 1.419-1.331v-1.33c0-.734-.637-1.331-1.42-1.331h-.415c-.374 0-.74.142-1.004.39l-1.713 1.606zm2.717-.666h.416v1.331h-.416l-.71-.665.71-.666zM4.968 12.6h1.42c.39 0 .709.298.709.666h1.42c0-1.101-.956-1.997-2.13-1.997h-1.42c-1.173 0-2.128.896-2.128 1.997 0 1.1.955 1.996 2.129 1.996h1.42c.39 0 .709.298.709.665 0 .368-.318.666-.71.666h-1.42c-.391 0-.709-.298-.709-.666h-1.42c0 1.1.956 1.997 2.13 1.997h1.42c1.173 0 2.128-.896 2.128-1.997 0-1.1-.955-1.996-2.129-1.996h-1.42c-.391 0-.709-.298-.709-.665 0-.368.318-.666.71-.666zM22 16.593h-1.42c-.391 0-.709-.298-.709-.666h-1.42c0 1.1.956 1.997 2.13 1.997H22c1.174 0 2.129-.896 2.129-1.997 0-1.1-.955-1.996-2.129-1.996h-1.42c-.391 0-.709-.298-.709-.665 0-.368.318-.666.71-.666H22c.392 0 .71.298.71.666h1.419c0-1.101-.955-1.997-2.129-1.997h-1.42c-1.173 0-2.128.896-2.128 1.997 0 1.1.955 1.996 2.129 1.996H22c.392 0 .71.298.71.665 0 .368-.318.666-.71.666zm-6.387 1.331h1.42v-6.655H15.21l-1.727 2.7-1.727-2.7H9.934v6.655h1.42v-4.696l2.129 3.327 2.129-3.327v4.696z" fill="#fff"/><path d="M44 20.585h-8.516V3.952c0-1.835-1.592-3.327-3.549-3.327h-19.87c-1.957 0-3.549 1.492-3.549 3.327v4.657H2.13C.955 8.609 0 9.504 0 10.605v7.984c0 1.1.955 1.996 2.129 1.996h6.387v17.963c0 1.834 1.592 3.327 3.549 3.327h19.87c1.957 0 3.549-1.493 3.549-3.327V31.23H44V20.585zm-7.038 5.048c-.424.353-1.113.353-1.537 0l-4.462-3.718h10.46l-4.46 3.718zm-7.156-2.902l3.811 3.176-3.81 3.176v-6.352zm4.898 4.05c.435.291.95.457 1.49.457.538 0 1.054-.166 1.49-.457l3.74 3.118h-10.46l3.74-3.118zm4.066-.874l3.81-3.176v6.352l-3.81-3.176zM1.42 18.59v-7.984c0-.367.317-.666.709-.666h22.71c.392 0 .71.299.71.666v7.984c0 .367-.319.665-.71.665h-6.387v2.386c0 .225-.333.354-.502.195l-2.753-2.581H2.129c-.392 0-.71-.298-.71-.665zm32.645 19.96c0 1.1-.956 1.995-2.13 1.995h-19.87c-1.174 0-2.13-.895-2.13-1.996V20.585h4.674l2.337 2.19c.319.3.76.47 1.212.47.944 0 1.713-.72 1.713-1.605v-1.055h4.968c1.174 0 2.129-.896 2.129-1.996v-7.984c0-1.1-.956-1.996-2.13-1.996H9.936V3.952c0-1.1.956-1.996 2.13-1.996h19.87c1.174 0 2.13.895 2.13 1.996v16.633h-5.678V31.23h5.678v7.318z" fill="#fff"/><path d="M28.387 8.609h1.42v1.33h-1.42V8.61zm0 5.322h1.42v1.331h-1.42v-1.33zm0-2.661h1.42v1.33h-1.42v-1.33zM14.194 24.576h1.419v1.331h-1.42v-1.33zm2.838 0h9.936v1.331h-9.936v-1.33zm-2.838 2.662h12.774v1.33H14.194v-1.33zm0 2.661h7.096v1.331h-7.096v-1.331zm11.354 0h1.42v1.331h-1.42v-1.331zm-2.838 0h1.419v1.331h-1.42v-1.331zm-1.42-7.984h5.678v1.331H21.29v-1.33z" fill="#fff"/></svg>