<svg width="44" height="42" fill="none" xmlns="http://www.w3.org/2000/svg"><path d="M40.452 11.975h-14.15l.666 3.327h12.774c.392 0 .71.298.71.665v15.968c0 .368-.318.666-.71.666H4.258c-.392 0-.71-.298-.71-.666V15.967c0-.367.318-.665.71-.665h12.774l.666-3.327H3.548C1.592 11.975 0 13.468 0 15.302v17.299c0 1.834 1.592 3.326 3.548 3.326h36.904c1.956 0 3.548-1.492 3.548-3.326V15.302c0-1.834-1.592-3.327-3.548-3.327z" fill="#003FF7"/><path d="M39.032 37.258h-.71v-1.33h-1.419v1.33h-2.838v-1.33h-1.42v1.33h-.71c-1.173 0-2.128.895-2.128 1.996v1.996H41.16v-1.996c0-1.1-.955-1.996-2.129-1.996zm.71 2.661h-8.516v-.665c0-.367.319-.665.71-.665h7.096c.392 0 .71.298.71.665v.665zm-27.677-2.661h-.71v-1.33h-1.42v1.33H7.098v-1.33h-1.42v1.33h-.71c-1.173 0-2.128.895-2.128 1.996v1.996h11.355v-1.996c0-1.1-.956-1.996-2.13-1.996zm.71 2.661H4.257v-.665c0-.367.319-.665.71-.665h7.097c.39 0 .71.298.71.665v.665zm26.967-25.282H27.557l-1.752-8.763c.28-.338.453-.756.453-1.217 0-.866-.595-1.598-1.42-1.873V0H23.42v2.784c-.09.03-.176.066-.26.107-.353-.72-1.036-1.263-1.869-1.466V0h-1.419v1.425c-1.22.298-2.129 1.33-2.129 2.567 0 .57.197 1.097.524 1.53l-1.823 9.115H4.258c-.783 0-1.42.597-1.42 1.33v15.969c0 .733.637 1.33 1.42 1.33h35.484c.783 0 1.42-.597 1.42-1.33V15.968c0-.734-.637-1.33-1.42-1.33zM20.581 6.653c.745 0 1.42-.276 1.926-.718a2.173 2.173 0 0 0 2.002.682l.273 1.367h-5.564l.305-1.526c.328.123.684.195 1.058.195zm3.548-2.661c.391 0 .71.299.71.665 0 .367-.319.666-.71.666-.39 0-.71-.3-.71-.666 0-.366.32-.665.71-.665zm-5.177 5.323h6.096l.118.589L22 13.682l-3.166-3.778.118-.59zm2.146 5.443l-4.248 5.07 1.637-8.185 2.611 3.115zm-2.336 9.526c-.8.902-1.482 2.147-2.007 3.66h-5.192c1.97-1.82 4.452-3.096 7.199-3.66zm6.968 3.66h-7.46c.937-2.433 2.303-3.992 3.73-3.992s2.793 1.558 3.73 3.991zm-15.441 1.33h6.06a22.04 22.04 0 0 0-.51 2.662h-7.3c.483-.96 1.072-1.85 1.75-2.662zm7.536 0h8.35c.234.823.422 1.717.556 2.662h-9.462c.133-.945.321-1.839.556-2.662zm9.826 0h6.06a13.966 13.966 0 0 1 1.751 2.662h-7.301a22.06 22.06 0 0 0-.51-2.662zm-.406-1.33c-.525-1.513-1.207-2.758-2.007-3.66 2.747.565 5.23 1.84 7.2 3.66h-5.193zM22 22.62c-2.074 0-4.07.362-5.915 1.03l.199-.995L22 15.835l5.717 6.82.198.994A17.394 17.394 0 0 0 22 22.622zm.902-7.863l2.612-3.115 1.637 8.184-4.249-5.069zM20.581 2.661c.782 0 1.42.597 1.42 1.33 0 .735-.638 1.332-1.42 1.332-.783 0-1.42-.597-1.42-1.331s.637-1.33 1.42-1.33zM4.258 15.968h11.92l-1.671 8.352c-3.311 1.597-5.989 4.246-7.516 7.616H4.258V15.968zm35.484 15.968h-2.734c-1.527-3.37-4.204-6.019-7.515-7.616l-1.67-8.352h11.919v15.968z" fill="#fff"/><path d="M15.111 5.128a.64.64 0 0 1-.208-.47.64.64 0 0 1 .208-.47l-1.003-.942a1.923 1.923 0 0 0-.624 1.412c0 .532.221 1.034.624 1.411l1.003-.941zM13.104 7.01c-1.384-1.297-1.384-3.408 0-4.705L12.1 1.364c-1.937 1.816-1.937 4.77 0 6.586l1.004-.94zm16.788-.94c.403-.378.624-.88.624-1.412 0-.533-.221-1.035-.624-1.412l-1.003.941a.64.64 0 0 1 .208.47.64.64 0 0 1-.208.47l1.003.942zM31.9 7.95c1.937-1.815 1.937-4.77 0-6.585l-1.003.94c1.383 1.298 1.383 3.408 0 4.705l1.003.94z" fill="#fff"/></svg>