<svg width="44" height="42" fill="none" xmlns="http://www.w3.org/2000/svg"><path d="M40.452 12.6h-14.15l.666 3.327h12.774c.392 0 .71.298.71.665V32.56c0 .367-.318.666-.71.666H4.258c-.392 0-.71-.298-.71-.666V16.592c0-.367.318-.665.71-.665h12.774l.666-3.327H3.548C1.592 12.6 0 14.093 0 15.927v17.299c0 1.834 1.592 3.326 3.548 3.326h36.904c1.956 0 3.548-1.492 3.548-3.326V15.927c0-1.834-1.592-3.327-3.548-3.327z" fill="#FAFAFA"/><path d="M39.032 37.883h-.71v-1.33h-1.419v1.33h-2.838v-1.33h-1.42v1.33h-.71c-1.173 0-2.129.895-2.129 1.996v1.996h11.355v-1.996c0-1.1-.955-1.996-2.129-1.996zm.71 2.661h-8.516v-.665c0-.367.318-.665.71-.665h7.096c.391 0 .71.298.71.665v.665zm-27.677-2.661h-.71v-1.33h-1.42v1.33H7.098v-1.33h-1.42v1.33h-.71c-1.173 0-2.128.895-2.128 1.996v1.996h11.355v-1.996c0-1.1-.956-1.996-2.13-1.996zm.71 2.661H4.257v-.665c0-.367.319-.665.71-.665h7.097c.39 0 .71.298.71.665v.665zm26.967-25.282H27.557L25.805 6.5c.28-.338.453-.756.453-1.217 0-.866-.595-1.598-1.42-1.873V.625H23.42v2.784c-.09.03-.176.066-.26.107-.353-.72-1.036-1.263-1.869-1.466V.625h-1.419V2.05c-1.22.298-2.13 1.33-2.13 2.567 0 .57.198 1.097.525 1.53l-1.823 9.115H4.258c-.783 0-1.42.597-1.42 1.33V32.56c0 .734.637 1.331 1.42 1.331h35.484c.783 0 1.42-.597 1.42-1.33V16.592c0-.734-.637-1.33-1.42-1.33zM20.58 7.278c.745 0 1.419-.276 1.926-.718a2.173 2.173 0 0 0 2.002.682l.273 1.367h-5.564l.305-1.526c.327.123.684.195 1.058.195zm3.548-2.661c.391 0 .71.299.71.665 0 .367-.319.666-.71.666-.391 0-.71-.3-.71-.666 0-.366.319-.665.71-.665zM18.952 9.94h6.096l.118.589L22 14.307l-3.166-3.778.118-.59zm2.146 5.443l-4.248 5.07 1.637-8.185 2.611 3.115zm-2.336 9.526c-.8.902-1.482 2.147-2.007 3.66h-5.192c1.97-1.82 4.452-3.096 7.199-3.66zm6.967 3.66h-7.458c.936-2.433 2.302-3.992 3.729-3.992s2.793 1.558 3.73 3.991zm-15.44 1.33h6.06a22.04 22.04 0 0 0-.51 2.661h-7.3a13.85 13.85 0 0 1 1.75-2.66zm7.536 0h8.35c.234.823.422 1.717.556 2.661h-9.462c.133-.944.321-1.838.556-2.66zm9.825 0h6.061a13.965 13.965 0 0 1 1.75 2.661h-7.3a22.04 22.04 0 0 0-.51-2.66zm-.405-1.33c-.525-1.513-1.207-2.758-2.007-3.66 2.747.565 5.23 1.84 7.2 3.66h-5.193zM22 23.245c-2.074 0-4.07.362-5.915 1.03l.199-.995L22 16.46l5.716 6.82.2.994A17.393 17.393 0 0 0 22 23.247zm.902-7.863l2.612-3.115 1.637 8.184-4.249-5.069zM20.581 3.286c.782 0 1.419.597 1.419 1.33 0 .735-.637 1.332-1.42 1.332-.782 0-1.419-.597-1.419-1.331s.637-1.33 1.42-1.33zM4.258 16.593h11.92l-1.671 8.352c-3.311 1.597-5.989 4.246-7.516 7.615H4.258V16.593zM39.742 32.56h-2.734c-1.527-3.369-4.204-6.018-7.515-7.616l-1.67-8.351h11.919V32.56z" fill="#E5E5E5"/><path d="M15.111 5.753a.64.64 0 0 1-.208-.47.64.64 0 0 1 .208-.47l-1.003-.942a1.923 1.923 0 0 0-.624 1.412c0 .532.221 1.034.624 1.411l1.003-.941zm-2.007 1.882c-1.384-1.297-1.384-3.408 0-4.705L12.1 1.99c-1.937 1.816-1.937 4.77 0 6.586l1.004-.94zm16.788-.941a1.92 1.92 0 0 0 .624-1.411c0-.533-.221-1.035-.624-1.412l-1.003.941a.64.64 0 0 1 .208.47.64.64 0 0 1-.208.47l1.003.942zM31.9 8.576c1.937-1.816 1.937-4.77 0-6.586l-1.003.94c1.383 1.298 1.383 3.408 0 4.705l1.003.94z" fill="#E5E5E5"/></svg>