<svg width="44" height="42" fill="none" xmlns="http://www.w3.org/2000/svg"><path d="M40.452 7.278h-2.84v3.327h2.13c.392 0 .71.298.71.665v15.968c0 .367-.318.665-.71.665H4.258c-.392 0-.71-.298-.71-.665V11.27c0-.367.318-.665.71-.665h9.226V7.278H3.548C1.592 7.278 0 8.77 0 10.605v19.96c0 1.834 1.592 3.326 3.548 3.326h36.904c1.956 0 3.548-1.492 3.548-3.326v-19.96c0-1.835-1.592-3.327-3.548-3.327z" fill="#FAFAFA"/><path d="M19.161 12.601c.237 0 .474.025.71.04v3.287c0 1.1.955 1.996 2.129 1.996s2.129-.896 2.129-1.996v-2.244c.03.014.063.023.092.037l3.289 1.541h5.135v-2.728c1.617-.31 2.839-1.653 2.839-3.26 0-1.606-1.221-2.95-2.839-3.26V3.287H27.51l-3.29 1.54a11.984 11.984 0 0 1-5.06 1.12c-1.956 0-3.548 1.493-3.548 3.327 0 1.835 1.592 3.327 3.548 3.327zm3.549 3.327c0 .367-.319.665-.71.665-.391 0-.71-.298-.71-.665v-3.12c.48.087.955.2 1.42.343v2.777zm11.355-6.654c0 .867-.596 1.598-1.42 1.874V7.4c.824.275 1.42 1.007 1.42 1.873zm-2.84 4.658h-2.838V4.617h2.839v9.315zm-6.369-7.914l2.112-.99v8.492l-2.112-.99a13.26 13.26 0 0 0-2.146-.783V6.8a13.1 13.1 0 0 0 2.146-.783zm-5.695 1.26c.713 0 1.426-.059 2.13-.17v4.334a13.487 13.487 0 0 0-2.13-.172c-1.174 0-2.129-.895-2.129-1.996 0-1.1.956-1.996 2.13-1.996zm13.484 29.274h-1.892c-.922-.638-1.51-1.6-1.63-2.66h-1.41a4.942 4.942 0 0 0 1.05 2.66H15.236a4.942 4.942 0 0 0 1.05-2.66h-1.41c-.12 1.06-.708 2.022-1.63 2.66h-1.892c-1.174 0-2.13.896-2.13 1.996v1.33c0 1.101.956 1.997 2.13 1.997h21.29c1.174 0 2.13-.896 2.13-1.996v-1.33c0-1.101-.956-1.997-2.13-1.997zm.71 3.327c0 .367-.319.665-.71.665h-21.29c-.391 0-.71-.298-.71-.665v-1.33c0-.368.319-.666.71-.666h21.29c.391 0 .71.298.71.665v1.33zm2.129-9.98h1.42v1.331h-1.42v-1.331zm2.839 0h1.419v1.331h-1.42v-1.331zm-5.678 0h1.42v1.331h-1.42v-1.331z" fill="#E5E5E5"/><path d="M39.742 9.94h-1.42V3.952c0-1.835-1.591-3.327-3.548-3.327H16.323c-1.957 0-3.549 1.492-3.549 3.327V9.94H4.258c-.783 0-1.42.596-1.42 1.33v15.968c0 .734.637 1.33 1.42 1.33h35.484c.783 0 1.42-.596 1.42-1.33V11.27c0-.734-.637-1.33-1.42-1.33zM14.194 3.952c0-1.1.955-1.996 2.129-1.996h18.451c1.174 0 2.13.895 2.13 1.996v13.306c0 1.1-.956 1.996-2.13 1.996H23.835l-2.752 2.58c-.17.161-.502.03-.502-.194v-2.386h-4.258c-1.174 0-2.13-.896-2.13-1.996V3.952zm25.548 23.286H4.258V11.27h8.516v5.988c0 1.834 1.592 3.327 3.549 3.327h2.838v1.055c0 .886.769 1.606 1.713 1.606.451 0 .893-.172 1.212-.47l2.337-2.191h10.351c1.957 0 3.549-1.493 3.549-3.327V11.27h1.419v15.968z" fill="#E5E5E5"/><path d="M5.677 12.6h5.678v1.331H5.677v-1.33zm0 2.662h5.678v1.33H5.677v-1.33zm0 2.662h5.678v1.33H5.677v-1.33zm0 7.983h5.678v-5.322H5.677v5.322zm1.42-3.992h2.838v2.662H7.097v-2.662zm29.806 0h1.42v1.331h-1.42v-1.33zm-12.774 0h11.355v1.331H24.129v-1.33zm0 2.661h14.194v1.331H24.129v-1.33z" fill="#E5E5E5"/></svg>