<svg width="44" height="42" fill="none" xmlns="http://www.w3.org/2000/svg"><path d="M19.871 28.569H2.839v-7.984H19.87v7.984zm0 10.645H2.839v-8.65H19.87v8.65z" fill="#FAFAFA"/><path d="M34.065 9.94c0-1.16-.795-2.148-1.9-2.512.303-.424.48-.933.48-1.48 0-1.468-1.273-2.662-2.839-2.662h-2.838V12.6h4.258c1.565 0 2.839-1.193 2.839-2.66zm-5.678-5.323h1.42c.782 0 1.419.597 1.419 1.33 0 .734-.637 1.331-1.42 1.331h-1.419V4.617zm0 3.992h2.839c.783 0 1.42.596 1.42 1.33 0 .734-.637 1.33-1.42 1.33h-2.839V8.61z" fill="#E5E5E5"/><path d="M41.871 9.94h-2.13V2.62c0-1.1-.954-1.996-2.128-1.996H23.419c-1.174 0-2.129.896-2.129 1.996v7.318H2.13C.955 9.94 0 10.835 0 11.935V39.88c0 1.1.955 1.996 2.129 1.996h39.742c1.174 0 2.129-.896 2.129-1.996V11.935c0-1.1-.955-1.996-2.129-1.996zm0 1.33c.392 0 .71.299.71.665v5.988h-7.097v-2.661h2.129c1.174 0 2.129-.896 2.129-1.996V11.27h2.129zm-13.923 3.992l.906 1.699c.204.382.549.657.952.814v12.124h-2.838V15.262h.98zm5.546 15.968L31 34.97c-.21.315-.758.315-.969 0l-2.494-3.74h5.956zm-2.268-1.331V17.776c.403-.158.748-.433.952-.815l.906-1.699h.98v14.637h-2.838zm-2.398 5.776c.367.55.998.877 1.688.877s1.322-.328 1.688-.877l3.28-4.92V29.9h2.839v7.984H22.71V29.9h2.838v.856l3.28 4.92zM22.71 2.621c0-.367.318-.665.71-.665h14.193c.392 0 .71.298.71.665v10.645c0 .367-.318.665-.71.665h-5.406l-1.298 2.434c-.15.282-.636.28-.785 0l-1.298-2.434h-5.407c-.391 0-.71-.298-.71-.665V2.621zm-20.581 8.65H21.29v1.995c0 1.1.956 1.996 2.13 1.996h2.128v2.661H1.42v-5.988c0-.366.318-.665.71-.665zm39.742 29.273H2.129c-.392 0-.71-.299-.71-.665V19.254h24.13v9.314H21.29v10.646h18.452V28.568h-4.258v-9.314h7.097v20.625c0 .366-.318.665-.71.665z" fill="#E5E5E5"/><path d="M7.097 12.6H2.839v3.993h4.258V12.6zm-1.42 2.662H4.258v-1.33h1.42v1.33zm7.097-2.662H8.516v3.993h4.258V12.6zm-1.42 2.662H9.936v-1.33h1.42v1.33zm7.098-2.662h-4.259v3.993h4.259V12.6zm-1.42 2.662h-1.42v-1.33h1.42v1.33zM2.839 29.899H19.87v1.331H2.839v-1.331zm0 2.661H19.87v1.331H2.839v-1.33zm0 2.662H19.87v1.33H2.839v-1.33zm12.774 2.661h1.42v1.33h-1.42v-1.33zm2.839 0h1.419v1.33h-1.42v-1.33zm-15.613 0h11.354v1.33H2.84v-1.33z" fill="#E5E5E5"/></svg>