<svg width="17" height="20" fill="none" xmlns="http://www.w3.org/2000/svg"><path d="M3.21 3a2.502 2.502 0 0 1 2.287-1.5h.21A2.5 2.5 0 0 1 8.002 0H9a2.502 2.502 0 0 1 2.292 1.5h.213A2.497 2.497 0 0 1 13.79 3h.709A2.5 2.5 0 0 1 17 5.501v11.998A2.502 2.502 0 0 1 14.5 20h-12A2.5 2.5 0 0 1 0 17.499V5.501A2.502 2.502 0 0 1 2.5 3h.71zm-.159 2H2.5c-.275 0-.5.225-.5.501v11.998a.5.5 0 0 0 .5.501h12c.275 0 .5-.225.5-.501V5.501A.5.5 0 0 0 14.5 5h-.551a2.504 2.504 0 0 1-2.445 2H5.496a2.5 2.5 0 0 1-2.445-2zM6.5 3.5H5.497A.505.505 0 0 0 5 4.005v.49c0 .28.224.505.497.505h6.007A.505.505 0 0 0 12 4.495v-.49a.501.501 0 0 0-.496-.505H10.5a1 1 0 0 1-1-1c0-.275-.225-.5-.501-.5h-.998a.5.5 0 0 0-.501.5 1 1 0 0 1-1 1z" fill="#003FF7"/></svg>