<svg width="48" height="48" viewBox="0 0 48 48" fill="none" xmlns="http://www.w3.org/2000/svg">
<path d="M32 4H16V5.6H32V4Z" fill="#1954FF"/>
<path d="M39.6 30C39.6 28.4562 38.3437 27.2 36.8 27.2H35.2V16H33.6V27.2H31.6C30.0562 27.2 28.8 28.4563 28.8 30C28.8 30.7838 29.1258 31.4912 29.6466 32C29.1258 32.5088 28.8 33.2162 28.8 34C28.8 34.5393 28.9605 35.039 29.2259 35.4668C28.2689 35.9125 27.6 36.8768 27.6 38C27.6 38.4311 27.7061 38.8349 27.8809 39.2H21.6C21.6 36.7539 20.3742 34.5891 18.5047 33.2875C20.3125 32.5984 21.6 30.8469 21.6 28.8C21.6 28.3582 21.2422 28 20.8 28H14.4V20H12.8V28C11.4766 28 10.4 29.0766 10.4 30.4V48H12V30.4C12 29.959 12.3586 29.6 12.8 29.6H19.8984C19.5429 30.9785 18.2882 32 16.8 32H14.4C13.9578 32 13.6 32.3582 13.6 32.8C13.6 33.2418 13.9578 33.6 14.4 33.6C17.4875 33.6 20 36.1121 20 39.2V40C20 40.4418 20.3578 40.8 20.8 40.8H25.4809C25.3061 41.1651 25.2 41.5689 25.2 42C25.2 43.5438 26.4563 44.8 28 44.8V48H29.6V44.8H33.2C34.7438 44.8 36 43.5437 36 42C36 41.5643 35.8913 41.1567 35.7129 40.7886C37.2034 40.7278 38.4 39.5051 38.4 38C38.4 37.4607 38.2395 36.961 37.9741 36.5332C38.9311 36.0875 39.6 35.1232 39.6 34C39.6 33.2162 39.2742 32.5088 38.7534 32C39.2742 31.4912 39.6 30.7838 39.6 30ZM33.2 43.2H28C27.3383 43.2 26.8 42.6617 26.8 42C26.8 41.3383 27.3383 40.8 28 40.8H33.2C33.8617 40.8 34.4 41.3383 34.4 42C34.4 42.6617 33.8617 43.2 33.2 43.2ZM35.6 39.2H30.4C29.7383 39.2 29.2 38.6617 29.2 38C29.2 37.3383 29.7383 36.8 30.4 36.8H35.6C36.2617 36.8 36.8 37.3383 36.8 38C36.8 38.6617 36.2617 39.2 35.6 39.2ZM36.8 35.2H31.6C30.9383 35.2 30.4 34.6617 30.4 34C30.4 33.3383 30.9383 32.8 31.6 32.8H36.8C37.4617 32.8 38 33.3383 38 34C38 34.6617 37.4617 35.2 36.8 35.2ZM36.8 31.2H31.6C30.9383 31.2 30.4 30.6617 30.4 30C30.4 29.3383 30.9383 28.8 31.6 28.8H36.8C37.4617 28.8 38 29.3383 38 30C38 30.6617 37.4617 31.2 36.8 31.2Z" fill="#1954FF"/>
<path d="M11.9977 10.1828C11.9813 9.9531 11.8672 9.7414 11.6836 9.6023L10.8508 8.971C10.6516 7.9625 9.7664 7.2 8.7078 7.2C7.5133 7.2 6.539 8.1711 6.5234 9.3707C5.8843 9.259 5.2734 9.0137 4.7265 8.6453L4.4476 8.457C4.2031 8.2918 3.8859 8.2738 3.6242 8.4136C3.3633 8.5523 3.2 8.8242 3.2 9.1199V9.7762C3.2 10.7403 3.4906 11.6598 4.0297 12.4321L3.4313 13.0376C3.204 13.2669 3.1375 13.6103 3.2618 13.9083C3.3859 14.2059 3.6773 14.4 4 14.4H7.8766C9.4227 14.4 10.7008 13.2215 10.8727 11.709L11.7688 10.8024C11.9305 10.6387 12.0141 10.4129 11.9977 10.1828ZM9.5234 10.7977C9.375 10.9473 9.2921 11.1497 9.2921 11.3602C9.2921 12.154 8.6569 12.8 7.8765 12.8H5.8414C5.968 12.5086 5.9133 12.157 5.6766 11.9176C5.3032 11.5395 5.036 11.0637 4.9008 10.5508C5.6641 10.8727 6.4844 11.0399 7.3235 11.0399C7.7657 11.0399 8.1235 10.6817 8.1235 10.2399V9.4C8.1235 9.0691 8.386 8.8 8.7079 8.8C9.0298 8.8 9.2923 9.0691 9.2923 9.4C9.2923 9.6504 9.4095 9.8863 9.6087 10.0375L9.99 10.3262L9.5234 10.7977Z" fill="#1954FF"/>
<path d="M26.4 13.6V12H24C23.5578 12 23.2 12.3582 23.2 12.8V15.2H21.6V16.8H23.2V20H24.8V16.8H26.4V15.2H24.8V13.6H26.4Z" fill="#1954FF"/>
<path d="M28.8 8.8H19.2C17.8766 8.8 16.8 9.8766 16.8 11.2V20.8C16.8 22.1234 17.8766 23.2 19.2 23.2H28.8C30.1234 23.2 31.2 22.1234 31.2 20.8V11.2C31.2 9.8766 30.1234 8.8 28.8 8.8ZM29.6 20.8C29.6 21.241 29.2414 21.6 28.8 21.6H19.2C18.7586 21.6 18.4 21.241 18.4 20.8V11.2C18.4 10.759 18.7586 10.4 19.2 10.4H28.8C29.2414 10.4 29.6 10.759 29.6 11.2V20.8Z" fill="#1954FF"/>
<path d="M12 4H2.4C1.0766 4 0 5.0766 0 6.4V16C0 17.3234 1.0766 18.4 2.4 18.4H12C13.3234 18.4 14.4 17.3234 14.4 16V6.4C14.4 5.0766 13.3234 4 12 4ZM12.8 16C12.8 16.441 12.4414 16.8 12 16.8H2.4C1.9586 16.8 1.6 16.441 1.6 16V6.4C1.6 5.959 1.9586 5.6 2.4 5.6H12C12.4414 5.6 12.8 5.959 12.8 6.4V16Z" fill="#1954FF"/>
<path d="M45.6 0H36C34.6766 0 33.6 1.0766 33.6 2.4V12C33.6 13.3234 34.6766 14.4 36 14.4H45.6C46.9234 14.4 48 13.3234 48 12V2.4C48 1.0766 46.9234 0 45.6 0ZM46.4 12C46.4 12.441 46.0414 12.8 45.6 12.8H36C35.5586 12.8 35.2 12.441 35.2 12V8H36.8809C37.2526 9.8234 38.8685 11.2 40.8 11.2C42.7315 11.2 44.3474 9.8234 44.7191 8H46.4V12ZM38.4 7.2C38.4 5.8766 39.4766 4.8 40.8 4.8C42.1234 4.8 43.2 5.8766 43.2 7.2C43.2 8.5234 42.1234 9.6 40.8 9.6C39.4766 9.6 38.4 8.5234 38.4 7.2ZM46.4 6.4H44.7191C44.3474 4.5766 42.7315 3.2 40.8 3.2C38.8685 3.2 37.2526 4.5766 36.8809 6.4H35.2V2.4C35.2 1.959 35.5586 1.6 36 1.6H45.6C46.0414 1.6 46.4 1.959 46.4 2.4V6.4Z" fill="#1954FF"/>
<path d="M24.8 32.8H23.2V34.4H24.8V32.8Z" fill="#1954FF"/>
</svg>
