<svg width="60" height="48" viewBox="0 0 60 48" fill="none" xmlns="http://www.w3.org/2000/svg">
<path d="M56.3879 46.2684H55.4029V20.5831C57.627 19.152 59.1043 16.6566 59.1043 13.821C59.1043 13.6703 59.065 13.5222 58.9903 13.3914L52.1202 1.36875C51.6377 0.524551 50.7339 0 49.7616 0H9.34276C8.37042 0 7.46666 0.524435 6.98412 1.36875L0.114053 13.3914C0.0393644 13.5222 0 13.6704 0 13.821C0 16.6566 1.47738 19.152 3.70141 20.5831V46.2684H2.71649C2.23835 46.2684 1.8507 46.6561 1.8507 47.1342C1.8507 47.6124 2.23835 48 2.71649 48H56.3879C56.8661 48 57.2536 47.6124 57.2536 47.1342C57.2536 46.6561 56.866 46.2684 56.3879 46.2684ZM1.79125 14.6867H4.56685C5.04499 14.6867 5.43264 14.2991 5.43264 13.821C5.43264 13.3428 5.04499 12.9552 4.56685 12.9552H2.35771L8.48759 2.22784C8.6626 1.9217 8.99021 1.73157 9.34276 1.73157H49.7616C50.1141 1.73157 50.4419 1.9217 50.6168 2.22784L56.7465 12.9552H54.5369C54.0587 12.9552 53.6711 13.3428 53.6711 13.821C53.6711 14.2991 54.0587 14.6867 54.5369 14.6867H57.313C56.8897 17.7555 54.2502 20.1268 51.0668 20.1268C47.8836 20.1268 45.2454 17.7553 44.822 14.6867H50.8359C51.3141 14.6867 51.7016 14.2991 51.7016 13.821C51.7016 13.3428 51.3141 12.9552 50.8359 12.9552H8.26895C7.79081 12.9552 7.40316 13.3428 7.40316 13.821C7.40316 14.2991 7.79081 14.6867 8.26895 14.6867H14.2822C13.8588 17.7553 11.2205 20.1268 8.03738 20.1268C4.85406 20.1268 2.21457 17.7555 1.79125 14.6867ZM42.9686 14.6867C42.5452 17.7553 39.9069 20.1268 36.7238 20.1268C33.5406 20.1268 30.9023 17.7553 30.4789 14.6867H42.9686ZM28.6254 14.6867C28.202 17.7553 25.5637 20.1268 22.3806 20.1268C19.1975 20.1268 16.5591 17.7553 16.1357 14.6867H28.6254ZM49.0444 46.2685H39.6716V43.3732H49.0444V46.2685ZM49.0444 41.6417H39.6716V25.7912H49.0444V41.6417ZM53.6714 46.2685H50.7761V24.9254C50.7761 24.4473 50.3885 24.0596 49.9103 24.0596H38.8059C38.3277 24.0596 37.9401 24.4473 37.9401 24.9254V46.2684H5.43298V21.4228C6.2504 21.7036 7.12588 21.8583 8.03738 21.8583C11.1652 21.8583 13.8813 20.0626 15.209 17.4478C16.5366 20.0625 19.2528 21.8583 22.3806 21.8583C25.5084 21.8583 28.2245 20.0626 29.5522 17.4478C30.8798 20.0625 33.596 21.8583 36.7238 21.8583C39.8516 21.8583 42.5677 20.0626 43.8954 17.4478C45.223 20.0625 47.9392 21.8583 51.067 21.8583C51.9785 21.8583 52.8539 21.7036 53.6714 21.4229V46.2685Z" fill="#1954FF"/>
<path d="M34.179 24.0596H9.19407C8.71593 24.0596 8.32829 24.4473 8.32829 24.9254V42.5075C8.32829 42.9856 8.71593 43.3732 9.19407 43.3732H34.179C34.6573 43.3732 35.0448 42.9856 35.0448 42.5075V24.9254C35.0448 24.4471 34.6573 24.0596 34.179 24.0596ZM33.3133 41.6417H10.0599V25.7912H33.3133V41.6417Z" fill="#1954FF"/>
</svg>
