<svg width="32" height="22" viewBox="0 0 32 22" fill="none" xmlns="http://www.w3.org/2000/svg">
<path d="M24.5 0C20.3645 0 17 3.3081 17 7.37428C17 9.31869 17.763 11.1534 19.1484 12.5405C20.5307 13.9245 22.3771 14.7079 24.3477 14.7467L24.4049 14.7481C25.0958 14.7685 25.6691 14.23 25.6871 13.5514C25.7051 12.8729 25.1601 12.3085 24.47 12.2908L24.4008 12.2891C21.6985 12.2377 19.5 10.0328 19.5 7.37428C19.5 4.6635 21.743 2.45809 24.5 2.45809C27.257 2.45809 29.5 4.6635 29.5 7.37428C29.5 10.7602 28.681 13.8845 27.0656 16.6607C25.8583 18.7356 24.6305 19.8316 24.6076 19.8519C24.0927 20.3013 24.0443 21.0761 24.5002 21.5841C24.7472 21.8593 25.0918 22 25.438 22C25.7318 21.9999 26.0269 21.8987 26.2645 21.6925C26.3249 21.64 27.7611 20.3805 29.1749 17.9848C30.4638 15.8007 32 12.187 32 7.37428C32 3.30804 28.6355 0 24.5 0Z" fill="#C4C4C4"/>
<path d="M7.5 0C3.3645 0 0 3.30804 0 7.37428C0 9.31869 0.763 11.1534 2.14838 12.5406C3.53069 13.9246 5.37706 14.708 7.34769 14.7468L7.40494 14.7482C8.09431 14.7687 8.66912 14.2301 8.68706 13.5515C8.70506 12.873 8.16012 12.3086 7.47 12.2909L7.40081 12.2892C4.6985 12.2377 2.5 10.0328 2.5 7.37428C2.5 4.6635 4.743 2.45809 7.5 2.45809C10.257 2.45809 12.5 4.6635 12.5 7.37428C12.5 10.7602 11.681 13.8845 10.0656 16.6606C8.85825 18.7355 7.6305 19.8315 7.60756 19.8518C7.09263 20.3013 7.04431 21.076 7.50019 21.584C7.74725 21.8593 8.09181 21.9999 8.438 21.9999C8.73181 21.9999 9.02688 21.8987 9.26456 21.6925C9.32494 21.64 10.7612 20.3805 12.1749 17.9848C13.4637 15.8007 15 12.187 15 7.37428C15 3.30804 11.6355 0 7.5 0Z" fill="#C4C4C4"/>
</svg>
