<svg width="18" height="18" fill="none" xmlns="http://www.w3.org/2000/svg"><path d="M18 17.182a.819.819 0 0 1-1.636 0c0-8.586-6.96-15.546-15.546-15.546A.818.818 0 1 1 .818 0C10.308 0 18 7.693 18 17.182zm-4.91 0a.819.819 0 0 1-1.636 0c0-5.875-4.761-10.637-10.636-10.637a.818.818 0 1 1 0-1.636c6.778 0 12.273 5.495 12.273 12.273zm-4.908 0a.818.818 0 0 1-1.637 0 5.727 5.727 0 0 0-5.727-5.727.818.818 0 0 1 0-1.637 7.364 7.364 0 0 1 7.364 7.364zM1.227 18a1.227 1.227 0 1 1 0-2.454 1.227 1.227 0 0 1 0 2.454z" fill="#999"/></svg>