<svg width="24" height="24" viewBox="0 0 24 24" fill="none" xmlns="http://www.w3.org/2000/svg">
<path fill-rule="evenodd" clip-rule="evenodd" d="M14.0927 23.6787L14.8948 23.6831C14.7036 23.794 14.352 23.7541 14.0927 23.7541V23.6809V23.6787ZM13.8729 23.6055C13.9432 23.5346 14.1059 23.6986 13.9586 23.6454C13.9564 23.6454 13.774 23.7053 13.8729 23.6055ZM11.8906 23.0867C11.8972 23.0801 11.9126 23.0978 11.9126 23.1089C11.9126 23.1133 11.9214 23.1178 11.9214 23.1178C11.9192 23.1155 11.7917 23.1865 11.8906 23.0867ZM11.6708 23.0136C11.6774 23.0069 11.6928 23.0246 11.6928 23.0357C11.6928 23.0402 11.7016 23.0446 11.7016 23.0446C11.6994 23.0424 11.5719 23.1133 11.6708 23.0136ZM11.4511 22.9404C11.5214 22.8694 11.684 23.0335 11.5368 22.9803C11.5346 22.9803 11.3522 23.0402 11.4511 22.9404ZM13.7279 22.8672C13.7345 22.8606 13.7498 22.8783 13.7498 22.8894C13.7498 22.8938 13.7586 22.8983 13.7586 22.8983C13.7564 22.8961 13.629 22.967 13.7279 22.8672ZM11.2313 22.8672L11.3785 22.9027L11.2313 22.8672ZM13.3543 22.8495L13.1411 22.8717C13.1806 22.8428 13.1125 22.7143 13.3543 22.8495ZM12.8466 22.7209C12.9169 22.65 13.0774 22.814 12.9323 22.7608C12.9301 22.7608 12.7477 22.8207 12.8466 22.7209ZM17.1057 22.6477C17.176 22.5768 17.3364 22.7409 17.1914 22.6876C17.1892 22.6876 17.0068 22.7475 17.1057 22.6477ZM12.4796 22.6477C12.5499 22.5768 12.7103 22.7409 12.5653 22.6876C12.5631 22.6876 12.3785 22.7475 12.4796 22.6477ZM17.398 22.5746C17.4046 22.5679 17.42 22.5857 17.42 22.5967C17.42 22.6012 17.4287 22.6056 17.4287 22.6056C17.4265 22.6034 17.2991 22.6743 17.398 22.5746ZM17.6925 22.5014C17.6991 22.4948 17.7144 22.5125 17.7144 22.5236C17.7144 22.528 17.7232 22.5325 17.7232 22.5325C17.721 22.5302 17.5936 22.6012 17.6925 22.5014ZM11.9653 22.5014C12.0357 22.4305 12.1983 22.5945 12.051 22.5413C12.0488 22.5413 11.8664 22.6012 11.9653 22.5014ZM17.2507 22.5014C17.3826 22.4172 17.2903 22.3595 17.5386 22.4815L17.2507 22.5014ZM17.6177 22.3529C17.6243 22.3462 17.6397 22.364 17.6397 22.375C17.6397 22.3795 17.6485 22.3839 17.6485 22.3839C17.6463 22.3817 17.5188 22.4526 17.6177 22.3529ZM11.5983 22.3529C11.6049 22.3462 11.6203 22.364 11.6203 22.375C11.6203 22.3795 11.6291 22.3839 11.6291 22.3839C11.6269 22.3817 11.4994 22.4526 11.5983 22.3529ZM16.8837 22.3529C17.0156 22.2686 16.9233 22.211 17.1716 22.3329L16.8837 22.3529ZM11.3785 22.2797L11.5258 22.3152L11.3785 22.2797ZM17.2529 22.2065C17.2595 22.1999 17.2749 22.2176 17.2749 22.2287C17.2749 22.2332 17.2837 22.2376 17.2837 22.2376C17.2815 22.2354 17.154 22.3063 17.2529 22.2065ZM13.5762 22.2265L13.363 22.2908C13.4663 22.1999 13.2246 22.211 13.5762 22.2265ZM11.3807 22.2819L11.2335 22.2088L11.3807 22.2819ZM13.0686 22.1334C13.0752 22.1267 13.0905 22.1445 13.0905 22.1556C13.0905 22.16 13.0993 22.1644 13.0993 22.1644C13.0971 22.1622 12.9697 22.2331 13.0686 22.1334ZM11.2335 22.2065L11.0863 22.1334L11.2335 22.2065ZM12.8488 22.058C12.8554 22.0513 12.8708 22.0691 12.8708 22.0802C12.8708 22.0846 12.8796 22.089 12.8796 22.089C12.8774 22.0868 12.7499 22.1578 12.8488 22.058ZM12.5543 21.9848C12.5609 21.9782 12.5763 21.9959 12.5763 22.007C12.5763 22.0114 12.5851 22.0159 12.5851 22.0159C12.5829 22.0137 12.4554 22.0846 12.5543 21.9848ZM18.2067 21.6878C18.2133 21.6811 18.2287 21.6988 18.2287 21.7099C18.2287 21.7144 18.2375 21.7188 18.2375 21.7188C18.2353 21.7166 18.1078 21.7875 18.2067 21.6878ZM18.354 21.6146C18.3606 21.6079 18.3759 21.6257 18.3759 21.6368C18.3759 21.6412 18.3847 21.6456 18.3847 21.6456C18.3825 21.6434 18.2551 21.7144 18.354 21.6146ZM18.5012 21.5414C18.5078 21.5348 18.5232 21.5525 18.5232 21.5636C18.5232 21.568 18.532 21.5725 18.532 21.5725C18.5298 21.5702 18.4023 21.6412 18.5012 21.5414ZM18.7957 21.4683L18.6638 21.5459L18.7957 21.4683ZM18.9429 21.3951L18.7957 21.4683L18.9429 21.3951ZM18.9429 21.3951L18.9627 21.3264L19.0177 21.3685L18.9451 21.3929L18.9429 21.3951ZM19.1627 21.2466L19.1429 21.3153L19.088 21.2732L19.1605 21.2488L19.1627 21.2466ZM19.31 21.1734L19.1627 21.2466L19.31 21.1734ZM19.4572 21.1002L19.31 21.1734L19.4572 21.1002ZM19.5297 21.0271L19.4572 21.1002L19.5297 21.0271ZM19.5297 21.0271C19.644 20.863 19.7868 20.781 19.9693 20.73C19.822 20.9561 19.7868 20.9628 19.5297 21.0271ZM11.2335 22.8805C10.3566 22.8029 8.37872 21.2687 7.93039 20.5837C8.14357 20.6413 9.1501 21.6035 9.48635 21.8296C9.77644 22.0247 10.0402 22.1888 10.339 22.3773C10.6203 22.5546 11.0071 22.6788 11.2357 22.8805H11.2335ZM19.9693 20.7322C20.1077 20.5171 20.0462 20.5681 20.2637 20.5105C20.1253 20.7255 20.1868 20.6746 19.9693 20.7322ZM7.9282 20.5837L7.85567 20.5105L7.9282 20.5837ZM7.85567 20.5105L7.78315 20.4373L7.85567 20.5105ZM7.78315 20.4373L7.71063 20.3642L7.78315 20.4373ZM20.2637 20.5105L20.5582 20.2134C20.5099 20.4506 20.4791 20.4529 20.2637 20.5105ZM16.6662 20.2888L16.6486 20.3575L16.5936 20.3154L16.6662 20.291V20.2888ZM7.70843 20.362L7.6403 20.342L7.68206 20.2866L7.70623 20.3597L7.70843 20.362ZM16.6662 20.2888L16.798 20.2112L16.6662 20.2888ZM20.5582 20.2156L20.578 20.1469L20.633 20.189L20.5604 20.2134L20.5582 20.2156ZM21.9538 18.5861C21.9603 18.5794 21.9757 18.5972 21.9757 18.6083C21.9757 18.6127 21.9845 18.6171 21.9845 18.6171C21.9823 18.6149 21.8549 18.6859 21.9538 18.5861ZM22.1735 18.3644L22.1559 18.4331L22.101 18.391L22.1735 18.3666V18.3644ZM22.246 18.2158L22.1735 18.3644L22.246 18.2158ZM22.246 18.2158L22.3933 17.9941L22.246 18.2158ZM22.4658 17.8456L22.3933 17.9941L22.4658 17.8456ZM6.16786 17.8456C6.17445 17.8389 6.18984 17.8567 6.18984 17.8678C6.18984 17.8722 6.19863 17.8766 6.19863 17.8766C6.19643 17.8744 6.06896 17.9454 6.16786 17.8456ZM22.5405 17.697L22.468 17.8456L22.5405 17.697ZM22.6131 17.5485L22.5405 17.697L22.6131 17.5485ZM22.6131 17.5485L22.6482 17.4L22.6131 17.5485ZM22.7603 17.1783L22.7251 17.3268L22.7603 17.1783ZM22.7603 17.1783L22.7955 17.0297L22.7603 17.1783ZM22.8328 16.8812C22.8394 16.8745 22.8548 16.8923 22.8548 16.9033C22.8548 16.9078 22.8636 16.9122 22.8636 16.9122C22.8614 16.91 22.7339 16.9809 22.8328 16.8812ZM22.9053 16.7326C22.9053 16.5619 22.9955 16.7193 22.9515 16.7326C22.9515 16.7326 22.9053 16.9233 22.9053 16.7326ZM22.9779 16.4355C22.9845 16.4289 22.9999 16.4466 22.9999 16.4577C22.9999 16.4621 23.0086 16.4666 23.0086 16.4666C23.0064 16.4644 22.879 16.5353 22.9779 16.4355ZM23.1251 15.9899C23.1251 15.8192 23.2152 15.9766 23.1713 15.9899C23.1713 15.9899 23.1251 16.1806 23.1251 15.9899ZM23.1976 15.6197C23.2042 15.613 23.2196 15.6307 23.2196 15.6418C23.2196 15.6463 23.2284 15.6507 23.2284 15.6507C23.2262 15.6485 23.0987 15.7194 23.1976 15.6197ZM23.2614 15.2516C23.3427 15.3447 23.3361 15.1474 23.3273 15.4667L23.2614 15.2516ZM23.3647 15.1696C23.3471 15.01 23.4394 13.4713 23.4745 13.4026C23.5251 13.8704 23.5756 14.8104 23.3647 15.1696ZM17.3255 20.0671L17.1057 20.1402C17.0595 20.3664 16.8881 20.1425 16.8859 20.1402C16.5101 20.1402 16.3497 20.2467 16.0025 20.2866C15.697 20.322 15.275 20.3354 14.9915 20.3797C14.5014 20.4551 13.4268 20.4684 13.0664 20.2156C12.3697 20.1535 11.2621 19.4175 10.8775 19.4131C10.9434 19.8099 11.2906 20.1691 11.5192 20.4928C10.3566 20.6213 9.35669 19.2667 8.53475 18.6659L8.65123 19.014C8.3062 18.9608 8.33037 18.6969 8.07544 18.5129L7.95677 18.5905L7.66228 18.2868C7.74139 19.0539 9.35449 20.5016 9.97204 20.9716C10.8159 21.6146 12.6312 22.3684 13.6553 22.3684C13.8268 22.1423 13.8509 22.364 14.1037 22.4349C14.1322 22.4438 14.2465 22.4549 14.2971 22.4637C15.286 22.6433 16.1519 22.3684 16.8859 22.3684C16.4837 22.65 15.8113 22.6256 15.2772 22.6832C15.8332 22.9448 16.6683 22.528 17.2529 22.5169C16.3519 23.1488 13.5784 22.8739 12.2137 22.4149C11.9104 22.313 10.9962 21.8917 10.7984 21.8696L11.0863 22.1467C9.89731 21.8563 8.28202 20.24 7.58316 19.3089C7.1656 18.7524 6.69091 17.9764 6.41839 17.298C6.14588 16.6173 5.72832 15.4955 5.72832 14.7528L5.50856 14.7328C5.60526 15.1452 5.62284 15.6441 5.78766 16.307C5.90194 16.7659 6.04259 17.3445 6.23599 17.7547C5.98106 17.6904 5.78107 17.0452 5.67778 16.7881C5.59866 16.5885 5.55031 16.4245 5.47999 16.2449C5.38109 15.9877 5.34373 15.8502 5.13495 15.766C4.91518 16.1673 5.10199 16.7393 5.22286 17.0984C6.18544 19.954 8.3985 22.5524 11.2049 23.5102C12.429 23.927 12.9279 24.0001 14.2443 24.0001C16.0706 24.0001 18.3562 23.4947 19.8682 22.5635C22.0351 21.2266 23.4592 18.4619 23.8701 15.9301C24.0437 14.8614 24.0437 13.7219 23.8701 12.651C23.268 8.9441 20.7384 6.25703 17.2463 5.10859C16.4508 4.84698 15.0882 4.54324 14.2641 4.59202C14.0641 4.32375 13.9081 3.90916 13.6465 3.55665C13.1103 2.83611 11.7522 1.4704 10.9434 1.39502C11.0797 1.5879 11.6137 1.84508 11.8423 2.04462C12.4115 2.54124 13.9059 4.01115 14.0136 4.56985C13.4883 4.61197 12.6796 4.50999 12.2708 4.71174C12.8576 4.77603 13.4092 4.59645 14.0817 4.67627C14.3102 4.88023 14.2113 4.88467 14.3762 5.02213L14.3124 4.67627C14.5432 4.7073 14.7476 4.71396 14.9673 4.74721C15.1937 4.78268 15.3739 4.86693 15.631 4.89354C15.5893 5.14407 15.4926 5.04651 16.3079 5.35469C15.9101 5.41676 15.0091 5.19062 14.5432 5.17289C14.3234 5.16402 13.0839 5.20171 13.0202 5.603C13.4444 5.91117 15.6135 5.70498 16.4464 6.12179C16.1101 6.15948 15.8354 6.08188 15.497 6.06858C15.1564 6.05528 14.9498 5.98211 14.541 5.99098C14.2092 5.99763 13.0378 6.124 12.862 6.34571C13.5345 6.42109 13.8509 6.30359 14.9915 6.43218C15.7036 6.51199 16.1145 6.44326 16.82 6.80908C17.1474 6.97979 17.2419 6.90884 17.4837 7.02856C17.6661 7.11946 18.5034 7.62052 18.6177 7.73581C19.9099 9.04387 20.5582 9.50945 21.2681 11.3585C21.378 11.6467 21.5384 11.7886 21.5933 11.9948L21.6834 13.5645C21.6043 14.081 21.6747 14.6597 21.5516 15.2139C21.3911 15.9345 20.9758 17.1029 20.4659 17.6749C20.4791 17.8988 20.4593 17.6128 20.5516 17.9099C20.1341 18.0784 19.5429 18.8056 19.1166 19.1293C18.7891 19.3776 18.7254 19.5483 18.354 19.6924C18.0749 19.7988 17.6046 20.0493 17.3342 20.0715L17.3255 20.0671Z" fill="#40586F"/>
<path fill-rule="evenodd" clip-rule="evenodd" d="M6.38509 14.4866C6.45542 14.4157 6.61585 14.5797 6.4708 14.5265C6.4686 14.5265 6.28619 14.5864 6.38509 14.4866ZM5.94336 14.4134L6.15873 14.4245C5.91699 14.5575 6.02907 14.4689 5.94336 14.4134ZM5.94336 14.4134L5.72799 14.4024C5.96973 14.2693 5.85765 14.358 5.94336 14.4134ZM5.57635 14.2649C5.58294 14.2582 5.59832 14.276 5.59832 14.2871C5.59832 14.2915 5.60711 14.2959 5.60711 14.2959C5.60492 14.2937 5.47745 14.3647 5.57635 14.2649ZM3.88853 13.3759L3.95666 13.3936L3.9149 13.449L3.89073 13.3759H3.88853ZM3.88853 13.3759L3.8204 13.3559L3.86216 13.3005L3.88633 13.3736L3.88853 13.3759ZM3.59404 13.1541L3.66217 13.1719L3.62041 13.2273L3.59624 13.1541H3.59404ZM3.59404 13.1541L3.52152 13.081L3.59404 13.1541ZM3.52152 13.081L3.45339 13.061L3.49515 13.0056L3.51932 13.0788L3.52152 13.081ZM2.05347 11.3029L2.1216 11.3206L2.07985 11.3761L2.05567 11.3029H2.05347ZM2.05347 11.3029L1.98535 11.283L2.0271 11.2275L2.05127 11.3007L2.05347 11.3029ZM1.90623 11.0812L1.97436 11.0989L1.9326 11.1544L1.90843 11.0812H1.90623ZM1.90623 11.0812L1.82931 10.9482L1.90623 11.0812ZM1.75899 10.7841C1.76558 10.7775 1.78096 10.7952 1.78096 10.8063C1.78096 10.8107 1.78975 10.8152 1.78975 10.8152C1.78756 10.8129 1.66009 10.8839 1.75899 10.7841ZM1.68646 10.6356C1.69305 10.6289 1.70844 10.6467 1.70844 10.6577C1.70844 10.6622 1.71723 10.6666 1.71723 10.6666C1.71503 10.6644 1.58757 10.7353 1.68646 10.6356ZM1.61394 10.487C1.61394 10.3163 1.70404 10.4737 1.66009 10.487C1.66009 10.487 1.61394 10.6799 1.61394 10.487ZM1.54141 10.2653C1.54801 10.2587 1.56339 10.2764 1.56339 10.2875C1.56339 10.2919 1.57218 10.2964 1.57218 10.2964C1.56998 10.2941 1.44252 10.3651 1.54141 10.2653ZM14.022 10.1168L14.0022 10.1855L13.9473 10.1434L14.0198 10.119L14.022 10.1168ZM13.4352 10.0436L13.4001 10.1922L13.4352 10.0436ZM1.46889 10.0436C1.47549 10.037 1.49087 10.0547 1.49087 10.0658C1.49087 10.0702 1.49966 10.0747 1.49966 10.0747C1.49746 10.0724 1.37 10.1434 1.46889 10.0436ZM13.51 9.89507L13.4374 10.0436L13.51 9.89507ZM2.71717 8.63578L2.70618 8.85306C2.57432 8.60918 2.66223 8.72225 2.71717 8.63578ZM0.862334 7.30777L0.879916 8.48059C0.754648 8.24558 0.750252 7.53612 0.862334 7.30777ZM2.56993 8.3387C2.57652 8.33205 2.5919 8.34978 2.5919 8.36087C2.5919 8.3653 2.60069 8.36974 2.60069 8.36974C2.5985 8.36752 2.47103 8.43847 2.56993 8.3387ZM0.293135 6.19037C0.293135 6.01966 0.38324 6.17707 0.339286 6.19037C0.339286 6.19037 0.293135 6.38104 0.293135 6.19037ZM0.365659 5.89328C0.372252 5.88663 0.387635 5.90437 0.387635 5.91545C0.387635 5.91989 0.396426 5.92432 0.396426 5.92432C0.394228 5.9221 0.266763 5.99305 0.365659 5.89328ZM3.22923 5.5962L3.20945 5.66493L3.15451 5.6228L3.22703 5.59841L3.22923 5.5962ZM1.98095 3.89128L1.96117 3.96001L1.90623 3.91788L1.97875 3.8935L1.98095 3.89128ZM1.98095 3.89128L1.99853 3.82255L2.05347 3.86467L1.98095 3.88906V3.89128ZM1.39417 3.81812C1.40076 3.81147 1.41615 3.8292 1.41615 3.84029C1.41615 3.84472 1.42494 3.84916 1.42494 3.84916C1.42274 3.84694 1.29528 3.91788 1.39417 3.81812ZM1.61394 3.59641L1.59416 3.66514L1.53922 3.62302L1.61174 3.59863L1.61394 3.59641ZM1.68646 3.52325L1.61394 3.59641L1.68646 3.52325ZM1.75899 3.3747L1.68646 3.52325L1.75899 3.3747ZM1.83151 3.30154L1.75899 3.3747L1.83151 3.30154ZM1.90403 3.22838L1.83151 3.30154L1.90403 3.22838ZM1.90403 3.22838C1.96337 3.01111 1.91282 3.07318 2.1238 2.93129C2.06446 3.14856 2.11501 3.08649 1.90403 3.22838ZM2.27104 2.78275L2.26445 2.91799L2.126 2.93129L2.27324 2.78275H2.27104ZM2.41829 2.63421L2.41169 2.76945L2.27324 2.78275L2.42048 2.63421H2.41829ZM2.41829 2.63421C2.55894 2.41915 2.76332 2.18193 3.00507 2.11542C2.86442 2.33047 2.66003 2.5677 2.41829 2.63421ZM3.00507 2.11542C3.15011 1.89593 3.34351 1.73852 3.59185 1.66979C3.47537 1.84937 3.19846 2.06221 3.00507 2.11542ZM3.59185 1.66979L3.60943 1.60106L3.66437 1.64318L3.59185 1.66757V1.66979ZM5.50163 14.7105L5.72139 14.7305C6.07082 15.0453 8.18718 15.1251 8.65749 14.899H8.73001C9.82225 15.0298 12.2639 13.5266 13.1056 12.3848C14.1649 10.9504 15.0439 9.28095 15.0439 7.37428C14.9538 7.51617 14.8549 8.33648 14.7934 8.60475C14.6747 9.1191 14.6483 9.27873 14.4088 9.77314L14.2132 9.77979L14.0176 10.119C14.0484 9.75983 14.2506 9.35855 14.3297 8.95282C14.4198 8.49389 14.5319 8.11478 14.3121 7.67358C13.9077 7.96402 13.8792 9.47161 13.5056 9.89729C13.5187 9.23439 14.0484 8.18572 13.7517 7.53834C13.5759 7.77778 13.5407 8.31653 13.4638 8.66904C13.3847 9.03264 13.2726 9.40289 13.1495 9.75983C12.7188 11.0014 11.543 12.0877 10.3761 12.6664C9.308 13.1963 8.60035 13.1032 8.22674 13.3869C7.47514 13.1808 7.28174 13.2761 7.1323 13.2606C6.98945 13.245 7.04 13.2029 6.82462 13.1808C6.42245 13.1918 6.6598 13.1808 6.53673 13.0854C6.3785 13.0854 6.51256 13.1054 6.45761 13.0123C6.25323 13.0921 5.79392 12.897 5.57635 12.7817L5.3324 12.642C4.89287 12.3804 4.51047 12.1875 4.19401 11.8106C4.02479 11.6089 4.05116 11.6332 3.827 11.6665C3.72371 11.079 2.66443 10.0547 2.71937 9.09028C2.73475 8.8198 2.90178 8.89075 2.71278 8.64022C2.71278 7.74231 2.73475 6.58501 3.07979 5.82455L3.29955 5.60285H3.22703L3.29955 5.45431L3.37208 5.30576L3.51932 5.08406C3.60283 4.77589 3.91271 4.37238 4.18082 4.19502L4.13687 4.03317C3.65118 4.06643 3.60723 4.2704 3.24022 4.33247C3.36988 3.53433 4.44015 2.88252 5.0511 2.39255L4.772 2.31273L5.35878 1.97352L5.21153 1.93805L5.35878 1.89814L5.50382 1.69861C4.42037 1.81833 3.05781 3.05545 2.36115 3.9844C1.09089 5.68045 1.06892 7.92189 0.974416 8.11699L0.954636 7.2346C0.710694 7.04837 1.23154 5.63167 1.35022 5.3368C1.51944 4.91334 2.14578 3.96001 2.20291 3.7516L2.06446 3.72278C2.94133 2.79827 3.38746 2.14867 4.79617 1.4769C5.40053 1.1909 6.00929 1.02241 6.65321 0.904902C7.91028 0.676545 8.00697 0.862777 9.02889 0.769661C8.57178 0.510265 7.38064 0.534653 6.81364 0.621118C6.64442 0.647723 6.15653 0.705366 6.02467 0.696498C6.39168 0.488095 7.50151 0.454839 7.72567 0.193226C7.31251 -0.287876 5.49064 0.255303 4.96979 0.465924C2.79629 1.35496 1.36121 2.58543 0.462357 4.80914C-0.357376 6.84218 -0.0782714 10.4804 1.22934 11.9215C1.90623 12.6664 2.19852 13.0366 3.0688 13.6219C3.69294 14.041 4.79397 14.6662 5.50602 14.715L5.50163 14.7105Z" fill="#219AB5"/>
<path fill-rule="evenodd" clip-rule="evenodd" d="M5.33203 12.6355L5.57597 12.7752C5.58696 12.2941 5.96936 11.1745 6.15176 10.6978C6.55394 9.66022 7.44619 8.25683 8.23516 7.46534C8.48569 7.21259 9.47904 6.3036 9.6131 6.11293C8.75381 6.19053 7.37807 7.97304 6.88139 8.76453C6.54295 9.30549 6.18253 10.0349 6.01551 10.6313C5.91661 10.986 5.54521 12.4914 5.33203 12.6333V12.6355ZM6.53636 13.0789C6.65943 13.1765 6.42208 13.1853 6.82425 13.1743C6.93853 12.6266 7.02864 12.0613 7.20005 11.5292C7.33851 11.0947 7.69014 10.485 7.78024 10.1125C7.23302 10.5071 6.75173 12.2741 6.75173 12.9282C6.67701 13.1831 6.81986 13.0035 6.53856 13.0767L6.53636 13.0789ZM7.26599 18.1937C7.09017 17.4598 6.71876 17.1849 6.39131 15.4445C6.36274 15.2938 6.3979 15.3603 6.34296 15.1984C6.24187 14.8947 6.31879 15.1231 6.23747 15.0078C6.09462 15.2561 6.43966 16.4777 6.52976 16.7149C6.65503 17.0452 6.98908 17.9964 7.26599 18.1959V18.1937ZM11.6635 3.05561C11.1141 2.2885 9.38894 1.53027 8.45273 1.60565L8.89666 1.72537C10.6174 2.13774 11.4064 3.02013 11.6635 3.05782V3.05561ZM5.79794 1.36842L7.61981 1.16446C7.73849 1.17332 7.79123 1.31965 8.14725 1.07134C7.4462 1.07134 6.3034 1.0137 5.79794 1.36842Z" fill="#40586F"/>
<path fill-rule="evenodd" clip-rule="evenodd" d="M10.6416 1.2198C10.3845 0.853988 9.5472 0.596809 9.10547 0.645584C9.15382 0.683274 10.4878 1.18211 10.6416 1.2198Z" fill="#219AB5"/>
<path fill-rule="evenodd" clip-rule="evenodd" d="M11.5984 19.4528L10.5061 18.5815C10.5874 19.0648 11.1215 19.3353 11.5984 19.4528ZM6.45801 13.0056C6.53053 12.8925 6.60965 12.3139 6.66239 12.1011C6.73711 11.8018 6.87117 11.5268 6.89754 11.2275C6.60305 11.5623 6.45801 12.5046 6.45801 13.0056Z" fill="#40586F"/>
<path fill-rule="evenodd" clip-rule="evenodd" d="M4.18266 4.18403L3.96289 4.62966L4.77163 3.88916C4.38704 3.92242 4.45956 4.00223 4.18485 4.18625L4.18266 4.18403Z" fill="#219AB5"/>
<path fill-rule="evenodd" clip-rule="evenodd" d="M9.17394 16.7856C9.19592 17.0428 9.24647 17.2002 9.39371 17.3908C9.51239 17.178 9.37833 16.9319 9.17394 16.7856ZM8.73441 14.8967H8.66189C8.56739 15.1627 8.53222 15.2913 8.80254 15.3578L8.73441 14.8967ZM8.75199 12.4047C8.88605 12.2229 8.93879 11.9591 8.94099 11.7573C8.79155 11.9369 8.72562 12.1142 8.75199 12.4047ZM5.87304 3.16176C5.91919 3.26375 5.76975 3.36795 6.11258 3.25931C6.20269 3.23049 6.32796 3.13294 6.3785 3.09525L5.87304 3.16398V3.16176ZM16.8834 20.12H17.1032L17.3229 20.0469V19.9737C17.035 19.9804 17.0812 19.9427 16.8834 20.1223V20.12ZM13.066 20.1932L13.4264 20.1866L12.9188 20.0469L13.066 20.1932ZM10.0552 3.59187C9.89698 3.44998 9.89039 3.40342 9.69479 3.49876L10.0552 3.59187ZM12.9188 20.0469L12.4792 19.8983C12.677 20.0757 12.6331 20.0402 12.9188 20.0469ZM7.41141 2.99992L7.84875 2.97775L7.41141 2.92232V2.99992ZM12.11 4.99971C11.8046 4.99971 11.9672 4.9731 11.8156 5.07287C12.121 5.07065 11.9584 5.09947 12.11 4.99971ZM9.6882 1.59209C9.53656 1.49232 9.69919 1.51892 9.39371 1.51892C9.54535 1.61869 9.38272 1.59209 9.6882 1.59209ZM6.89935 11.2252L7.0466 10.9303L6.91254 11.0146L6.89935 11.2252ZM9.39371 1.51671C9.31899 1.46793 9.42228 1.3726 9.18054 1.49897L9.39371 1.51671ZM5.35658 1.51671C5.42691 1.58765 5.58734 1.42359 5.44229 1.4768C5.44009 1.4768 5.25549 1.41694 5.35658 1.51671ZM5.79832 1.36816L5.58294 1.37925C5.82469 1.51227 5.71261 1.42359 5.79832 1.36816ZM3.30176 5.59388L3.37428 5.44533H3.30176V5.59388ZM3.37428 5.44533L3.449 5.29679H3.37428V5.44533ZM3.52153 5.22363L3.59405 5.07509H3.52153V5.22363ZM5.35658 1.88696V1.96234L5.50383 1.92686L5.35658 1.88696ZM14.7736 6.99506L14.8374 6.70684C14.8176 6.72236 14.8 6.72458 14.7978 6.75118L14.7736 6.99506ZM7.41141 18.4905L7.43119 18.557L7.48613 18.5149L7.41141 18.4905ZM3.81601 4.778L3.74789 4.79795L3.78964 4.85116L3.81601 4.778ZM7.78062 10.1145L7.84655 10.0945L7.80479 10.0413L7.78062 10.1145ZM9.17394 16.7856L9.15636 16.7169L9.10142 16.759L9.17394 16.7856ZM11.6705 5.14825L11.6046 5.1682L11.6463 5.22141L11.6705 5.14825ZM7.11912 10.7064L7.18505 10.6887L7.14329 10.6333L7.11912 10.7064ZM12.0375 19.6766L12.0573 19.7431L12.11 19.701L12.0375 19.6766ZM10.2025 3.66725L10.2222 3.73377L10.275 3.69164L10.2025 3.66725ZM3.66877 4.99971L3.7347 4.98197L3.69294 4.92654L3.66877 4.99971ZM17.3229 19.9715L17.3911 19.9538L17.3493 19.8983L17.3229 19.9715ZM7.41141 18.4905L7.39383 18.4218L7.33889 18.4639L7.41141 18.4905ZM11.3035 2.48113L11.3233 2.54764L11.376 2.50552L11.3035 2.48113Z" fill="#40586F"/>
<path fill-rule="evenodd" clip-rule="evenodd" d="M4.77025 3.88919L4.83838 3.86923L4.79443 3.81602L4.77025 3.88919ZM2.20117 3.74064L2.2671 3.72069L2.22535 3.66748L2.20117 3.74064Z" fill="#219AB5"/>
<path fill-rule="evenodd" clip-rule="evenodd" d="M7.19179 10.5602C7.19838 10.5668 7.21377 10.5292 7.21377 10.538C7.21377 10.5425 7.22256 10.5292 7.22256 10.5292C7.22036 10.5314 7.09289 10.4604 7.19179 10.5602ZM8.95432 11.6709C8.96092 11.6776 8.9763 11.6399 8.9763 11.6488C8.9763 11.6532 8.98509 11.6399 8.98509 11.6399C8.98289 11.6421 8.85543 11.5712 8.95432 11.6709ZM0.952591 6.92643C0.959184 6.93309 0.974569 6.8954 0.974569 6.90426C0.974569 6.9087 0.983358 6.8954 0.983358 6.8954C0.98116 6.89761 0.853695 6.82667 0.952591 6.92643ZM15.0485 7.37206L15.1254 7.23904L15.0485 7.37206ZM7.04674 10.9304L7.11927 10.7065L7.04674 10.9304ZM3.52167 5.22373L3.44915 5.2969L3.52167 5.22373ZM11.8179 5.07519L11.6707 5.14835L11.8179 5.07519ZM3.66892 4.99981L3.5942 5.07519L3.66892 4.99981ZM3.88868 4.70494L3.81616 4.77811L3.88868 4.70494ZM3.96121 4.62956L3.88868 4.70494L3.96121 4.62956ZM12.1102 4.99981L12.2574 4.96656L12.1102 4.99981ZM10.7894 1.29511L10.6421 1.21973L10.7894 1.29511ZM10.2026 3.66736L10.0554 3.59198L10.2026 3.66736ZM7.26651 18.1935L7.29948 18.3421L7.26651 18.1935ZM8.00053 18.4152L7.96537 18.2667L8.00053 18.4152ZM10.9366 1.36827L10.7894 1.29511L10.9366 1.36827ZM8.07306 18.4906L8.00053 18.4152L8.07306 18.4906ZM9.83559 1.66536L9.68835 1.59219L9.83559 1.66536ZM10.3498 1.88706L10.2026 1.8139L10.3498 1.88706ZM11.7454 19.5282L11.5981 19.4528L11.7454 19.5282ZM10.0554 1.73852L9.83559 1.66536L10.0554 1.73852ZM11.8904 19.6014L11.7454 19.5282L11.8904 19.6014ZM12.0377 19.6767L11.8904 19.6014L12.0377 19.6767ZM10.2026 1.8139L10.0554 1.73852L10.2026 1.8139ZM12.3322 19.8231L12.1981 19.7455L12.3322 19.8231ZM11.3036 2.48123L11.0839 2.33269L11.3036 2.48123ZM12.4794 19.8984L12.3322 19.8231L12.4794 19.8984ZM11.0839 2.33269L11.0092 2.25731L11.0839 2.33269Z" fill="#40586F"/>
<path fill-rule="evenodd" clip-rule="evenodd" d="M0.952148 7.22336L1.02975 7.09033L0.952148 7.22336Z" fill="#219AB5"/>
</svg>
