<svg width="15" height="18" fill="none" xmlns="http://www.w3.org/2000/svg"><path d="M5.734 8.255a2.817 2.817 0 0 1 0 1.49l4.414 3.25a2.947 2.947 0 0 1 1.898-.722c.7-.008 1.38.23 1.916.673a2.85 2.85 0 0 1 1.002 1.739 2.82 2.82 0 0 1-.4 1.959 2.91 2.91 0 0 1-1.608 1.225 2.967 2.967 0 0 1-2.032-.105 2.894 2.894 0 0 1-1.468-1.384 2.816 2.816 0 0 1-.19-1.989l-4.413-3.25a2.966 2.966 0 0 1-3.132.47 2.902 2.902 0 0 1-1.253-1.056 2.826 2.826 0 0 1 0-3.11 2.9 2.9 0 0 1 1.253-1.057 2.966 2.966 0 0 1 3.132.47l4.414-3.25a2.816 2.816 0 0 1 .189-1.988C9.76 1 10.28.51 10.924.236a2.967 2.967 0 0 1 2.032-.105 2.91 2.91 0 0 1 1.607 1.225c.369.585.51 1.28.4 1.959a2.85 2.85 0 0 1-1.001 1.739 2.95 2.95 0 0 1-1.916.673 2.948 2.948 0 0 1-1.898-.721L5.734 8.255zm6.35-4.164c.332 0 .65-.13.884-.36a1.212 1.212 0 0 0 0-1.735 1.262 1.262 0 0 0-.884-.36c-.331 0-.65.13-.884.36a1.216 1.216 0 0 0 0 1.736c.235.23.553.36.884.36zm0 12.272c.332 0 .65-.13.884-.36a1.212 1.212 0 0 0 0-1.735 1.262 1.262 0 0 0-.884-.36c-.331 0-.65.13-.884.36a1.216 1.216 0 0 0 0 1.735c.235.23.553.36.884.36zm-9.167-6.136c.331 0 .65-.13.884-.36.234-.23.366-.542.366-.867 0-.326-.132-.638-.366-.868a1.262 1.262 0 0 0-.884-.36c-.332 0-.65.13-.884.36a1.216 1.216 0 0 0 0 1.736c.234.23.552.359.884.359z" fill="#828282"/></svg>