<svg width="52" height="52" viewBox="0 0 52 52" fill="none" xmlns="http://www.w3.org/2000/svg">
<path d="M51.1875 0H0.8125C0.363188 0 0 0.361846 0 0.807692V51.1923C0 51.6382 0.363188 52 0.8125 52H51.1875C51.6368 52 52 51.6382 52 51.1923V0.807692C52 0.361846 51.6368 0 51.1875 0ZM50.375 50.3846H1.625V8.07692H50.375V50.3846ZM50.375 6.46154H1.625V1.61538H50.375V6.46154Z" fill="#003FF7"/>
<path d="M6.5 3.23077H4.875V4.84615H6.5V3.23077Z" fill="#003FF7"/>
<path d="M9.75 3.23077H8.125V4.84615H9.75V3.23077Z" fill="#003FF7"/>
<path d="M13 3.23077H11.375V4.84615H13V3.23077Z" fill="#003FF7"/>
<path d="M47.125 3.23077H42.25V4.84615H47.125V3.23077Z" fill="#003FF7"/>
<path d="M40.4885 41.0517L35.6135 33.7825C35.3121 33.3326 34.5629 33.3326 34.2615 33.7825L29.3865 41.0517C29.2979 41.1842 29.25 41.3409 29.25 41.5V42.3077C29.25 42.7535 29.6132 43.1154 30.0625 43.1154H31.6875V46.3462C31.6875 46.792 32.0507 47.1538 32.5 47.1538H37.375C37.8243 47.1538 38.1875 46.792 38.1875 46.3462V43.1154H39.8125C40.2618 43.1154 40.625 42.7535 40.625 42.3077V41.5C40.625 41.3409 40.5771 41.1842 40.4885 41.0517ZM37.375 41.5C36.9257 41.5 36.5625 41.8618 36.5625 42.3077V45.5385H33.3125V42.3077C33.3125 41.8618 32.9493 41.5 32.5 41.5H31.0391L34.9375 35.687L38.8359 41.5H37.375Z" fill="#003FF7"/>
<path d="M45.5 11.3077H6.5C5.60381 11.3077 4.875 12.0322 4.875 12.9231V37.4615C4.875 38.3524 5.60381 39.0769 6.5 39.0769H29.25V37.4615H6.5V12.9231H45.5V37.4615H40.625V39.0769H45.5C46.3962 39.0769 47.125 38.3524 47.125 37.4615V12.9231C47.125 12.0322 46.3962 11.3077 45.5 11.3077Z" fill="#003FF7"/>
<path d="M6.5 40.6923H4.875V42.3077H6.5V40.6923Z" fill="#003FF7"/>
<path d="M6.5 43.9231H4.875V45.5385H6.5V43.9231Z" fill="#003FF7"/>
<path d="M21.125 40.6923H8.125V42.3077H21.125V40.6923Z" fill="#003FF7"/>
<path d="M9.75 43.9231H8.125V45.5385H9.75V43.9231Z" fill="#003FF7"/>
<path d="M27.625 43.9231H11.375V45.5385H27.625V43.9231Z" fill="#003FF7"/>
<path d="M24.375 40.6923H22.75V42.3077H24.375V40.6923Z" fill="#003FF7"/>
<path d="M27.625 40.6923H26V42.3077H27.625V40.6923Z" fill="#003FF7"/>
<path d="M39 14.5385H34.125V16.1538H39V14.5385Z" fill="#003FF7"/>
<path d="M43.875 14.5385H40.625V16.1538H43.875V14.5385Z" fill="#003FF7"/>
</svg>
