<svg width="52" height="52" viewBox="0 0 52 52" fill="none" xmlns="http://www.w3.org/2000/svg">
<path d="M43.3333 9.18147V4.33333C43.3303 1.94133 41.392 0.00303333 39 0H4.33333C1.94133 0.00303333 0.00303333 1.94133 0 4.33333V23.4C0.00671668 25.6133 1.68437 27.4642 3.88613 27.6887L7.14393 36.1454C8.00453 38.3784 10.5122 39.4907 12.7454 38.6312L33.0893 30.7944C31.6836 34.4663 32.0836 38.5853 34.1688 41.9183L34.6667 42.7145V51.1333C34.6667 51.6122 35.0545 52 35.5333 52H51.1333C51.6122 52 52 51.6122 52 51.1333V22.5257C51.9918 19.5286 50.7986 16.6569 48.6796 14.5372L43.3333 9.18147ZM43.3333 14.3646L45.9637 21.1926C46.4791 22.5329 45.8111 24.0368 44.4711 24.5527L42.9676 25.1333C43.2077 24.5869 43.332 23.9963 43.3333 23.4V14.3646ZM1.73333 23.4V4.33333C1.73333 2.8977 2.8977 1.73333 4.33333 1.73333H39C40.4356 1.73333 41.6 2.8977 41.6 4.33333V9.84187H41.5924L41.6 9.86158V23.4C41.5933 23.5512 41.5736 23.7012 41.5411 23.8489L33.6024 15.9094C31.8179 14.1661 28.9731 14.1527 27.1726 15.8778C25.3717 17.604 25.2635 20.4466 26.9291 22.3034L30.3134 26H4.33333C2.8977 26 1.73333 24.8356 1.73333 23.4ZM12.8362 27.7333L6.67333 30.1061L5.7616 27.7333H12.8362ZM12.1221 37.0134C10.7822 37.5299 9.27745 36.8619 8.76113 35.5221L7.29907 31.72L17.6445 27.7333V27.7281H31.902L33.0285 28.9562L12.1221 37.0134ZM50.2667 50.2667H36.4V43.3333H50.2667V50.2667ZM50.2667 41.6H36.0143L35.6384 40.9994C33.5253 37.6224 33.4412 33.3571 35.4189 29.9C35.6061 29.5728 35.5602 29.162 35.3054 28.8843L28.2033 21.1363C27.1442 19.9771 27.2038 18.1851 28.3376 17.0993C29.4719 16.0134 31.2648 16.0312 32.3767 17.1388L46.1873 30.9461L47.4127 29.7206L44.2061 26.5139L45.0953 26.1673C47.3265 25.3064 48.4384 22.8009 47.58 20.5684L44.6465 12.9513L47.4541 15.7647C49.2481 17.5582 50.2597 19.9888 50.2667 22.5257V41.6Z" fill="#003FF7"/>
<path d="M9.88 12.1333C11.1245 12.1333 12.1333 11.1245 12.1333 9.88V5.72C12.1333 4.47547 11.1245 3.46667 9.88 3.46667H5.72C4.47547 3.46667 3.46667 4.47547 3.46667 5.72V9.88C3.46667 11.1245 4.47547 12.1333 5.72 12.1333H9.88ZM5.2 9.88V8.66667H6.93333V6.93333H5.2V5.72C5.2 5.43292 5.43292 5.2 5.72 5.2H9.88C10.1671 5.2 10.4 5.43292 10.4 5.72V6.93333H8.66667V8.66667H10.4V9.88C10.4 10.1671 10.1671 10.4 9.88 10.4H5.72C5.43292 10.4 5.2 10.1671 5.2 9.88Z" fill="#003FF7"/>
<path d="M4.33333 14.7333H7.8V16.4667H4.33333V14.7333Z" fill="#003FF7"/>
<path d="M4.33333 19.9333H7.8V21.6667H4.33333V19.9333Z" fill="#003FF7"/>
<path d="M19.9333 19.9333H23.4V21.6667H19.9333V19.9333Z" fill="#003FF7"/>
<path d="M9.53333 14.7333H13V16.4667H9.53333V14.7333Z" fill="#003FF7"/>
<path d="M14.7333 14.7333H18.2V16.4667H14.7333V14.7333Z" fill="#003FF7"/>
<path d="M19.9333 14.7333H23.4V16.4667H19.9333V14.7333Z" fill="#003FF7"/>
<path d="M36.4 4.33333H38.1333V6.93333H36.4V4.33333Z" fill="#003FF7"/>
<path d="M32.9333 4.33333H34.6667V6.93333H32.9333V4.33333Z" fill="#003FF7"/>
<path d="M29.4667 4.33333H31.2V6.93333H29.4667V4.33333Z" fill="#003FF7"/>
<path d="M26 4.33333H27.7333V6.93333H26V4.33333Z" fill="#003FF7"/>
<path d="M38.1333 45.0667H39.8667V46.8H38.1333V45.0667Z" fill="#003FF7"/>
</svg>
