<svg width="52" height="52" viewBox="0 0 52 52" fill="none" xmlns="http://www.w3.org/2000/svg">
<path d="M51.3648 22.5694L48.2319 21.6898C48.0313 20.6431 47.7564 19.6121 47.4093 18.6045L49.6762 16.2831C49.9258 16.0271 49.9935 15.6446 49.8472 15.3184C49.1147 13.6854 48.2165 12.1318 47.1667 10.6824C46.9578 10.3919 46.5918 10.2597 46.2454 10.3498L43.1032 11.1545C42.4046 10.3504 41.6505 9.5964 40.8465 8.89781L41.6512 5.75555C41.7397 5.40931 41.6079 5.04411 41.3186 4.83429C39.8691 3.78412 38.3157 2.88562 36.6826 2.15305C36.3566 2.0053 35.9733 2.07324 35.718 2.324L33.3966 4.59094C32.3887 4.24393 31.3573 3.969 30.3104 3.76833L29.4307 0.635441C29.3252 0.259577 28.9825 -0.000108849 28.592 3.42269e-08H23.4082C23.0177 -0.000108849 22.675 0.259577 22.5695 0.635441L21.6899 3.76833C20.6432 3.96889 19.6122 4.24382 18.6046 4.59094L16.2832 2.324C16.0278 2.07335 15.6446 2.00541 15.3186 2.15305C13.6855 2.8854 12.132 3.78357 10.6825 4.83342C10.3932 5.04324 10.2613 5.40843 10.3499 5.75468L11.1546 8.89694C10.3505 9.59553 9.5964 10.3497 8.89781 11.1538L5.75555 10.349C5.4092 10.2582 5.04281 10.3905 4.83429 10.6816C3.78412 12.1311 2.88562 13.6845 2.15305 15.3177C2.00671 15.6439 2.07455 16.0263 2.324 16.2823L4.59094 18.6036C4.24393 19.6116 3.96911 20.6429 3.76833 21.6898L0.635441 22.5694C0.259577 22.6749 -0.000108849 23.0176 3.4227e-08 23.4081V28.5911C-0.000108849 28.9816 0.259577 29.3244 0.635441 29.4299L3.76833 30.3094C3.96889 31.3563 4.24382 32.3877 4.59094 33.3956L2.324 35.717C2.07455 35.973 2.00671 36.3555 2.15305 36.6816C2.8854 38.3147 3.78357 39.8682 4.83342 41.3176C5.04291 41.6073 5.40843 41.7393 5.75468 41.6502L8.89694 40.8455C9.59553 41.6496 10.3497 42.4037 11.1538 43.1023L10.349 46.2446C10.2605 46.5908 10.3923 46.956 10.6816 47.1658C12.1311 48.216 13.6845 49.1145 15.3177 49.8471C15.6439 49.993 16.026 49.9252 16.2822 49.6761L18.6036 47.4092C19.6116 47.7562 20.6429 48.031 21.6898 48.2318L22.5694 51.3647C22.6749 51.7405 23.0177 52.0002 23.4081 52.0001H28.5911C28.9816 52.0002 29.3244 51.7405 29.4299 51.3647L30.3094 48.2325C31.3563 48.0313 32.3877 47.7562 33.3956 47.4092L35.717 49.6761C35.973 49.9256 36.3555 49.9934 36.6816 49.8471C38.3146 49.1146 39.8681 48.2164 41.3176 47.1666C41.6069 46.9568 41.7388 46.5916 41.6502 46.2453L40.8455 43.1031C41.6496 42.4045 42.4036 41.6504 43.1022 40.8464L46.2444 41.6511C46.5907 41.7402 46.9562 41.6082 47.1657 41.3185C48.216 39.869 49.1144 38.3155 49.8469 36.6823C49.9933 36.3561 49.9255 35.9737 49.676 35.7178L47.4091 33.3964C47.7561 32.3884 48.0309 31.3571 48.2317 30.3102L51.3646 29.4306C51.7404 29.3251 52.0001 28.9824 52 28.5919V23.4081C52.0003 23.0177 51.7406 22.6749 51.3648 22.5694ZM50.258 27.9319L47.2356 28.7808C46.9106 28.872 46.6676 29.1429 46.612 29.4758C46.3942 30.7837 46.0517 32.0678 45.5895 33.3106C45.4712 33.6263 45.5461 33.9822 45.7818 34.2233L48.0097 36.5048C47.4589 37.6563 46.819 38.7629 46.0957 39.8146L43.0062 39.0234C42.6793 38.9384 42.3329 39.0513 42.119 39.3126C41.274 40.3346 40.3342 41.2743 39.3119 42.1189C39.0519 42.334 38.9392 42.6799 39.0227 43.0069L39.8138 46.0965C38.7623 46.8199 37.6556 47.4595 36.504 48.0096L34.2225 45.7818C33.9816 45.5454 33.6255 45.4704 33.3097 45.5895C32.0669 46.0517 30.7828 46.3944 29.4749 46.6128C29.1421 46.6687 28.8714 46.9115 28.7799 47.2364L27.931 50.2579H24.0683L23.2193 47.2355C23.1282 46.9105 22.8573 46.6675 22.5243 46.6119C21.2164 46.3941 19.9323 46.0516 18.6895 45.5894C18.3739 45.4701 18.0175 45.5451 17.7768 45.7817L15.4954 48.0096C14.3439 47.4588 13.2372 46.8189 12.1855 46.0956L12.9767 43.0061C13.0603 42.6793 12.9476 42.3336 12.6875 42.1189C11.6655 41.2739 10.7258 40.3341 9.88124 39.3118C9.66587 39.052 9.32016 38.9394 8.99319 39.0226L5.90363 39.8137C5.18054 38.762 4.54086 37.6553 3.99056 36.5039L6.21831 34.2224C6.45393 33.9811 6.52884 33.6253 6.41059 33.3096C5.94817 32.0669 5.60584 30.7828 5.38807 29.4748C5.33254 29.1419 5.08952 28.8711 4.7645 28.7798L1.74213 27.931V24.0681L4.7645 23.2192C5.08952 23.128 5.33254 22.8571 5.38807 22.5242C5.60595 21.2163 5.94839 19.9322 6.41059 18.6894C6.52895 18.3737 6.45404 18.0178 6.21831 17.7767L3.99045 15.4952C4.54118 14.3437 5.18109 13.2371 5.9044 12.1854L8.99395 12.9766C9.32071 13.0603 9.66652 12.9476 9.88113 12.6874C10.7261 11.6654 11.6659 10.7257 12.6882 9.88113C12.9483 9.66598 13.0609 9.32006 12.9774 8.99308L12.1863 5.90353C13.238 5.18043 14.3447 4.54075 15.4962 3.99045L17.7776 6.2182C18.0184 6.45469 18.3747 6.52971 18.6904 6.41048C19.933 5.94849 21.2167 5.60606 22.5243 5.38797C22.8573 5.33243 23.128 5.08941 23.2193 4.76439L24.0683 1.74213H27.9319L28.7808 4.7645C28.872 5.08952 29.1429 5.33254 29.4758 5.38807C30.7837 5.60595 32.0678 5.94839 33.3106 6.41059C33.6262 6.52993 33.9826 6.45491 34.2233 6.21831L36.5048 3.99045C37.6563 4.54118 38.7629 5.18109 39.8146 5.9044L39.0234 8.99395C38.9398 9.32071 39.0525 9.66641 39.3126 9.88113C40.3346 10.7261 41.2743 11.6659 42.1189 12.6882C42.3334 12.9492 42.6798 13.062 43.0069 12.9774L46.0965 12.1863C46.8199 13.2378 47.4595 14.3445 48.0095 15.4961L45.7818 17.7776C45.5462 18.0189 45.4713 18.3747 45.5895 18.6904C46.0515 19.933 46.3939 21.2167 46.612 22.5243C46.6676 22.8573 46.9106 23.128 47.2356 23.2193L50.258 24.0683V27.9319Z" fill="#003FF7"/>
<path d="M26.0001 8.57878C16.3785 8.57878 8.57878 16.3785 8.57878 26.0001C8.58945 35.6171 16.383 43.4107 26.0001 43.4213C35.6216 43.4213 43.4213 35.6216 43.4213 26.0001C43.4213 16.3785 35.6216 8.57878 26.0001 8.57878ZM37.6681 36.4364L35.8548 34.6231L34.623 35.8549L36.4363 37.6682C33.7929 40.0416 30.4183 41.4411 26.871 41.6352V39.0661H25.1289V41.6352C21.5817 41.4412 18.2071 40.0416 15.5636 37.6682L17.3769 35.8549L16.1451 34.6231L14.3318 36.4364C11.9584 33.793 10.5588 30.4184 10.3648 26.8711H12.9339V25.129H10.365C10.559 21.5818 11.9586 18.2072 14.332 15.5637L16.1453 17.377L17.3771 16.1452L15.5638 14.3319C18.2072 11.9585 21.5818 10.559 25.1291 10.3649V12.934H26.8712V10.365C30.4184 10.559 33.793 11.9586 36.4365 14.332L34.6233 16.1453L35.8551 17.3771L37.6683 15.5638C40.0417 18.2072 41.4413 21.5818 41.6353 25.1291H39.0662V26.8712H41.6353C41.4411 30.4183 40.0415 33.7929 37.6681 36.4364Z" fill="#003FF7"/>
<path d="M33.4515 18.3068C33.1589 18.1119 32.7779 18.1119 32.4855 18.3068L26.1635 22.5218C26.109 22.5184 26.0555 22.5158 26.0002 22.5158C24.0759 22.5158 22.5159 24.0758 22.5159 26.0001C22.5159 27.9243 24.0759 29.4843 26.0002 29.4843C27.9237 29.4824 29.4825 27.9236 29.4844 26.0001C29.4844 25.9456 29.4819 25.8912 29.4784 25.8376L33.6934 19.5148C33.9601 19.1144 33.8518 18.5736 33.4515 18.3068ZM27.8502 25.1384C27.7311 25.3252 27.6834 25.5486 27.7158 25.7678C27.7306 25.8445 27.7395 25.9221 27.7422 26.0001C27.7422 26.9623 26.9623 27.7422 26.0001 27.7422C25.0379 27.7422 24.2579 26.9623 24.2579 26.0001C24.2579 25.0379 25.0379 24.2579 26.0001 24.2579C26.0838 24.2612 26.1671 24.2709 26.2493 24.2869C26.4634 24.3181 26.6814 24.2694 26.8618 24.1499L29.8271 22.173L27.8502 25.1384Z" fill="#003FF7"/>
</svg>
