<svg width="52" height="52" viewBox="0 0 52 52" fill="none" xmlns="http://www.w3.org/2000/svg">
<path d="M13.8667 20.1033H12.1334V21.8275H13.8667V20.1033Z" fill="#003FF7"/>
<path d="M22.5334 20.1033H20.8001V21.8275H22.5334V20.1033Z" fill="#003FF7"/>
<path d="M51.2564 29.5947L47.8704 29.1137C47.7093 28.6427 47.5192 28.182 47.301 27.7344L49.3498 25.0171C49.4749 24.8511 49.5357 24.6458 49.5209 24.4388C49.506 24.2318 49.4167 24.0371 49.2692 23.8904L45.5919 20.2326C45.4506 20.0931 45.265 20.0068 45.0667 19.9887V11.6903C45.8776 11.0446 46.5322 10.2258 46.9823 9.29457C47.4323 8.36333 47.6662 7.3434 47.6667 6.31015C47.6747 5.00366 47.3054 3.72236 46.6029 2.61844C45.9003 1.51451 44.894 0.634368 43.7034 0.0825422C43.5714 0.0205047 43.4257 -0.00732316 43.2799 0.00164359C43.1341 0.0106103 42.993 0.0560808 42.8696 0.133831C42.7462 0.211582 42.6446 0.31909 42.5741 0.446369C42.5037 0.573648 42.4668 0.716569 42.4667 0.861856V5.68946L40.7334 6.26446L39 5.68946V0.861856C38.9994 0.716861 38.9621 0.574364 38.8914 0.44755C38.8207 0.320736 38.719 0.213703 38.5957 0.136353C38.4724 0.0590041 38.3315 0.0138383 38.186 0.0050351C38.0405 -0.00376804 37.8951 0.0240759 37.7633 0.0859905C36.5733 0.637571 35.5673 1.51718 34.8648 2.62043C34.1623 3.72368 33.7928 5.00425 33.8 6.31015C33.8006 7.3434 34.0345 8.36333 34.4845 9.29457C34.9345 10.2258 35.5892 11.0446 36.4001 11.6903V17.5171H33.8C33.5915 17.5171 33.3899 17.5918 33.2323 17.7277C33.0747 17.8636 32.9717 18.0514 32.942 18.2568L32.3813 22.1611L34.0973 22.405L34.5514 19.2412H38.2486L38.7028 22.405C38.7264 22.569 38.797 22.7226 38.9062 22.8477C39.0153 22.9727 39.1583 23.0639 39.3181 23.1102C40.0405 23.3178 40.7379 23.6031 41.3981 23.9611C41.5442 24.0408 41.7102 24.0769 41.8764 24.0651C42.0425 24.0533 42.2018 23.9942 42.335 23.8947L44.9012 21.9809L47.515 24.5809L45.5867 27.1335C45.4867 27.266 45.4273 27.4244 45.4154 27.5897C45.4036 27.755 45.4399 27.9201 45.52 28.0654C45.8798 28.7221 46.1667 29.4159 46.3754 30.1344C46.422 30.2934 46.5136 30.4356 46.6393 30.5442C46.765 30.6527 46.9195 30.7229 47.0843 30.7465L50.265 31.1982V34.8758L47.0843 35.3275C46.9195 35.351 46.765 35.4213 46.6393 35.5298C46.5136 35.6384 46.422 35.7806 46.3754 35.9396C46.1667 36.6581 45.8798 37.3519 45.52 38.0086C45.4399 38.1538 45.4036 38.319 45.4154 38.4843C45.4273 38.6496 45.4867 38.8079 45.5867 38.9405L47.5107 41.4931L44.8969 44.0931L42.3324 42.1724C42.1992 42.0729 42.0399 42.0138 41.8738 42.002C41.7076 41.9902 41.5416 42.0263 41.3955 42.106C40.7353 42.4639 40.0379 42.7493 39.3155 42.9569C39.1557 43.0032 39.0127 43.0943 38.9036 43.2194C38.7944 43.3445 38.7238 43.4981 38.7002 43.662L38.2486 46.8276H34.6667V43.1819C34.6661 42.2711 34.5348 41.3651 34.2767 40.4913C35.9275 40.972 37.6909 40.9034 39.2989 40.2958C40.9068 39.6882 42.2713 38.5749 43.1848 37.1252C44.0983 35.6755 44.5109 33.9687 44.3598 32.2644C44.2087 30.5601 43.5023 28.9514 42.3478 27.6831C41.1933 26.4148 39.654 25.5562 37.964 25.2379C36.274 24.9195 34.5257 25.1589 32.985 25.9195C31.4443 26.6801 30.1954 27.9204 29.4283 29.4518C28.6612 30.9832 28.4179 32.7218 28.7352 34.4034C28.7144 34.3948 28.6945 34.3844 28.6737 34.3767L21.6667 31.5887V30.2637C22.8248 29.6744 23.8506 28.8573 24.6819 27.862H26.8667C27.5563 27.862 28.2176 27.5895 28.7052 27.1045C29.1928 26.6195 29.4667 25.9617 29.4667 25.2758V23.393C29.9719 23.2153 30.4096 22.8867 30.7198 22.4522C31.0301 22.0177 31.1978 21.4984 31.2001 20.9654V18.3792C31.1978 17.8462 31.0301 17.3269 30.7198 16.8924C30.4096 16.4578 29.9719 16.1292 29.4667 15.9516V14.9309C29.4667 11.73 28.1884 8.66018 25.9129 6.3968C23.6375 4.13342 20.5513 2.86186 17.3334 2.86186C14.1154 2.86186 11.0293 4.13342 8.75382 6.3968C6.47838 8.66018 5.20005 11.73 5.20005 14.9309V15.9516C4.69486 16.1292 4.25719 16.4578 3.94693 16.8924C3.63666 17.3269 3.46894 17.8462 3.46672 18.3792V20.9654C3.46672 21.6513 3.74064 22.3091 4.22824 22.7941C4.71583 23.2791 5.37715 23.5516 6.06672 23.5516H7.80005C7.85552 23.5516 7.90925 23.543 7.96385 23.5395C8.23032 24.9689 8.82291 26.3183 9.69601 27.484C10.5691 28.6498 11.6995 29.6007 13 30.2637V31.5887L5.99305 34.3767C4.22035 35.0755 2.70042 36.2893 1.63142 37.8599C0.562411 39.4306 -0.00608181 41.2851 4.90709e-05 43.1819V51.1379C4.90709e-05 51.3666 0.0913583 51.5858 0.25389 51.7475C0.416421 51.9092 0.636861 52 0.866716 52H33.8C34.0299 52 34.2503 51.9092 34.4129 51.7475C34.5754 51.5858 34.6667 51.3666 34.6667 51.1379V48.5517H39C39.2086 48.5517 39.4102 48.477 39.5678 48.3411C39.7254 48.2052 39.8284 48.0174 39.8581 47.812L40.3417 44.4439C40.8152 44.2838 41.2783 44.0946 41.7283 43.8776L44.46 45.9155C44.6269 46.04 44.8334 46.1004 45.0415 46.0857C45.2495 46.0709 45.4453 45.982 45.5928 45.8353L49.2701 42.1775C49.4176 42.0308 49.5069 41.8361 49.5217 41.6291C49.5365 41.4222 49.4758 41.2168 49.3507 41.0508L47.3018 38.3336C47.52 37.8859 47.7102 37.4253 47.8713 36.9543L51.2573 36.4732C51.4635 36.4436 51.652 36.3411 51.7884 36.1845C51.9248 36.028 51.9999 35.8278 52 35.6206V30.4482C52.0001 30.2407 51.9249 30.0402 51.7883 29.8835C51.6517 29.7267 51.4629 29.6242 51.2564 29.5947ZM41.7231 22.1913C41.6824 22.1714 41.6364 22.1585 41.5957 22.1395V11.4826H39.8667V18.3188L39.8581 18.2568C39.8284 18.0514 39.7254 17.8636 39.5678 17.7277C39.4102 17.5918 39.2086 17.5171 39 17.5171H38.1334V11.2585C38.1334 11.1194 38.0996 10.9824 38.0348 10.8592C37.9701 10.7359 37.8763 10.6301 37.7616 10.5507C37.1173 10.1045 36.583 9.51909 36.1986 8.83825C35.8143 8.1574 35.5899 7.39883 35.5423 6.61943C35.4947 5.84002 35.6251 5.06 35.9237 4.33788C36.2224 3.61575 36.6815 2.97025 37.2667 2.44979V6.31015C37.2667 6.49116 37.3239 6.66759 37.4303 6.81442C37.5367 6.96126 37.6869 7.07106 37.8595 7.12826L40.4595 7.99033C40.6373 8.04923 40.8295 8.04923 41.0073 7.99033L43.6073 7.12826C43.7799 7.07106 43.9301 6.96126 44.0365 6.81442C44.1429 6.66759 44.2001 6.49116 44.2001 6.31015V2.44979C44.7857 2.97024 45.2453 3.61589 45.5442 4.33828C45.8432 5.06066 45.9738 5.84102 45.9261 6.62078C45.8785 7.40054 45.6539 8.15944 45.2693 8.84052C44.8846 9.5216 44.3499 10.1072 43.7052 10.5533C43.5908 10.6324 43.4973 10.7378 43.4325 10.8606C43.3678 10.9834 43.3338 11.1198 43.3334 11.2585V20.9938L41.7231 22.1913ZM30.3334 33.0344C30.3238 31.6865 30.7651 30.3736 31.5877 29.3024C32.4103 28.2312 33.5676 27.4624 34.8775 27.1169C36.1874 26.7715 37.5756 26.8691 38.8237 27.3942C40.0717 27.9194 41.1089 28.8424 41.7719 30.018C42.435 31.1936 42.6863 32.5551 42.4864 33.8883C42.2864 35.2215 41.6466 36.4508 40.6675 37.3827C39.6883 38.3147 38.4255 38.8964 37.0777 39.0364C35.7299 39.1763 34.3735 38.8666 33.222 38.156C32.6229 37.2013 31.8564 36.3613 30.9591 35.6758C30.5468 34.8557 30.3325 33.9513 30.3334 33.0344ZM26.8667 26.1378H25.8146C26.2369 25.3196 26.5362 24.4442 26.7029 23.5395C26.7575 23.5395 26.8113 23.5516 26.8667 23.5516H27.7334V25.2758C27.7334 25.5044 27.6421 25.7237 27.4795 25.8853C27.317 26.047 27.0966 26.1378 26.8667 26.1378ZM25.1334 16.655C24.7299 16.654 24.3322 16.5601 23.9713 16.3806C23.6104 16.2012 23.2963 15.941 23.0534 15.6205L21.4934 13.5516C21.4237 13.4592 21.3361 13.3817 21.2358 13.3236C21.1354 13.2656 21.0244 13.2282 20.9093 13.2136C20.7941 13.1996 20.6772 13.2084 20.5655 13.2396C20.4537 13.2709 20.3494 13.3238 20.2584 13.3955L17.3498 15.7067C16.5824 16.3176 15.6296 16.6519 14.6467 16.655H9.53338V15.793C9.53338 13.7352 10.3552 11.7618 11.8179 10.3068C13.2807 8.85173 15.2647 8.0343 17.3334 8.0343C19.4021 8.0343 21.386 8.85173 22.8488 10.3068C24.3116 11.7618 25.1334 13.7352 25.1334 15.793V16.655ZM29.4667 20.9654C29.4667 21.194 29.3754 21.4133 29.2129 21.575C29.0503 21.7366 28.8299 21.8275 28.6 21.8275H26.8667V17.5171H28.6C28.8299 17.5171 29.0503 17.6079 29.2129 17.7696C29.3754 17.9313 29.4667 18.1505 29.4667 18.3792V20.9654ZM17.3334 4.58601C20.0907 4.58898 22.7343 5.67983 24.684 7.61923C26.6337 9.55863 27.7304 12.1882 27.7334 14.9309V15.793H26.8667C26.8667 13.278 25.8623 10.866 24.0745 9.0876C22.2866 7.30923 19.8618 6.31015 17.3334 6.31015C14.805 6.31015 12.3801 7.30923 10.5923 9.0876C8.80445 10.866 7.80005 13.278 7.80005 15.793H6.93338V14.9309C6.93636 12.1882 8.03303 9.55863 9.98277 7.61923C11.9325 5.67983 14.576 4.58898 17.3334 4.58601ZM6.06672 21.8275C5.83686 21.8275 5.61642 21.7366 5.45389 21.575C5.29136 21.4133 5.20005 21.194 5.20005 20.9654V18.3792C5.20005 18.1505 5.29136 17.9313 5.45389 17.7696C5.61642 17.6079 5.83686 17.5171 6.06672 17.5171H7.80005V21.8275H6.06672ZM9.53338 21.8275V18.3792H14.6467C16.0238 18.3773 17.3595 17.9112 18.4358 17.0568L20.6467 15.2973L21.6667 16.655C22.0715 17.1891 22.5951 17.6227 23.1966 17.9219C23.798 18.221 24.461 18.3775 25.1334 18.3792V21.8275C25.1348 23.3628 24.6755 24.8637 23.8143 26.1378H17.3334V27.862H22.2248C21.0803 28.7825 19.6971 29.3617 18.2353 29.5326C16.7735 29.7036 15.293 29.4592 13.965 28.8278C12.6371 28.1964 11.5161 27.2038 10.7318 25.9649C9.9475 24.726 9.532 23.2915 9.53338 21.8275ZM17.3334 31.3103C18.213 31.3081 19.088 31.1845 19.9334 30.943V32.1723C19.9334 32.8582 19.6595 33.5161 19.1719 34.0011C18.6843 34.4861 18.0229 34.7585 17.3334 34.7585C16.6438 34.7585 15.9825 34.4861 15.4949 34.0011C15.0073 33.5161 14.7334 32.8582 14.7334 32.1723V30.943C15.5788 31.1845 16.4538 31.3081 17.3334 31.3103ZM32.9334 50.2759H27.7334V40.7931H26V50.2759H8.66672V40.7931H6.93338V50.2759H1.73338V43.1819C1.72834 41.63 2.19348 40.1125 3.06817 38.8274C3.94286 37.5424 5.18651 36.5492 6.63698 35.9775L13.1916 33.3698C13.4475 34.2661 13.9904 35.0551 14.7379 35.6168C15.4853 36.1785 16.3966 36.4825 17.3334 36.4825C18.2702 36.4825 19.1814 36.1785 19.9289 35.6168C20.6764 35.0551 21.2192 34.2661 21.4752 33.3698L28.0298 35.9775C29.4803 36.5492 30.7239 37.5424 31.5986 38.8274C32.4733 40.1125 32.9384 41.63 32.9334 43.1819V50.2759Z" fill="#003FF7"/>
<path d="M37.2667 20.9654H35.5334V22.6895H37.2667V20.9654Z" fill="#003FF7"/>
<path d="M37.2667 43.3793H35.5334V45.1034H37.2667V43.3793Z" fill="#003FF7"/>
<path d="M44.366 39.7399L43.1403 40.9591L44.366 42.1782L45.5916 40.9591L44.366 39.7399Z" fill="#003FF7"/>
<path d="M48.5334 32.1723H46.8V33.8965H48.5334V32.1723Z" fill="#003FF7"/>
<path d="M44.3664 23.8912L43.1408 25.1103L44.3664 26.3295L45.5921 25.1103L44.3664 23.8912Z" fill="#003FF7"/>
</svg>
