<svg width="19" height="13" fill="none" xmlns="http://www.w3.org/2000/svg"><path d="M.08 6.864a.87.87 0 0 1 0-.728C1.79 2.422 5.43 0 9.5 0s7.71 2.422 9.42 6.136a.869.869 0 0 1 0 .728C17.21 10.578 13.57 13 9.5 13S1.79 10.578.08 6.864zm9.42 4.403c3.25 0 6.18-1.864 7.675-4.767C15.68 3.597 12.751 1.733 9.5 1.733c-3.25 0-6.18 1.864-7.675 4.767C3.32 9.403 6.249 11.267 9.5 11.267zM9.555 2.6a.866.866 0 0 1 .835 1.04 1.298 1.298 0 0 0 1.753 1.467.863.863 0 0 1 1.17.636 3.9 3.9 0 0 1 .073.757c0 2.154-1.74 3.9-3.886 3.9a3.893 3.893 0 0 1-3.886-3.9c0-2.154 1.74-3.9 3.886-3.9h.055zM7.341 6.5c0 1.197.967 2.167 2.159 2.167a2.162 2.162 0 0 0 2.116-1.734A3.027 3.027 0 0 1 8.693 4.49 2.167 2.167 0 0 0 7.341 6.5z" fill="#C4C4C4"/></svg>