<svg width="129" height="27" viewBox="0 0 129 27" fill="none" xmlns="http://www.w3.org/2000/svg">
<path d="M10.985 17.6828C10.728 17.7925 10.457 17.8487 10.172 17.8487C9.89102 17.8491 9.61302 17.7947 9.35566 17.689C9.0983 17.5833 8.86719 17.4286 8.677 17.2347C8.481 17.0359 8.321 16.7922 8.201 16.5053C8.081 16.2175 8.021 15.8922 8.021 15.5266C8.021 15.1619 8.081 14.8357 8.201 14.5479C8.30936 14.2788 8.47084 14.0314 8.677 13.8185C8.96283 13.5261 9.33957 13.3255 9.75382 13.2451C10.1681 13.1646 10.5988 13.2085 10.985 13.3704C11.243 13.4814 11.4748 13.6395 11.667 13.8354C11.8735 14.0482 12.0353 14.2956 12.144 14.5647C12.264 14.8516 12.324 15.1732 12.324 15.5266C12.324 15.88 12.263 16.2006 12.143 16.4884C12.0346 16.7575 11.8732 17.0049 11.667 17.2178C11.4748 17.4137 11.243 17.5717 10.985 17.6828Z" fill="white"/>
<path d="M29.079 17.7156C29.3524 17.7148 29.6229 17.6623 29.8741 17.5611C30.1253 17.46 30.3522 17.3122 30.541 17.1269C30.738 16.9337 30.897 16.6956 31.017 16.4144C31.137 16.1322 31.197 15.8088 31.197 15.4431C31.197 15.0785 31.137 14.7522 31.017 14.4654C30.9101 14.1979 30.7484 13.9527 30.541 13.7435C30.3522 13.5581 30.1253 13.4104 29.8741 13.3092C29.6229 13.2081 29.3524 13.1555 29.079 13.1548C28.8071 13.1553 28.5382 13.2087 28.2893 13.3115C28.0405 13.4143 27.817 13.5642 27.633 13.7519C27.4281 13.9629 27.2667 14.2077 27.157 14.4738C27.037 14.755 26.977 15.0785 26.977 15.4431C26.977 15.8088 27.037 16.1322 27.157 16.4134C27.277 16.6956 27.437 16.9337 27.633 17.1269C27.8188 17.3118 28.0429 17.4594 28.2914 17.5606C28.54 17.6618 28.808 17.7145 29.079 17.7156Z" fill="white"/>
<path fill-rule="evenodd" clip-rule="evenodd" d="M52 0H0V26.2495H52V0ZM36.29 10.2861C36.104 10.2861 35.926 10.2504 35.756 10.1782C35.5885 10.1078 35.4378 10.0064 35.313 9.88013C35.0478 9.61214 34.9034 9.25844 34.91 8.89296C34.9032 8.52761 35.0472 8.17392 35.312 7.90579C35.439 7.77923 35.586 7.67986 35.756 7.60767C35.926 7.53548 36.104 7.49986 36.29 7.49986C36.673 7.49986 37.002 7.63486 37.276 7.90579C37.549 8.17766 37.686 8.50578 37.686 8.89296C37.686 9.28014 37.549 9.6092 37.276 9.88013C37.1517 10.0094 36.9995 10.1125 36.8296 10.1825C36.6596 10.2525 36.4757 10.2878 36.29 10.2861ZM21.424 18.5284H21.293C21.0494 18.9296 20.6981 19.2641 20.274 19.4987C19.847 19.7359 19.36 19.8549 18.812 19.8549C17.794 19.8549 17.036 19.5399 16.537 18.91C16.039 18.279 15.79 17.4391 15.79 16.3881V11.4635H17.942V16.1228C17.942 16.7097 18.071 17.1437 18.328 17.4259C18.585 17.7072 18.96 17.8478 19.453 17.8478C19.749 17.8478 20.009 17.785 20.233 17.6575C20.458 17.53 20.65 17.3594 20.808 17.1437C20.968 16.9281 21.088 16.6731 21.17 16.3806C21.2538 16.0744 21.2952 15.7593 21.293 15.4431V11.4635H23.445V19.5896H21.425L21.424 18.5284ZM35.222 19.5896H37.374V11.4635H35.222V19.5896ZM41.366 12.5248H41.497C41.7406 12.1236 42.0919 11.7891 42.516 11.5545C42.943 11.3173 43.43 11.1982 43.978 11.1982C44.481 11.1982 44.925 11.2807 45.308 11.4467C45.691 11.6126 46.006 11.8479 46.253 12.1516C46.499 12.4554 46.685 12.821 46.811 13.2466C46.937 13.6722 47 14.1447 47 14.6641V19.5896H44.848V14.9303C44.848 14.3435 44.719 13.9094 44.462 13.6272C44.205 13.346 43.83 13.2054 43.337 13.2054C43.0632 13.1999 42.7932 13.2658 42.557 13.3957C42.3284 13.5264 42.1323 13.7016 41.982 13.9094C41.823 14.125 41.702 14.3791 41.62 14.6725C41.5362 14.9788 41.4948 15.2939 41.497 15.61V19.5896H39.345V11.4635H41.365L41.366 12.5248ZM6 7.71548H8.152V11.2807L8.02 12.4423H8.152C8.349 12.0991 8.656 11.8057 9.072 11.5629C9.488 11.3192 10.002 11.1973 10.616 11.1973C11.13 11.1973 11.621 11.306 12.086 11.5217C12.551 11.7373 12.962 12.0354 13.318 12.417C13.674 12.7985 13.956 13.2541 14.164 13.7857C14.372 14.3163 14.476 14.8966 14.476 15.5266C14.476 16.1566 14.372 16.7369 14.164 17.2675C13.9744 17.7687 13.6876 18.2328 13.318 18.6362C12.9748 19.0083 12.556 19.3127 12.086 19.5315C11.621 19.7471 11.13 19.8549 10.616 19.8549C10.003 19.8549 9.488 19.7331 9.072 19.4893C8.656 19.2465 8.349 18.954 8.152 18.6109H8.02V19.5896H6V7.71548ZM27.477 23.213C27.921 23.3621 28.427 23.4371 28.997 23.4371C29.5904 23.4445 30.1793 23.3402 30.729 23.1305C31.249 22.9261 31.696 22.6327 32.069 22.2511C32.4558 21.8463 32.7517 21.3725 32.939 20.858C33.147 20.3106 33.251 19.6946 33.251 19.0093V11.4635H31.197V12.342H31.067C30.815 11.9885 30.483 11.7092 30.073 11.5048C29.662 11.3004 29.177 11.1973 28.619 11.1973C28.1331 11.1987 27.6536 11.3011 27.215 11.4973C26.76 11.696 26.357 11.9801 26.007 12.3504C25.6397 12.7472 25.3505 13.2021 25.153 13.6938C24.934 14.2188 24.825 14.8019 24.825 15.4431C24.825 16.0844 24.934 16.6656 25.153 17.185C25.352 17.6735 25.641 18.1254 26.007 18.52C26.3425 18.8797 26.7538 19.1705 27.215 19.374C27.669 19.5728 28.137 19.6721 28.619 19.6721C29.177 19.6721 29.663 19.5699 30.073 19.3656C30.4741 19.1692 30.8159 18.8813 31.067 18.5284H31.197V19.0918C31.197 19.8549 31.001 20.4493 30.607 20.8749C30.212 21.3005 29.676 21.5133 28.997 21.5133C28.57 21.5133 28.181 21.3943 27.831 21.1562C27.48 20.919 27.228 20.5843 27.075 20.1531L25.022 20.9827C25.1321 21.2916 25.2927 21.5825 25.498 21.8452C25.7289 22.1441 26.0056 22.4094 26.319 22.6327C26.6702 22.8818 27.061 23.0776 27.477 23.213Z" fill="white"/>
<path fill-rule="evenodd" clip-rule="evenodd" d="M57.08 11.9567H57.216C57.476 11.5779 57.826 11.2779 58.266 11.0576C58.706 10.8373 59.207 10.7276 59.771 10.7276C60.29 10.7276 60.747 10.8045 61.141 10.9582C61.536 11.111 61.861 11.3295 62.114 11.6107C62.368 11.892 62.56 12.2304 62.689 12.6251C62.819 13.0198 62.884 13.4576 62.884 13.9394V18.504H60.668V14.1841C60.668 13.6404 60.535 13.2391 60.27 12.9776C60.005 12.717 59.619 12.5857 59.111 12.5857C58.807 12.5857 58.539 12.6448 58.307 12.7629C58.076 12.8806 57.8742 13.0429 57.715 13.2391C57.5451 13.451 57.419 13.6907 57.343 13.946C57.259 14.2179 57.216 14.5066 57.216 14.8141V18.5031H55V10.9723H57.08V11.9567ZM72.561 16.6909C72.1837 17.2997 71.652 17.8117 71.013 18.1815C70.364 18.5603 69.573 18.7497 68.636 18.7497C68.0373 18.7552 67.4429 18.6534 66.885 18.4497C66.3653 18.2597 65.8909 17.9752 65.489 17.6125C65.0933 17.2525 64.7796 16.821 64.567 16.3441C64.347 15.8575 64.237 15.3222 64.237 14.7382C64.2318 13.6846 64.6694 12.6716 65.455 11.9182C65.8593 11.5349 66.3418 11.232 66.8737 11.0274C67.4056 10.8229 67.9761 10.7209 68.551 10.7276C69.217 10.7276 69.809 10.827 70.328 11.0276C70.847 11.2264 71.281 11.5029 71.631 11.8573C71.981 12.2107 72.245 12.6279 72.426 13.1098C72.606 13.5907 72.696 14.1129 72.696 14.6772V14.861C72.6853 14.9167 72.6796 14.9731 72.679 15.0297C72.6675 15.0856 72.6622 15.1425 72.663 15.1994H66.42C66.465 15.5069 66.558 15.7713 66.699 15.9906C66.9681 16.417 67.401 16.7307 67.909 16.8672C68.157 16.9328 68.41 16.9666 68.669 16.9666C69.177 16.9666 69.598 16.8616 69.93 16.6516C70.263 16.4416 70.525 16.1781 70.717 15.8603L72.561 16.69V16.6909ZM70.548 13.7707C70.537 13.6366 70.488 13.4885 70.404 13.3244C70.3115 13.1505 70.1853 12.9941 70.032 12.8632C69.8536 12.7112 69.6468 12.5913 69.422 12.5098C69.1441 12.412 68.8487 12.3652 68.552 12.372C68.078 12.372 67.66 12.4938 67.299 12.7404C66.939 12.986 66.685 13.3301 66.539 13.7707H70.548ZM76.198 11.9567H76.334C76.594 11.5779 76.943 11.2779 77.383 11.0576C77.823 10.8373 78.324 10.7276 78.888 10.7276C79.408 10.7276 79.864 10.8045 80.258 10.9582C80.654 11.111 80.978 11.3295 81.232 11.6107C81.485 11.892 81.677 12.2304 81.807 12.6251C81.937 13.0198 82.001 13.4576 82.001 13.9394V18.504H79.785V14.1841C79.785 13.6404 79.653 13.2391 79.388 12.9776C79.122 12.717 78.736 12.5857 78.228 12.5857C77.924 12.5857 77.656 12.6448 77.425 12.7629C77.194 12.8806 76.9922 13.0429 76.833 13.2391C76.6631 13.451 76.537 13.6907 76.461 13.946C76.376 14.2179 76.334 14.5066 76.334 14.8141V18.5031H74.118V10.9723H76.198V11.9567ZM87.551 7.49986H89.767V10.8045L89.631 11.8798H89.767C89.97 11.562 90.286 11.291 90.714 11.0651C91.143 10.8401 91.673 10.7276 92.304 10.7276C92.834 10.7276 93.339 10.827 93.819 11.0276C94.299 11.2264 94.721 11.5029 95.088 11.8573C95.454 12.2107 95.745 12.6326 95.958 13.1248C96.1767 13.6377 96.2861 14.1858 96.28 14.7382C96.2866 15.2908 96.1775 15.8392 95.959 16.3525C95.7588 16.8238 95.463 17.2542 95.088 17.62C94.721 17.9734 94.298 18.25 93.818 18.4497C93.339 18.6493 92.835 18.7497 92.305 18.7497C91.673 18.7497 91.143 18.6372 90.715 18.4122C90.285 18.1862 89.97 17.9153 89.767 17.5965H89.631V18.504H87.551V7.49986ZM91.848 16.8897C92.4228 16.8902 92.9752 16.6807 93.388 16.3056C93.59 16.1219 93.754 15.896 93.878 15.6306C94.002 15.3635 94.064 15.0663 94.064 14.7382C94.064 14.41 94.002 14.1138 93.878 13.8476C93.7636 13.594 93.5971 13.364 93.388 13.1707C92.9752 12.7957 92.4228 12.5862 91.848 12.5866C91.554 12.5866 91.275 12.6354 91.01 12.7329C90.745 12.8304 90.511 12.971 90.308 13.1548C90.0989 13.348 89.9324 13.578 89.818 13.8316C89.6893 14.1184 89.6257 14.4271 89.631 14.7382C89.631 15.0766 89.693 15.3785 89.818 15.6456C89.942 15.9119 90.105 16.1369 90.308 16.3206C90.511 16.5063 90.745 16.6469 91.01 16.7444C91.275 16.8409 91.554 16.8897 91.848 16.8897ZM102.811 17.7053H102.675C102.415 17.9912 102.103 18.2378 101.736 18.4422C101.37 18.6475 100.899 18.7497 100.324 18.7497C99.9118 18.7523 99.5023 18.6873 99.114 18.5575C98.7526 18.4384 98.4172 18.259 98.124 18.0278C97.8434 17.8041 97.6182 17.5258 97.464 17.2122C97.3042 16.8846 97.2236 16.528 97.228 16.1678C97.228 15.7788 97.312 15.4272 97.481 15.115C97.651 14.8028 97.888 14.5338 98.192 14.3088C98.5124 14.0754 98.8767 13.9005 99.266 13.7932C99.678 13.6751 100.126 13.6169 100.611 13.6169C101.153 13.6169 101.598 13.6544 101.948 13.7322C102.298 13.8091 102.585 13.8879 102.811 13.9704V13.7397C102.811 13.3404 102.636 13.0094 102.286 12.7479C101.936 12.4873 101.502 12.356 100.984 12.356C100.217 12.356 99.568 12.6485 99.038 13.2326L97.431 12.2332C98.311 11.2301 99.511 10.7276 101.034 10.7276C102.32 10.7276 103.301 11.0014 103.978 11.5498C104.655 12.0973 104.993 12.9091 104.993 13.9854V18.504H102.811V17.7053ZM102.811 15.446C102.552 15.3335 102.283 15.2434 102.007 15.1769C101.711 15.108 101.407 15.0743 101.102 15.0766C100.572 15.0766 100.163 15.1816 99.875 15.3916C99.588 15.6016 99.444 15.8603 99.444 16.1678C99.444 16.4753 99.582 16.7209 99.858 16.9056C100.135 17.0903 100.453 17.1822 100.814 17.1822C101.351 17.1869 101.87 16.9968 102.261 16.6516C102.434 16.4951 102.572 16.3077 102.666 16.1005C102.761 15.8932 102.81 15.6713 102.811 15.446ZM110.035 18.7497C109.546 18.7564 109.058 18.6942 108.588 18.565C108.197 18.4566 107.827 18.2935 107.488 18.0812C106.916 17.7152 106.472 17.1994 106.211 16.5981L108.191 15.8294C108.382 16.2194 108.639 16.5081 108.961 16.6975C109.281 16.8878 109.64 16.9825 110.035 16.9825C110.441 16.9825 110.762 16.9159 110.999 16.7828C111.236 16.6497 111.354 16.4903 111.354 16.3056C111.354 16.1013 111.256 15.9344 111.058 15.8069C110.861 15.6785 110.52 15.5631 110.035 15.46L108.867 15.2303C108.591 15.1741 108.322 15.0918 108.064 14.9847C107.793 14.8747 107.539 14.7295 107.311 14.5535C107.085 14.3781 106.895 14.1644 106.753 13.9235C106.602 13.6593 106.526 13.3628 106.533 13.0629C106.533 12.6945 106.62 12.3663 106.795 12.0795C106.97 11.7926 107.209 11.5498 107.514 11.3501C107.841 11.1403 108.205 10.9843 108.588 10.8889C109.021 10.7787 109.468 10.7245 109.916 10.7276C110.706 10.7276 111.411 10.8682 112.031 11.1495C112.651 11.4317 113.108 11.8807 113.401 12.4948L111.49 13.2016C111.346 12.9172 111.1 12.6887 110.796 12.5557C110.511 12.4267 110.199 12.3585 109.882 12.356C109.567 12.356 109.29 12.4151 109.053 12.5332C108.817 12.6513 108.698 12.8023 108.698 12.986C108.698 13.1604 108.797 13.2991 108.994 13.4013C109.192 13.5044 109.46 13.5963 109.798 13.6779L111.067 13.9544C111.913 14.1391 112.541 14.4335 112.953 14.8385C113.365 15.2435 113.571 15.7216 113.571 16.2756C113.571 16.6038 113.486 16.9159 113.317 17.2131C113.138 17.5207 112.893 17.7902 112.597 18.0044C112.263 18.2469 111.885 18.4317 111.481 18.55C111.013 18.6878 110.525 18.7552 110.035 18.7497ZM115.838 12.6945H114.383V10.9732H115.838V8.66703H118.054V10.9732H120.084V12.6945H118.054V15.6147C118.054 15.7891 118.074 15.9503 118.114 16.0985C118.153 16.2475 118.229 16.3722 118.342 16.4753C118.499 16.6394 118.725 16.7209 119.018 16.7209C119.21 16.7209 119.362 16.7022 119.475 16.6675C119.588 16.6309 119.695 16.5831 119.797 16.5213L120.422 18.2884C120.163 18.4009 119.884 18.4853 119.585 18.5415C119.259 18.6002 118.927 18.6285 118.595 18.6259C118.178 18.6259 117.803 18.5678 117.47 18.4497C117.158 18.3441 116.874 18.1794 116.633 17.9659C116.103 17.5047 115.838 16.8494 115.838 15.9991V12.6935V12.6945ZM126.818 17.7044H126.682C126.422 17.9912 126.11 18.2378 125.743 18.4422C125.377 18.6475 124.906 18.7497 124.331 18.7497C123.919 18.7523 123.509 18.6873 123.121 18.5575C122.76 18.4384 122.424 18.259 122.131 18.0278C121.85 17.8041 121.625 17.5258 121.471 17.2122C121.311 16.8846 121.231 16.528 121.235 16.1678C121.235 15.7788 121.319 15.4272 121.488 15.115C121.658 14.8028 121.894 14.5338 122.198 14.3088C122.519 14.0753 122.883 13.9004 123.273 13.7932C123.685 13.6751 124.133 13.6169 124.618 13.6169C125.16 13.6169 125.605 13.6544 125.955 13.7322C126.305 13.8091 126.592 13.8879 126.818 13.9704V13.7397C126.818 13.3404 126.643 13.0094 126.293 12.7479C125.943 12.4873 125.509 12.356 124.99 12.356C124.223 12.356 123.575 12.6485 123.045 13.2326L121.438 12.2332C122.318 11.2301 123.518 10.7276 125.041 10.7276C126.327 10.7276 127.308 11.0014 127.985 11.5498C128.662 12.0973 129 12.9091 129 13.9854V18.504H126.818V17.7044ZM126.818 15.445C126.559 15.3329 126.29 15.2431 126.014 15.1769C125.718 15.108 125.414 15.0743 125.109 15.0766C124.579 15.0766 124.169 15.1816 123.882 15.3916C123.595 15.6016 123.451 15.8603 123.451 16.1678C123.451 16.4753 123.589 16.7209 123.865 16.9056C124.142 17.0903 124.46 17.1822 124.821 17.1822C125.358 17.1869 125.877 16.9968 126.268 16.6516C126.441 16.4951 126.579 16.3077 126.673 16.1005C126.768 15.8932 126.817 15.6704 126.818 15.445Z" fill="white"/>
</svg>
