<svg width="129" height="27" fill="none" xmlns="http://www.w3.org/2000/svg"><path d="M10.985 17.683a2.05 2.05 0 0 1-.813.166c-.281 0-.559-.054-.816-.16a2.03 2.03 0 0 1-.679-.454 2.281 2.281 0 0 1-.476-.73 2.52 2.52 0 0 1-.18-.978c0-.365.06-.691.18-.98.108-.268.27-.516.476-.729a2.05 2.05 0 0 1 1.077-.573 2.15 2.15 0 0 1 1.231.125c.258.111.49.27.682.465.207.213.368.46.477.73.12.287.18.608.18.962 0 .353-.061.674-.181.961-.108.27-.27.517-.476.73a2.14 2.14 0 0 1-.682.465zm18.094.033c.273-.001.544-.054.795-.155a2.045 2.045 0 0 0 1.143-1.147c.12-.282.18-.605.18-.97 0-.366-.06-.692-.18-.979a2.17 2.17 0 0 0-.476-.722 2.038 2.038 0 0 0-.667-.434 2.08 2.08 0 0 0-1.585.002 1.973 1.973 0 0 0-.656.44 2.29 2.29 0 0 0-.476.723 2.45 2.45 0 0 0-.18.97c0 .365.06.688.18.97.12.282.28.52.476.713.186.185.41.332.658.434.249.1.517.154.788.155z" fill="#fff"/><path fill-rule="evenodd" clip-rule="evenodd" d="M52 0H0v26.25h52V0zM36.29 10.286a1.367 1.367 0 0 1-.977-.406 1.368 1.368 0 0 1-.403-.987 1.368 1.368 0 0 1 .846-1.285c.17-.073.348-.108.534-.108.383 0 .712.135.986.406.273.272.41.6.41.987s-.137.716-.41.987c-.124.13-.277.232-.446.302-.17.07-.354.106-.54.104zm-14.866 8.242h-.131a2.738 2.738 0 0 1-1.019.97 2.959 2.959 0 0 1-1.462.357c-1.018 0-1.776-.315-2.275-.945-.498-.631-.747-1.47-.747-2.522v-4.925h2.152v4.66c0 .587.129 1.02.386 1.303.257.281.632.422 1.125.422.296 0 .556-.063.78-.19a1.83 1.83 0 0 0 .575-.514c.16-.216.28-.47.362-.763.084-.307.125-.622.123-.938v-3.98h2.152v8.127h-2.02l-.001-1.062zm13.798 1.062h2.152v-8.127h-2.152v8.127zm6.144-7.065h.131a2.738 2.738 0 0 1 1.019-.97 2.959 2.959 0 0 1 1.462-.357c.503 0 .947.083 1.33.249.383.166.698.4.945.705.246.303.432.669.558 1.095.126.425.189.898.189 1.417v4.926h-2.152v-4.66c0-.586-.129-1.02-.386-1.303-.257-.281-.632-.422-1.125-.422a1.556 1.556 0 0 0-.78.19 1.834 1.834 0 0 0-.575.514c-.159.216-.28.47-.362.763a3.46 3.46 0 0 0-.123.938v3.98h-2.152v-8.127h2.02l.001 1.062zM6 7.715h2.152v3.566l-.132 1.161h.132c.197-.343.504-.636.92-.88.416-.243.93-.365 1.544-.365.514 0 1.005.109 1.47.325.465.215.876.513 1.232.895s.638.837.846 1.369c.208.53.312 1.11.312 1.74 0 .63-.104 1.21-.312 1.741-.19.502-.476.966-.846 1.37a3.93 3.93 0 0 1-1.232.895 3.457 3.457 0 0 1-1.47.323c-.613 0-1.128-.122-1.544-.366-.416-.242-.723-.535-.92-.878H8.02v.979H6V7.715zm21.477 15.498c.444.15.95.224 1.52.224a4.7 4.7 0 0 0 1.732-.306 3.79 3.79 0 0 0 1.34-.88c.387-.405.683-.879.87-1.393.208-.547.312-1.163.312-1.849v-7.546h-2.054v.879h-.13a2.648 2.648 0 0 0-.994-.837c-.411-.205-.896-.308-1.454-.308a3.466 3.466 0 0 0-1.404.3 3.67 3.67 0 0 0-1.208.853 4.386 4.386 0 0 0-.854 1.344 4.502 4.502 0 0 0-.328 1.75c0 .64.109 1.222.328 1.741.199.489.488.94.854 1.335.335.36.747.65 1.208.854.454.199.922.298 1.404.298.558 0 1.044-.102 1.454-.306a2.65 2.65 0 0 0 .994-.838h.13v.564c0 .763-.196 1.357-.59 1.783-.395.425-.931.638-1.61.638-.427 0-.816-.119-1.166-.357a1.964 1.964 0 0 1-.756-1.003l-2.053.83c.11.309.27.6.476.862.23.3.508.564.821.788.351.249.742.445 1.158.58zM57.08 11.957h.136c.26-.38.61-.68 1.05-.9.44-.22.941-.33 1.505-.33.519 0 .976.078 1.37.231.395.153.72.371.973.653.254.281.446.62.575 1.014.13.395.195.833.195 1.314v4.565h-2.216v-4.32c0-.544-.133-.945-.398-1.206s-.651-.392-1.159-.392a1.75 1.75 0 0 0-.804.177c-.231.118-.433.28-.592.476a2.08 2.08 0 0 0-.372.707 2.92 2.92 0 0 0-.127.868v3.69H55v-7.532h2.08v.985zm15.481 4.734a4.419 4.419 0 0 1-1.548 1.49c-.649.38-1.44.569-2.377.569a4.977 4.977 0 0 1-1.751-.3 4.271 4.271 0 0 1-1.396-.837 3.82 3.82 0 0 1-.922-1.269 3.853 3.853 0 0 1-.33-1.606 3.88 3.88 0 0 1 1.218-2.82 4.308 4.308 0 0 1 1.419-.89 4.532 4.532 0 0 1 1.677-.3c.666 0 1.258.099 1.777.3.519.198.953.475 1.303.83.35.353.614.77.795 1.252.18.48.27 1.003.27 1.567v.184a.947.947 0 0 0-.017.169.787.787 0 0 0-.016.17H66.42c.045.307.138.571.279.79.27.427.702.74 1.21.877.248.066.501.1.76.1.508 0 .929-.105 1.261-.315.333-.21.595-.474.787-.792l1.844.83zm-2.013-2.92a1.22 1.22 0 0 0-.144-.447 1.589 1.589 0 0 0-.372-.46 1.982 1.982 0 0 0-.61-.354 2.454 2.454 0 0 0-.87-.138c-.474 0-.892.122-1.253.368a1.95 1.95 0 0 0-.76 1.03h4.009zm5.65-1.814h.136c.26-.38.609-.68 1.049-.9.44-.22.941-.33 1.505-.33.52 0 .976.078 1.37.231a2.5 2.5 0 0 1 .974.653c.253.281.445.62.575 1.014.13.395.194.833.194 1.314v4.565h-2.216v-4.32c0-.544-.132-.945-.397-1.206-.266-.261-.652-.392-1.16-.392-.304 0-.572.059-.803.177-.231.118-.433.28-.592.476a2.08 2.08 0 0 0-.372.707 2.89 2.89 0 0 0-.127.868v3.69h-2.216v-7.532h2.08v.985zM87.551 7.5h2.216v3.305l-.136 1.075h.136c.203-.318.519-.589.947-.815.429-.225.959-.337 1.59-.337a4.025 4.025 0 0 1 2.784 1.13c.366.353.657.775.87 1.267a3.99 3.99 0 0 1 .322 1.613 3.996 3.996 0 0 1-.321 1.614 3.9 3.9 0 0 1-.871 1.268c-.367.353-.79.63-1.27.83-.479.2-.983.3-1.513.3-.632 0-1.162-.113-1.59-.338-.43-.226-.745-.497-.948-.816h-.136v.908h-2.08V7.5zm4.297 9.39a2.29 2.29 0 0 0 1.54-.584 2.093 2.093 0 0 0 .676-1.567 2.082 2.082 0 0 0-.676-1.568 2.29 2.29 0 0 0-1.54-.584c-.294 0-.573.048-.838.146a2.131 2.131 0 0 0-.702.422 2.096 2.096 0 0 0-.677 1.583 2.083 2.083 0 0 0 1.379 2.006c.265.097.544.146.838.146zm10.963.815h-.136a3.66 3.66 0 0 1-.939.737c-.366.206-.837.308-1.412.308a3.745 3.745 0 0 1-1.21-.192 3.232 3.232 0 0 1-.99-.53 2.4 2.4 0 0 1-.66-.816 2.315 2.315 0 0 1-.236-1.044c0-.39.084-.74.253-1.053.17-.312.407-.581.711-.806.32-.234.685-.409 1.074-.516.412-.118.86-.176 1.345-.176.542 0 .987.037 1.337.115.35.077.637.156.863.238v-.23c0-.4-.175-.73-.525-.992-.35-.26-.784-.392-1.302-.392-.767 0-1.416.293-1.946.877l-1.607-1c.88-1.003 2.08-1.505 3.603-1.505 1.286 0 2.267.273 2.944.822.677.547 1.015 1.36 1.015 2.435v4.519h-2.182v-.799zm0-2.259a4.897 4.897 0 0 0-.804-.27 3.865 3.865 0 0 0-.905-.1c-.53 0-.939.106-1.227.316-.287.21-.431.468-.431.776 0 .307.138.553.414.738.277.184.595.276.956.276a2.161 2.161 0 0 0 1.447-.53c.173-.157.311-.344.405-.552.095-.207.144-.429.145-.654zm7.224 3.304a5.195 5.195 0 0 1-1.447-.185 4.17 4.17 0 0 1-1.1-.484 3.353 3.353 0 0 1-1.277-1.483l1.98-.769c.191.39.448.68.77.869.32.19.679.285 1.074.285.406 0 .727-.067.964-.2s.355-.293.355-.477c0-.205-.098-.372-.296-.5-.197-.127-.538-.243-1.023-.346l-1.168-.23a4.368 4.368 0 0 1-.803-.245 3.206 3.206 0 0 1-.753-.431 2.24 2.24 0 0 1-.558-.63 1.655 1.655 0 0 1-.22-.861c0-.369.087-.697.262-.984.175-.286.414-.53.719-.729.327-.21.691-.366 1.074-.461.433-.11.88-.164 1.328-.161.79 0 1.495.14 2.115.421a2.73 2.73 0 0 1 1.37 1.346l-1.911.707a1.404 1.404 0 0 0-.694-.646 2.262 2.262 0 0 0-.914-.2c-.315 0-.592.06-.829.177-.236.118-.355.27-.355.453 0 .174.099.313.296.415.198.103.466.195.804.277l1.269.276c.846.185 1.474.48 1.886.884.412.405.618.884.618 1.438 0 .328-.085.64-.254.937a2.582 2.582 0 0 1-.72.791 3.64 3.64 0 0 1-1.116.546 4.927 4.927 0 0 1-1.446.2zm5.803-6.056h-1.455v-1.72h1.455V8.666h2.216v2.306h2.03v1.721h-2.03v2.92c0 .175.02.336.06.485a.759.759 0 0 0 .228.376c.157.164.383.246.676.246.192 0 .344-.019.457-.053.113-.037.22-.085.322-.147l.625 1.767a3.904 3.904 0 0 1-.837.253 5.355 5.355 0 0 1-.99.085c-.417 0-.792-.058-1.125-.176a2.44 2.44 0 0 1-.837-.484c-.53-.461-.795-1.117-.795-1.967v-3.306.002zm10.98 5.01h-.136c-.26.287-.572.534-.939.738-.366.206-.837.308-1.412.308a3.745 3.745 0 0 1-1.21-.192 3.234 3.234 0 0 1-.99-.53 2.392 2.392 0 0 1-.66-.816 2.318 2.318 0 0 1-.236-1.044c0-.39.084-.74.253-1.053a2.46 2.46 0 0 1 .71-.806 3.324 3.324 0 0 1 1.075-.516c.412-.118.86-.176 1.345-.176.542 0 .987.037 1.337.115.35.077.637.156.863.238v-.23c0-.4-.175-.73-.525-.992-.35-.26-.784-.392-1.303-.392-.767 0-1.415.293-1.945.877l-1.607-1c.88-1.003 2.08-1.505 3.603-1.505 1.286 0 2.267.273 2.944.822.677.547 1.015 1.36 1.015 2.435v4.519h-2.182v-.8zm0-2.259a4.903 4.903 0 0 0-.804-.268 3.865 3.865 0 0 0-.905-.1c-.53 0-.94.105-1.227.315-.287.21-.431.468-.431.776 0 .307.138.553.414.738.277.184.595.276.956.276a2.161 2.161 0 0 0 1.447-.53c.173-.157.311-.344.405-.552.095-.207.144-.43.145-.655z" fill="#fff"/></svg>