<svg width="52" height="28" viewBox="0 0 52 28" fill="none" xmlns="http://www.w3.org/2000/svg">
<path d="M10.985 18.862C10.728 18.979 10.457 19.039 10.172 19.039C9.89102 19.0394 9.61302 18.9814 9.35566 18.8686C9.0983 18.7559 8.86719 18.5908 8.677 18.384C8.481 18.172 8.321 17.912 8.201 17.606C8.081 17.299 8.021 16.952 8.021 16.562C8.021 16.173 8.081 15.825 8.201 15.518C8.30936 15.2311 8.47084 14.9671 8.677 14.74C8.96283 14.4281 9.33957 14.2141 9.75382 14.1283C10.1681 14.0426 10.5988 14.0893 10.985 14.262C11.243 14.3805 11.4748 14.5491 11.667 14.758C11.8735 14.985 12.0353 15.249 12.144 15.536C12.264 15.842 12.324 16.185 12.324 16.562C12.324 16.939 12.263 17.281 12.143 17.588C12.0346 17.8749 11.8732 18.1389 11.667 18.366C11.4748 18.5749 11.243 18.7435 10.985 18.862Z" fill="#999999"/>
<path d="M29.8741 18.7322C29.6229 18.8401 29.3524 18.8962 29.079 18.897C28.808 18.8959 28.54 18.8396 28.2914 18.7316C28.0429 18.6237 27.8188 18.4663 27.633 18.269C27.437 18.063 27.277 17.809 27.157 17.508C27.037 17.208 26.977 16.863 26.977 16.473C26.977 16.084 27.037 15.739 27.157 15.439C27.2667 15.1551 27.4281 14.894 27.633 14.669C27.817 14.4688 28.0405 14.3088 28.2893 14.1992C28.5382 14.0895 28.8071 14.0326 29.079 14.032C29.3524 14.0328 29.6229 14.0889 29.8741 14.1968C30.1253 14.3047 30.3522 14.4623 30.541 14.66C30.7484 14.8831 30.9101 15.1447 31.017 15.43C31.137 15.736 31.197 16.084 31.197 16.473C31.197 16.863 31.137 17.208 31.017 17.509C30.897 17.809 30.738 18.063 30.541 18.269C30.3522 18.4667 30.1253 18.6243 29.8741 18.7322Z" fill="#999999"/>
<path fill-rule="evenodd" clip-rule="evenodd" d="M52 0H0V28H52V0ZM8.152 8.23H6V20.896H8.02V19.852H8.152C8.349 20.218 8.656 20.53 9.072 20.789C9.488 21.049 10.003 21.179 10.616 21.179C11.13 21.179 11.621 21.064 12.086 20.834C12.556 20.6006 12.9748 20.2759 13.318 19.879C13.6876 19.4486 13.9744 18.9537 14.164 18.419C14.372 17.853 14.476 17.234 14.476 16.562C14.476 15.89 14.372 15.271 14.164 14.705C13.956 14.138 13.674 13.652 13.318 13.245C12.962 12.838 12.551 12.52 12.086 12.29C11.621 12.06 11.13 11.944 10.616 11.944C10.002 11.944 9.488 12.074 9.072 12.334C8.656 12.593 8.349 12.906 8.152 13.272H8.02L8.152 12.033V8.23ZM21.293 19.764H21.424L21.425 20.896H23.445V12.228H21.293V16.473C21.2952 16.8102 21.2538 17.1463 21.17 17.473C21.088 17.785 20.968 18.057 20.808 18.287C20.65 18.517 20.458 18.699 20.233 18.835C20.009 18.971 19.749 19.038 19.453 19.038C18.96 19.038 18.585 18.888 18.328 18.588C18.071 18.287 17.942 17.824 17.942 17.198V12.228H15.79V17.481C15.79 18.602 16.039 19.498 16.537 20.171C17.036 20.843 17.794 21.179 18.812 21.179C19.36 21.179 19.847 21.052 20.274 20.799C20.6981 20.5487 21.0494 20.1919 21.293 19.764ZM27.477 24.761C27.921 24.92 28.427 25 28.997 25C29.5904 25.0079 30.1793 24.8967 30.729 24.673C31.249 24.455 31.696 24.142 32.069 23.735C32.4558 23.3031 32.7517 22.7977 32.939 22.249C33.147 21.665 33.251 21.008 33.251 20.277V12.228H31.197V13.165H31.067C30.815 12.788 30.483 12.49 30.073 12.272C29.662 12.054 29.177 11.944 28.619 11.944C28.1331 11.9455 27.6536 12.0548 27.215 12.264C26.76 12.476 26.357 12.779 26.007 13.174C25.6397 13.5973 25.3505 14.0825 25.153 14.607C24.934 15.167 24.825 15.789 24.825 16.473C24.825 17.157 24.934 17.777 25.153 18.331C25.352 18.8521 25.641 19.3341 26.007 19.755C26.3425 20.1388 26.7538 20.4489 27.215 20.666C27.669 20.878 28.137 20.984 28.619 20.984C29.177 20.984 29.663 20.875 30.073 20.657C30.4741 20.4476 30.8159 20.1404 31.067 19.764H31.197V20.365C31.197 21.179 31.001 21.813 30.607 22.267C30.212 22.721 29.676 22.948 28.997 22.948C28.57 22.948 28.181 22.821 27.831 22.567C27.48 22.314 27.228 21.957 27.075 21.497L25.022 22.382C25.1321 22.7114 25.2927 23.0218 25.498 23.302C25.7289 23.6208 26.0056 23.9038 26.319 24.142C26.6702 24.4077 27.061 24.6166 27.477 24.761ZM35.756 10.857C35.926 10.934 36.104 10.972 36.29 10.972C36.4757 10.9738 36.6596 10.9362 36.8296 10.8615C36.9995 10.7869 37.1517 10.6769 37.276 10.539C37.549 10.25 37.686 9.899 37.686 9.486C37.686 9.073 37.549 8.723 37.276 8.433C37.002 8.144 36.673 8 36.29 8C36.104 8 35.926 8.038 35.756 8.115C35.586 8.192 35.439 8.298 35.312 8.433C35.0472 8.71901 34.9032 9.09629 34.91 9.486C34.9034 9.87585 35.0478 10.2531 35.313 10.539C35.4378 10.6737 35.5885 10.7818 35.756 10.857ZM37.374 12.228H35.222V20.896H37.374V12.228ZM41.497 13.36H41.366L41.365 12.228H39.345V20.896H41.497V16.651C41.4948 16.3138 41.5362 15.9777 41.62 15.651C41.702 15.338 41.823 15.067 41.982 14.837C42.1323 14.6153 42.3284 14.4285 42.557 14.289C42.7932 14.1505 43.0632 14.0802 43.337 14.086C43.83 14.086 44.205 14.236 44.462 14.536C44.719 14.837 44.848 15.3 44.848 15.926V20.896H47V15.642C47 15.088 46.937 14.584 46.811 14.13C46.685 13.676 46.499 13.286 46.253 12.962C46.006 12.638 45.691 12.387 45.308 12.21C44.925 12.033 44.481 11.945 43.978 11.945C43.43 11.945 42.943 12.072 42.516 12.325C42.0919 12.5753 41.7406 12.9321 41.497 13.36Z" fill="#999999"/>
</svg>
