<svg width="1200" height="350" fill="none" xmlns="http://www.w3.org/2000/svg"><path d="M0 3.382h34.51v55.93l-2.107 18.211h2.108c3.161-5.376 8.078-9.972 14.752-13.788 6.674-3.815 14.929-5.723 24.764-5.723 8.254 0 16.07 1.735 23.446 5.203 7.552 3.295 14.138 7.978 19.758 14.048 5.795 5.897 10.362 13.007 13.699 21.332 3.337 8.325 5.005 17.43 5.005 27.315 0 9.886-1.668 18.991-5.005 27.316-3.337 8.324-7.904 15.522-13.699 21.592-5.62 5.896-12.206 10.579-19.758 14.047-7.376 3.296-15.192 4.943-23.446 4.943-9.835 0-18.09-1.907-24.764-5.723-6.673-3.815-11.591-8.411-14.752-13.788h-2.108v15.349H0V3.382zM66.914 162.33c4.566 0 8.869-.868 12.909-2.602 4.215-1.734 7.903-4.162 11.064-7.284 3.161-3.122 5.708-6.937 7.64-11.446 1.931-4.509 2.897-9.539 2.897-15.089 0-5.55-.966-10.579-2.898-15.088-1.931-4.509-4.478-8.325-7.639-11.447-3.162-3.121-6.85-5.55-11.064-7.284-4.04-1.734-8.343-2.601-12.909-2.601-4.567 0-8.957.867-13.172 2.601-4.04 1.561-7.64 3.902-10.801 7.024-3.162 3.122-5.708 6.937-7.64 11.447-1.932 4.509-2.898 9.625-2.898 15.348 0 5.723.966 10.84 2.898 15.349 1.932 4.509 4.478 8.324 7.64 11.446a34.765 34.765 0 0 0 10.801 7.284c4.215 1.561 8.605 2.342 13.172 2.342zm179.067 10.667h-2.107c-4.04 6.417-9.484 11.533-16.334 15.348-6.849 3.642-14.665 5.463-23.446 5.463-16.333 0-28.539-4.942-36.618-14.828-7.903-9.886-11.855-23.066-11.855-39.542V62.175h34.511v73.1c0 9.192 2.019 16.043 6.059 20.552 4.215 4.336 10.274 6.504 18.177 6.504 4.742 0 8.869-.954 12.382-2.862 3.688-2.081 6.762-4.769 9.22-8.064 2.635-3.469 4.567-7.458 5.796-11.967 1.405-4.683 2.108-9.626 2.108-14.828V62.175h34.51v127.471h-32.403v-16.649zM366.198 250c-9.132 0-17.299-1.214-24.5-3.642-7.025-2.255-13.172-5.29-18.44-9.105-5.269-3.642-9.66-7.718-13.172-12.227-3.513-4.509-6.06-9.019-7.64-13.528l32.93-13.007c2.459 6.764 6.498 11.967 12.118 15.609 5.62 3.815 11.855 5.723 18.704 5.723 10.889 0 19.495-3.382 25.818-10.146 6.322-6.59 9.483-15.869 9.483-27.835v-8.845h-2.107c-4.04 5.549-9.396 9.972-16.07 13.267-6.498 3.122-14.226 4.683-23.183 4.683-7.727 0-15.279-1.561-22.656-4.683-7.2-3.122-13.611-7.544-19.231-13.267-5.62-5.897-10.186-12.921-13.699-21.072-3.512-8.151-5.268-17.257-5.268-27.315 0-10.059 1.756-19.165 5.268-27.316 3.513-8.324 8.079-15.348 13.699-21.072 5.62-5.896 12.031-10.405 19.231-13.527 7.377-3.121 14.929-4.682 22.656-4.682 8.957 0 16.685 1.647 23.183 4.943 6.674 3.121 12.03 7.457 16.07 13.007h2.107V62.175h32.93v118.366c0 10.753-1.668 20.378-5.005 28.876-3.337 8.672-7.991 15.956-13.962 21.852-5.972 6.07-13.172 10.666-21.602 13.788-8.255 3.295-17.475 4.943-27.662 4.943zm1.318-89.751c4.215 0 8.342-.78 12.381-2.341 4.215-1.561 7.904-3.815 11.065-6.764 3.161-3.121 5.708-6.85 7.64-11.186 1.931-4.509 2.897-9.625 2.897-15.348 0-5.724-.966-10.84-2.897-15.349-1.932-4.509-4.479-8.238-7.64-11.186-3.161-3.122-6.85-5.463-11.065-7.024-4.039-1.561-8.166-2.342-12.381-2.342s-8.343.781-12.382 2.342c-4.04 1.561-7.64 3.902-10.801 7.024-3.161 3.121-5.708 6.937-7.64 11.446-1.932 4.336-2.898 9.365-2.898 15.089 0 5.723.966 10.839 2.898 15.348 1.932 4.336 4.479 8.065 7.64 11.186a33.26 33.26 0 0 0 10.801 6.764c4.039 1.561 8.167 2.341 12.382 2.341zM483.082 43.704c-2.986 0-5.884-.52-8.694-1.56a27.99 27.99 0 0 1-7.113-4.683 27.587 27.587 0 0 1-4.742-7.024c-1.054-2.601-1.58-5.463-1.58-8.585 0-3.122.526-5.983 1.58-8.585 1.23-2.601 2.81-4.856 4.742-6.763 2.108-2.082 4.479-3.642 7.113-4.683C477.198.607 480.096 0 483.082 0c6.147 0 11.415 2.168 15.806 6.504 4.392 4.162 6.587 9.278 6.587 15.348s-2.195 11.273-6.587 15.609c-4.391 4.162-9.659 6.243-15.806 6.243zm-17.124 145.942V62.175h34.512v127.471h-34.512zM564.43 78.824h2.105c4.04-6.417 9.485-11.447 16.335-15.088 6.85-3.816 14.665-5.723 23.445-5.723 8.08 0 15.195 1.3 21.34 3.901 6.145 2.602 11.15 6.331 15.015 11.187 4.04 4.683 7.025 10.406 8.96 17.17 2.105 6.59 3.16 13.96 3.16 22.112v77.263h-34.51v-73.101c0-9.192-2.11-15.956-6.325-20.291-4.04-4.51-10.01-6.764-17.915-6.764-4.74 0-8.955 1.04-12.645 3.122-3.51 1.907-6.585 4.596-9.22 8.064-2.455 3.295-4.39 7.284-5.795 11.967-1.23 4.509-1.845 9.365-1.845 14.568v62.435h-34.51V62.175h32.405v16.649zm139.68 112.383c-6.32 0-11.765-2.168-16.335-6.503-4.39-4.51-6.585-9.886-6.585-16.129 0-6.244 2.195-11.533 6.585-15.869 4.57-4.336 10.015-6.504 16.335-6.504 6.325 0 11.68 2.168 16.07 6.504 4.39 4.336 6.585 9.625 6.585 15.869 0 6.243-2.195 11.619-6.585 16.129-4.39 4.335-9.745 6.503-16.07 6.503zm101.045 2.601c-8.43 0-15.985-1.04-22.655-3.121-6.5-2.082-12.21-4.77-17.125-8.065-4.74-3.469-8.78-7.371-12.12-11.707-3.335-4.509-5.88-9.018-7.64-13.527l30.825-13.007c2.985 6.59 6.935 11.533 11.855 14.828 5.09 3.122 10.71 4.683 16.86 4.683 6.32 0 11.325-1.128 15.015-3.382 3.69-2.255 5.535-4.943 5.535-8.065 0-3.468-1.585-6.243-4.745-8.325-2.985-2.254-8.255-4.249-15.805-5.983l-18.18-3.902c-4.04-.867-8.255-2.255-12.645-4.162a50.084 50.084 0 0 1-11.59-7.284c-3.51-2.949-6.41-6.504-8.695-10.666-2.28-4.163-3.425-9.019-3.425-14.569 0-6.243 1.32-11.793 3.955-16.649 2.81-4.856 6.585-8.932 11.325-12.227 4.745-3.468 10.275-6.07 16.6-7.804 6.495-1.907 13.435-2.861 20.81-2.861 12.295 0 23.27 2.428 32.93 7.283 9.66 4.683 16.775 12.227 21.34 22.633l-29.77 11.967c-2.46-5.03-6.06-8.672-10.8-10.926-4.745-2.255-9.485-3.382-14.225-3.382-4.92 0-9.22 1.04-12.91 3.121-3.69 1.908-5.535 4.423-5.535 7.545 0 2.948 1.495 5.289 4.48 7.024 3.16 1.734 7.375 3.295 12.645 4.682l19.76 4.683c13.17 3.122 22.92 8.151 29.24 15.088 6.5 6.764 9.75 14.829 9.75 24.194 0 5.55-1.32 10.839-3.955 15.869-2.635 5.029-6.41 9.538-11.325 13.527-4.745 3.816-10.54 6.851-17.39 9.105-6.67 2.255-14.135 3.382-22.39 3.382zM943.8 58.013c10.01 0 19.14 1.734 27.395 5.203 8.43 3.294 15.63 7.977 21.605 14.047 6.145 5.897 10.89 13.007 14.23 21.332 3.51 8.325 5.26 17.43 5.26 27.315 0 9.886-1.75 18.991-5.26 27.316-3.34 8.324-8.085 15.522-14.23 21.592-5.975 5.896-13.175 10.579-21.605 14.047-8.255 3.296-17.385 4.943-27.395 4.943-10.015 0-19.235-1.647-27.665-4.943-8.255-3.468-15.455-8.151-21.6-14.047-5.97-6.07-10.715-13.268-14.225-21.592-3.34-8.325-5.005-17.43-5.005-27.316 0-9.885 1.665-18.99 5.005-27.315 3.51-8.325 8.255-15.435 14.225-21.332 6.145-6.07 13.345-10.753 21.6-14.048 8.43-3.468 17.65-5.203 27.665-5.203zm0 104.318c4.39 0 8.605-.781 12.645-2.342 4.215-1.734 7.9-4.162 11.065-7.284 3.16-3.122 5.62-6.937 7.375-11.446 1.93-4.509 2.895-9.626 2.895-15.349 0-5.723-.965-10.839-2.895-15.348-1.755-4.51-4.215-8.325-7.375-11.447-3.165-3.122-6.85-5.462-11.065-7.024A31.737 31.737 0 0 0 943.8 89.49c-4.57 0-8.87.867-12.91 2.601-4.04 1.562-7.64 3.902-10.8 7.024-3.165 3.122-5.71 6.937-7.64 11.447-1.76 4.509-2.635 9.625-2.635 15.348 0 5.723.875 10.84 2.635 15.349 1.93 4.509 4.475 8.324 7.64 11.446a34.74 34.74 0 0 0 10.8 7.284c4.04 1.561 8.34 2.342 12.91 2.342zm184.81-71.02h-48.74v98.335h-34.51V91.311h-23.18V62.175h23.18V49.688c0-7.805 1.14-14.655 3.43-20.552 2.46-6.07 5.88-11.1 10.27-15.088 4.39-4.162 9.57-7.284 15.54-9.365 5.98-2.255 12.56-3.382 19.76-3.382 3.52 0 6.33.173 8.43.52 2.11.347 4.13.867 6.06 1.561l-2.11 31.998c-1.22-.52-2.63-.954-4.21-1.3-1.58-.348-3.6-.521-6.06-.521-5.09 0-9.13 1.648-12.12 4.943-2.99 3.295-4.48 7.804-4.48 13.527v10.146h48.74V23.153h34.51v39.022h31.61v29.136h-31.61v49.428c0 2.948.26 5.723.79 8.325.7 2.428 1.93 4.509 3.68 6.243 2.47 2.775 5.98 4.163 10.55 4.163 2.98 0 5.35-.261 7.1-.781a27.393 27.393 0 0 0 5.02-2.601l9.74 29.916c-4.04 1.908-8.43 3.296-13.17 4.163-4.57 1.04-9.66 1.561-15.28 1.561-6.5 0-12.38-.954-17.65-2.862-5.09-2.081-9.4-4.856-12.91-8.325-8.26-7.804-12.38-18.904-12.38-33.298V91.311zM0 301.019v47.962h17.112c15.47 0 23.44-8.293 23.44-23.999 0-15.741-7.93-23.963-23.44-23.963H0zm6.837 5.481h9.884c11.33 0 16.76 6.254 16.76 18.482 0 12.579-5.704 18.517-16.76 18.517H6.837V306.5zm100.082 42.481v-47.962h-6.837v47.962h6.837zm101.293-33.345c-.703-9.311-8.478-15.636-19.846-15.636-13.244 0-21.175 8.011-21.175 21.082v7.098c0 13.914 7.462 21.82 21.331 21.82 11.564 0 19.807-6.957 19.807-16.128v-9.874h-20.393v5.341h13.752v4.639c0 6.219-5.313 10.505-13.127 10.505-9.493 0-14.572-5.902-14.572-16.303v-7.098c0-9.803 5.313-15.566 14.377-15.566 7.383 0 12.228 3.796 13.087 10.12h6.759zm67.305 33.345v-47.962h-6.837v47.962h6.837zm79.727 0V306.5h16.213v-5.481h-39.185v5.481h16.214v42.481h6.758zm71.368 0l5.391-14.406h19.846l5.392 14.406h7.188l-18.987-47.962h-6.954l-18.987 47.962h7.111zm15.431-40.724l7.97 21.363h-16.174l8.009-21.363h.195zm110.747 35.207h-24.535v-42.445h-6.835v47.962h31.37v-5.517zm124.22 5.517l5.39-14.406h19.845l5.39 14.406h7.19l-18.985-47.962h-6.955L669.9 348.981h7.11zm15.43-40.724l7.97 21.363h-16.175l8.01-21.363h.195zm117.43 7.379c-.705-9.311-8.48-15.636-19.85-15.636-13.24 0-21.175 8.011-21.175 21.082v7.098c0 13.914 7.465 21.82 21.335 21.82 11.56 0 19.805-6.957 19.805-16.128v-9.874H789.59v5.341h13.755v4.639c0 6.219-5.315 10.505-13.13 10.505-9.49 0-14.57-5.902-14.57-16.303v-7.098c0-9.803 5.315-15.566 14.375-15.566 7.385 0 12.23 3.796 13.09 10.12h6.76zm92.46 27.863h-25.195v-16.338h23.79v-5.341h-23.79V306.5h25.195v-5.481h-31.995v47.962h31.995v-5.482zm67.035 5.482V311.49h.155l27.11 37.491h6.56v-47.962h-6.52v37.456h-.155L969.4 301.019h-6.56v47.962h6.525zm100.975-26.985c0-10.541 5.08-16.48 14.18-16.48 7.5 0 12.66 4.392 12.86 10.787h6.72v-.105c0-9.416-8.25-16.198-19.62-16.198-13.2 0-20.94 8.222-20.94 21.996v6.289c0 13.633 7.74 21.715 20.94 21.715 11.29 0 19.62-6.501 19.62-15.355v-.14h-6.72c-.2 5.938-5.36 9.978-12.86 9.978-9.1 0-14.18-5.833-14.18-16.198v-6.289zm111.8 26.985v-20.696l17.86-27.266h-7.74l-13.36 21.293h-.23l-13.33-21.293h-7.81l17.85 27.301v20.661h6.76z" fill="#fff"/></svg>