<svg width="120" height="35" fill="none" xmlns="http://www.w3.org/2000/svg"><path d="M0 .338h3.451v5.593l-.21 1.821h.21c.316-.537.808-.997 1.475-1.378.668-.382 1.493-.573 2.477-.573.825 0 1.607.174 2.344.52.755.33 1.414.798 1.976 1.405a6.403 6.403 0 0 1 1.37 2.133c.334.833.5 1.743.5 2.732 0 .989-.166 1.9-.5 2.732a6.699 6.699 0 0 1-1.37 2.159 6.38 6.38 0 0 1-1.976 1.405 5.672 5.672 0 0 1-2.344.494c-.984 0-1.81-.19-2.477-.573-.667-.381-1.159-.84-1.475-1.378h-.21v1.535H0V.338zm6.691 15.895c.457 0 .887-.087 1.291-.26.422-.174.79-.416 1.107-.729.316-.312.57-.693.764-1.144.193-.451.29-.954.29-1.509 0-.555-.097-1.058-.29-1.509a3.553 3.553 0 0 0-.764-1.144 3.398 3.398 0 0 0-1.107-.729 3.238 3.238 0 0 0-1.29-.26 3.43 3.43 0 0 0-1.318.26 3.13 3.13 0 0 0-1.08.703c-.316.312-.57.693-.764 1.144-.193.451-.29.963-.29 1.535s.097 1.084.29 1.535c.193.45.448.832.764 1.145.316.312.676.554 1.08.728.422.156.86.234 1.317.234zM24.598 17.3h-.21a4.455 4.455 0 0 1-1.634 1.535c-.685.364-1.466.546-2.345.546-1.633 0-2.854-.494-3.661-1.483-.79-.988-1.186-2.307-1.186-3.954V6.217h3.451v7.31c0 .92.202 1.605.606 2.056.422.433 1.027.65 1.818.65.474 0 .887-.095 1.238-.286.369-.208.676-.477.922-.806a3.46 3.46 0 0 0 .58-1.197c.14-.469.21-.963.21-1.483V6.217h3.451v12.748h-3.24V17.3zM36.62 25c-.913 0-1.73-.121-2.45-.364a6.514 6.514 0 0 1-1.844-.91 5.91 5.91 0 0 1-1.317-1.223 4.802 4.802 0 0 1-.764-1.353l3.293-1.3c.245.675.65 1.196 1.212 1.56a3.257 3.257 0 0 0 1.87.572c1.089 0 1.95-.338 2.582-1.014.632-.66.948-1.587.948-2.784V17.3h-.21a4.3 4.3 0 0 1-1.608 1.326c-.65.313-1.422.469-2.318.469a5.761 5.761 0 0 1-2.266-.469 6.046 6.046 0 0 1-1.923-1.326 7.083 7.083 0 0 1-1.37-2.107c-.35-.816-.526-1.726-.526-2.732 0-1.006.175-1.917.526-2.732.352-.832.808-1.534 1.37-2.107a5.857 5.857 0 0 1 1.923-1.353 5.762 5.762 0 0 1 2.266-.468c.896 0 1.668.165 2.318.495a4.084 4.084 0 0 1 1.607 1.3h.21V6.218h3.294v11.836c0 1.075-.167 2.038-.5 2.888-.334.867-.8 1.595-1.397 2.185a5.82 5.82 0 0 1-2.16 1.379c-.825.33-1.748.494-2.766.494zm.132-8.975c.421 0 .834-.078 1.238-.234.421-.156.79-.382 1.106-.677a3.63 3.63 0 0 0 .764-1.118c.193-.451.29-.963.29-1.535s-.097-1.084-.29-1.535a3.26 3.26 0 0 0-.764-1.119 3.076 3.076 0 0 0-1.106-.702 3.408 3.408 0 0 0-2.477 0 3.13 3.13 0 0 0-1.08.702c-.316.313-.57.694-.764 1.145-.193.434-.29.937-.29 1.509 0 .572.097 1.084.29 1.535.194.433.448.806.764 1.118a3.409 3.409 0 0 0 2.318.91zM48.308 4.37c-.298 0-.588-.052-.87-.156a2.799 2.799 0 0 1-.71-.468 2.759 2.759 0 0 1-.475-.702 2.266 2.266 0 0 1-.158-.859c0-.312.053-.598.158-.858.123-.26.281-.486.474-.677.211-.208.448-.364.712-.468.28-.121.57-.182.87-.182a2.17 2.17 0 0 1 1.58.65c.439.417.658.928.658 1.535 0 .607-.219 1.128-.658 1.561-.44.416-.966.624-1.58.624zm-1.712 14.595V6.218h3.451v12.747h-3.451zm9.847-11.083h.21a4.252 4.252 0 0 1 1.634-1.508c.685-.382 1.467-.573 2.345-.573.808 0 1.519.13 2.134.39.614.26 1.114.633 1.501 1.12.404.467.703 1.04.896 1.716.21.66.316 1.396.316 2.211v7.727h-3.451v-7.31c0-.92-.211-1.596-.633-2.03-.404-.45-1-.676-1.791-.676-.474 0-.895.104-1.264.312-.352.191-.659.46-.923.807-.245.33-.439.728-.579 1.196a5.522 5.522 0 0 0-.184 1.457v6.244h-3.452V6.218h3.241v1.664zM70.411 19.12a2.292 2.292 0 0 1-1.633-.65 2.232 2.232 0 0 1-.659-1.612c0-.625.22-1.154.659-1.587a2.291 2.291 0 0 1 1.633-.65 2.2 2.2 0 0 1 1.607.65c.439.433.659.962.659 1.587 0 .624-.22 1.161-.659 1.612a2.2 2.2 0 0 1-1.607.65zm10.105.26c-.844 0-1.599-.103-2.266-.311a6.762 6.762 0 0 1-1.713-.807 5.958 5.958 0 0 1-1.212-1.17 5.884 5.884 0 0 1-.764-1.353l3.083-1.3c.298.658.694 1.152 1.185 1.482a3.162 3.162 0 0 0 1.687.468c.631 0 1.132-.113 1.501-.338.369-.225.553-.494.553-.806 0-.347-.158-.625-.474-.833-.299-.225-.826-.425-1.58-.598l-1.819-.39a6.732 6.732 0 0 1-1.264-.417 5.008 5.008 0 0 1-1.159-.728 3.71 3.71 0 0 1-.87-1.067c-.227-.416-.342-.902-.342-1.457 0-.624.132-1.179.395-1.664a3.784 3.784 0 0 1 1.133-1.223 5.042 5.042 0 0 1 1.66-.78 7.353 7.353 0 0 1 2.081-.287c1.23 0 2.327.243 3.293.729.966.468 1.678 1.222 2.134 2.263L82.781 9.99c-.246-.503-.606-.868-1.08-1.093a3.289 3.289 0 0 0-1.422-.338c-.492 0-.922.104-1.291.312-.37.19-.554.442-.554.754 0 .295.15.53.448.703.316.173.737.33 1.264.468l1.977.468c1.316.313 2.291.815 2.923 1.51a3.37 3.37 0 0 1 .975 2.419c0 .555-.132 1.083-.395 1.586a4.336 4.336 0 0 1-1.133 1.353c-.474.382-1.053.685-1.739.91-.666.226-1.413.339-2.239.339zM94.38 5.801c1.001 0 1.914.174 2.74.52.843.33 1.563.798 2.16 1.405a6.03 6.03 0 0 1 1.423 2.134c.351.832.526 1.742.526 2.731 0 .989-.175 1.9-.526 2.732a6.289 6.289 0 0 1-1.423 2.159 6.622 6.622 0 0 1-2.16 1.405c-.826.33-1.739.494-2.74.494-1.001 0-1.923-.165-2.766-.494a7.005 7.005 0 0 1-2.16-1.405 6.825 6.825 0 0 1-1.423-2.16c-.334-.832-.5-1.742-.5-2.731 0-.989.166-1.899.5-2.731a6.518 6.518 0 0 1 1.422-2.134 6.43 6.43 0 0 1 2.16-1.404c.844-.347 1.766-.52 2.767-.52zm0 10.432c.439 0 .86-.078 1.264-.234a3.4 3.4 0 0 0 1.107-.729 3.22 3.22 0 0 0 .737-1.144c.194-.451.29-.963.29-1.535s-.097-1.084-.29-1.535a3.232 3.232 0 0 0-.737-1.144 3.08 3.08 0 0 0-1.107-.703 3.174 3.174 0 0 0-1.264-.26c-.457 0-.887.087-1.291.26-.404.156-.764.39-1.08.703a3.543 3.543 0 0 0-.764 1.144c-.176.451-.264.963-.264 1.535s.088 1.084.264 1.535c.193.45.447.832.764 1.145.316.312.676.554 1.08.728a3.55 3.55 0 0 0 1.291.234zm18.481-7.102h-4.874v9.834h-3.451V9.13h-2.318V6.218h2.318v-1.25c0-.78.114-1.465.343-2.054a4.063 4.063 0 0 1 1.027-1.51 4.272 4.272 0 0 1 1.554-.936 5.558 5.558 0 0 1 1.976-.338c.352 0 .633.017.843.052.211.035.413.087.606.156l-.211 3.2a2.378 2.378 0 0 0-.421-.13 2.906 2.906 0 0 0-.606-.052c-.509 0-.913.165-1.212.494-.298.33-.448.78-.448 1.353v1.015h4.874V2.315h3.451v3.903h3.161V9.13h-3.161v4.943c0 .295.026.572.079.832.07.243.193.451.369.625.246.277.597.416 1.054.416.298 0 .535-.026.711-.078.176-.07.342-.156.501-.26L120 18.6a5.31 5.31 0 0 1-1.317.417 6.897 6.897 0 0 1-1.528.156c-.65 0-1.238-.096-1.765-.286a3.924 3.924 0 0 1-1.291-.833c-.825-.78-1.238-1.89-1.238-3.33V9.131z" fill="#222"/><path d="M0 30.102v4.796h1.711c1.547 0 2.344-.83 2.344-2.4 0-1.574-.793-2.396-2.344-2.396H0zm.684.548h.988c1.133 0 1.676.625 1.676 1.848 0 1.258-.57 1.852-1.676 1.852H.684v-3.7zm10.008 4.248v-4.796h-.684v4.796h.684zm10.129-3.334c-.07-.931-.848-1.564-1.984-1.564-1.325 0-2.118.801-2.118 2.108v.71c0 1.391.746 2.182 2.133 2.182 1.157 0 1.981-.696 1.981-1.613V32.4h-2.04v.534h1.376v.464c0 .622-.532 1.05-1.313 1.05-.95 0-1.457-.59-1.457-1.63v-.71c0-.98.531-1.556 1.438-1.556.738 0 1.222.38 1.308 1.012h.676zm6.731 3.334v-4.796h-.684v4.796h.684zm7.972 0V30.65h1.622v-.548h-3.919v.548h1.622v4.248h.675zm7.137 0l.54-1.44h1.984l.54 1.44h.718l-1.899-4.796h-.695l-1.899 4.796h.711zm1.543-4.072l.797 2.136h-1.617l.8-2.136h.02zm11.075 3.52h-2.454v-4.244h-.683v4.796h3.137v-.552zm12.422.552l.539-1.44h1.985l.538 1.44h.72l-1.899-4.796h-.696l-1.898 4.796h.711zm1.543-4.072l.797 2.136h-1.617l.8-2.136h.02zm11.743.738c-.07-.931-.848-1.564-1.985-1.564-1.324 0-2.117.801-2.117 2.108v.71c0 1.391.746 2.182 2.133 2.182 1.156 0 1.98-.696 1.98-1.613V32.4H78.96v.534h1.376v.464c0 .622-.532 1.05-1.313 1.05-.95 0-1.458-.59-1.458-1.63v-.71c0-.98.532-1.556 1.438-1.556.739 0 1.223.38 1.309 1.012h.676zm9.246 2.786h-2.52v-1.634h2.38v-.534h-2.38V30.65h2.52v-.548h-3.2v4.796h3.2v-.548zm6.703.548V31.15h.016l2.711 3.75h.657v-4.797h-.653v3.745h-.016l-2.711-3.745h-.656v4.796h.652zm10.098-2.698c0-1.055.508-1.648 1.418-1.648.75 0 1.266.439 1.286 1.078h.672v-.01c0-.942-.825-1.62-1.962-1.62-1.32 0-2.094.822-2.094 2.2v.628c0 1.364.774 2.172 2.094 2.172 1.129 0 1.962-.65 1.962-1.535v-.015h-.672c-.02.594-.536.998-1.286.998-.91 0-1.418-.583-1.418-1.62V32.2zm11.18 2.698v-2.07L120 30.102h-.774l-1.336 2.13h-.023l-1.333-2.13h-.781l1.785 2.73v2.066h.676z" fill="#333"/></svg>